%TF.GenerationSoftware,KiCad,Pcbnew,(6.0.7)*%
%TF.CreationDate,2022-10-24T21:40:08-07:00*%
%TF.ProjectId,18650_3s2p,31383635-305f-4337-9332-702e6b696361,2.0*%
%TF.SameCoordinates,Original*%
%TF.FileFunction,Drillmap*%
%TF.FilePolarity,Positive*%
%FSLAX45Y45*%
G04 Gerber Fmt 4.5, Leading zero omitted, Abs format (unit mm)*
G04 Created by KiCad (PCBNEW (6.0.7)) date 2022-10-24 21:40:08*
%MOMM*%
%LPD*%
G01*
G04 APERTURE LIST*
%ADD10C,0.200000*%
%ADD11C,0.040000*%
%ADD12C,0.060000*%
%ADD13C,0.400000*%
G04 APERTURE END LIST*
D10*
X5000000Y-5000000D02*
X15000000Y-5000000D01*
X15000000Y-5000000D02*
X15000000Y-15000000D01*
X15000000Y-15000000D02*
X5000000Y-15000000D01*
X5000000Y-15000000D02*
X5000000Y-5000000D01*
D11*
X7980000Y-7980000D02*
X8020000Y-8020000D01*
X8020000Y-7980000D02*
X7980000Y-8020000D01*
X7980000Y-8480000D02*
X8020000Y-8520000D01*
X8020000Y-8480000D02*
X7980000Y-8520000D01*
X7980000Y-8980000D02*
X8020000Y-9020000D01*
X8020000Y-8980000D02*
X7980000Y-9020000D01*
X7980000Y-9480000D02*
X8020000Y-9520000D01*
X8020000Y-9480000D02*
X7980000Y-9520000D01*
X8480000Y-5480000D02*
X8520000Y-5520000D01*
X8520000Y-5480000D02*
X8480000Y-5520000D01*
X8480000Y-5980000D02*
X8520000Y-6020000D01*
X8520000Y-5980000D02*
X8480000Y-6020000D01*
X8480000Y-6480000D02*
X8520000Y-6520000D01*
X8520000Y-6480000D02*
X8480000Y-6520000D01*
X8480000Y-6980000D02*
X8520000Y-7020000D01*
X8520000Y-6980000D02*
X8480000Y-7020000D01*
X8480000Y-7480000D02*
X8520000Y-7520000D01*
X8520000Y-7480000D02*
X8480000Y-7520000D01*
X8480000Y-7990000D02*
X8520000Y-8030000D01*
X8520000Y-7990000D02*
X8480000Y-8030000D01*
X8480000Y-8480000D02*
X8520000Y-8520000D01*
X8520000Y-8480000D02*
X8480000Y-8520000D01*
X8480000Y-8980000D02*
X8520000Y-9020000D01*
X8520000Y-8980000D02*
X8480000Y-9020000D01*
X8480000Y-9480000D02*
X8520000Y-9520000D01*
X8520000Y-9480000D02*
X8480000Y-9520000D01*
X8480000Y-9980000D02*
X8520000Y-10020000D01*
X8520000Y-9980000D02*
X8480000Y-10020000D01*
X8480000Y-10480000D02*
X8520000Y-10520000D01*
X8520000Y-10480000D02*
X8480000Y-10520000D01*
X8480000Y-10980000D02*
X8520000Y-11020000D01*
X8520000Y-10980000D02*
X8480000Y-11020000D01*
X8480000Y-11480000D02*
X8520000Y-11520000D01*
X8520000Y-11480000D02*
X8480000Y-11520000D01*
X8980000Y-5980000D02*
X9020000Y-6020000D01*
X9020000Y-5980000D02*
X8980000Y-6020000D01*
X8980000Y-6480000D02*
X9020000Y-6520000D01*
X9020000Y-6480000D02*
X8980000Y-6520000D01*
X8980000Y-6980000D02*
X9020000Y-7020000D01*
X9020000Y-6980000D02*
X8980000Y-7020000D01*
X8980000Y-7480000D02*
X9020000Y-7520000D01*
X9020000Y-7480000D02*
X8980000Y-7520000D01*
X8980000Y-7990000D02*
X9020000Y-8030000D01*
X9020000Y-7990000D02*
X8980000Y-8030000D01*
X8980000Y-8480000D02*
X9020000Y-8520000D01*
X9020000Y-8480000D02*
X8980000Y-8520000D01*
X8980000Y-8980000D02*
X9020000Y-9020000D01*
X9020000Y-8980000D02*
X8980000Y-9020000D01*
X8980000Y-9480000D02*
X9020000Y-9520000D01*
X9020000Y-9480000D02*
X8980000Y-9520000D01*
X8980000Y-9980000D02*
X9020000Y-10020000D01*
X9020000Y-9980000D02*
X8980000Y-10020000D01*
X8980000Y-10480000D02*
X9020000Y-10520000D01*
X9020000Y-10480000D02*
X8980000Y-10520000D01*
X8980000Y-10980000D02*
X9020000Y-11020000D01*
X9020000Y-10980000D02*
X8980000Y-11020000D01*
X8980000Y-11480000D02*
X9020000Y-11520000D01*
X9020000Y-11480000D02*
X8980000Y-11520000D01*
X8980000Y-11980000D02*
X9020000Y-12020000D01*
X9020000Y-11980000D02*
X8980000Y-12020000D01*
X8980000Y-12480000D02*
X9020000Y-12520000D01*
X9020000Y-12480000D02*
X8980000Y-12520000D01*
X8980000Y-12980000D02*
X9020000Y-13020000D01*
X9020000Y-12980000D02*
X8980000Y-13020000D01*
X9480000Y-7980000D02*
X9520000Y-8020000D01*
X9520000Y-7980000D02*
X9480000Y-8020000D01*
X9480000Y-8480000D02*
X9520000Y-8520000D01*
X9520000Y-8480000D02*
X9480000Y-8520000D01*
X9480000Y-8980000D02*
X9520000Y-9020000D01*
X9520000Y-8980000D02*
X9480000Y-9020000D01*
X9480000Y-9480000D02*
X9520000Y-9520000D01*
X9520000Y-9480000D02*
X9480000Y-9520000D01*
X9480000Y-9980000D02*
X9520000Y-10020000D01*
X9520000Y-9980000D02*
X9480000Y-10020000D01*
X9480000Y-10480000D02*
X9520000Y-10520000D01*
X9520000Y-10480000D02*
X9480000Y-10520000D01*
X9480000Y-10980000D02*
X9520000Y-11020000D01*
X9520000Y-10980000D02*
X9480000Y-11020000D01*
X10480000Y-7480000D02*
X10520000Y-7520000D01*
X10520000Y-7480000D02*
X10480000Y-7520000D01*
X10480000Y-7980000D02*
X10520000Y-8020000D01*
X10520000Y-7980000D02*
X10480000Y-8020000D01*
X10480000Y-8480000D02*
X10520000Y-8520000D01*
X10520000Y-8480000D02*
X10480000Y-8520000D01*
X10480000Y-8980000D02*
X10520000Y-9020000D01*
X10520000Y-8980000D02*
X10480000Y-9020000D01*
X10480000Y-9480000D02*
X10520000Y-9520000D01*
X10520000Y-9480000D02*
X10480000Y-9520000D01*
X10480000Y-9980000D02*
X10520000Y-10020000D01*
X10520000Y-9980000D02*
X10480000Y-10020000D01*
X10480000Y-10480000D02*
X10520000Y-10520000D01*
X10520000Y-10480000D02*
X10480000Y-10520000D01*
X10480000Y-10980000D02*
X10520000Y-11020000D01*
X10520000Y-10980000D02*
X10480000Y-11020000D01*
X10480000Y-11480000D02*
X10520000Y-11520000D01*
X10520000Y-11480000D02*
X10480000Y-11520000D01*
X10980000Y-5480000D02*
X11020000Y-5520000D01*
X11020000Y-5480000D02*
X10980000Y-5520000D01*
X10980000Y-5980000D02*
X11020000Y-6020000D01*
X11020000Y-5980000D02*
X10980000Y-6020000D01*
X10980000Y-6480000D02*
X11020000Y-6520000D01*
X11020000Y-6480000D02*
X10980000Y-6520000D01*
X10980000Y-6980000D02*
X11020000Y-7020000D01*
X11020000Y-6980000D02*
X10980000Y-7020000D01*
X10980000Y-7480000D02*
X11020000Y-7520000D01*
X11020000Y-7480000D02*
X10980000Y-7520000D01*
X10980000Y-7980000D02*
X11020000Y-8020000D01*
X11020000Y-7980000D02*
X10980000Y-8020000D01*
X10980000Y-8480000D02*
X11020000Y-8520000D01*
X11020000Y-8480000D02*
X10980000Y-8520000D01*
X10980000Y-8980000D02*
X11020000Y-9020000D01*
X11020000Y-8980000D02*
X10980000Y-9020000D01*
X10980000Y-9480000D02*
X11020000Y-9520000D01*
X11020000Y-9480000D02*
X10980000Y-9520000D01*
X10980000Y-9980000D02*
X11020000Y-10020000D01*
X11020000Y-9980000D02*
X10980000Y-10020000D01*
X10980000Y-10480000D02*
X11020000Y-10520000D01*
X11020000Y-10480000D02*
X10980000Y-10520000D01*
X10980000Y-10980000D02*
X11020000Y-11020000D01*
X11020000Y-10980000D02*
X10980000Y-11020000D01*
X10980000Y-11480000D02*
X11020000Y-11520000D01*
X11020000Y-11480000D02*
X10980000Y-11520000D01*
X10980000Y-11980000D02*
X11020000Y-12020000D01*
X11020000Y-11980000D02*
X10980000Y-12020000D01*
X10980000Y-12480000D02*
X11020000Y-12520000D01*
X11020000Y-12480000D02*
X10980000Y-12520000D01*
X10980000Y-12980000D02*
X11020000Y-13020000D01*
X11020000Y-12980000D02*
X10980000Y-13020000D01*
X11480000Y-5480000D02*
X11520000Y-5520000D01*
X11520000Y-5480000D02*
X11480000Y-5520000D01*
X11480000Y-5980000D02*
X11520000Y-6020000D01*
X11520000Y-5980000D02*
X11480000Y-6020000D01*
X11480000Y-6480000D02*
X11520000Y-6520000D01*
X11520000Y-6480000D02*
X11480000Y-6520000D01*
X11480000Y-6980000D02*
X11520000Y-7020000D01*
X11520000Y-6980000D02*
X11480000Y-7020000D01*
X11480000Y-7480000D02*
X11520000Y-7520000D01*
X11520000Y-7480000D02*
X11480000Y-7520000D01*
X11480000Y-7980000D02*
X11520000Y-8020000D01*
X11520000Y-7980000D02*
X11480000Y-8020000D01*
X11480000Y-8480000D02*
X11520000Y-8520000D01*
X11520000Y-8480000D02*
X11480000Y-8520000D01*
X11480000Y-8980000D02*
X11520000Y-9020000D01*
X11520000Y-8980000D02*
X11480000Y-9020000D01*
X11480000Y-9480000D02*
X11520000Y-9520000D01*
X11520000Y-9480000D02*
X11480000Y-9520000D01*
X11480000Y-9980000D02*
X11520000Y-10020000D01*
X11520000Y-9980000D02*
X11480000Y-10020000D01*
X11480000Y-10480000D02*
X11520000Y-10520000D01*
X11520000Y-10480000D02*
X11480000Y-10520000D01*
X11480000Y-10980000D02*
X11520000Y-11020000D01*
X11520000Y-10980000D02*
X11480000Y-11020000D01*
X11980000Y-7480000D02*
X12020000Y-7520000D01*
X12020000Y-7480000D02*
X11980000Y-7520000D01*
X11980000Y-7980000D02*
X12020000Y-8020000D01*
X12020000Y-7980000D02*
X11980000Y-8020000D01*
X11980000Y-8480000D02*
X12020000Y-8520000D01*
X12020000Y-8480000D02*
X11980000Y-8520000D01*
X11980000Y-8980000D02*
X12020000Y-9020000D01*
X12020000Y-8980000D02*
X11980000Y-9020000D01*
D12*
X5230000Y-5500000D02*
G75*
G03*
X5230000Y-5500000I-30000J0D01*
G01*
X5230000Y-14500000D02*
G75*
G03*
X5230000Y-14500000I-30000J0D01*
G01*
X5317868Y-5287868D02*
G75*
G03*
X5317868Y-5287868I-30000J0D01*
G01*
X5317868Y-5712132D02*
G75*
G03*
X5317868Y-5712132I-30000J0D01*
G01*
X5317868Y-14287868D02*
G75*
G03*
X5317868Y-14287868I-30000J0D01*
G01*
X5317868Y-14712132D02*
G75*
G03*
X5317868Y-14712132I-30000J0D01*
G01*
X5530000Y-5200000D02*
G75*
G03*
X5530000Y-5200000I-30000J0D01*
G01*
X5530000Y-5800000D02*
G75*
G03*
X5530000Y-5800000I-30000J0D01*
G01*
X5530000Y-14200000D02*
G75*
G03*
X5530000Y-14200000I-30000J0D01*
G01*
X5530000Y-14800000D02*
G75*
G03*
X5530000Y-14800000I-30000J0D01*
G01*
X5742132Y-5287868D02*
G75*
G03*
X5742132Y-5287868I-30000J0D01*
G01*
X5742132Y-5712132D02*
G75*
G03*
X5742132Y-5712132I-30000J0D01*
G01*
X5742132Y-14287868D02*
G75*
G03*
X5742132Y-14287868I-30000J0D01*
G01*
X5742132Y-14712132D02*
G75*
G03*
X5742132Y-14712132I-30000J0D01*
G01*
X5830000Y-5500000D02*
G75*
G03*
X5830000Y-5500000I-30000J0D01*
G01*
X5830000Y-14500000D02*
G75*
G03*
X5830000Y-14500000I-30000J0D01*
G01*
X14230000Y-5500000D02*
G75*
G03*
X14230000Y-5500000I-30000J0D01*
G01*
X14230000Y-14500000D02*
G75*
G03*
X14230000Y-14500000I-30000J0D01*
G01*
X14317868Y-5287868D02*
G75*
G03*
X14317868Y-5287868I-30000J0D01*
G01*
X14317868Y-5712132D02*
G75*
G03*
X14317868Y-5712132I-30000J0D01*
G01*
X14317868Y-14287868D02*
G75*
G03*
X14317868Y-14287868I-30000J0D01*
G01*
X14317868Y-14712132D02*
G75*
G03*
X14317868Y-14712132I-30000J0D01*
G01*
X14530000Y-5200000D02*
G75*
G03*
X14530000Y-5200000I-30000J0D01*
G01*
X14530000Y-5800000D02*
G75*
G03*
X14530000Y-5800000I-30000J0D01*
G01*
X14530000Y-14200000D02*
G75*
G03*
X14530000Y-14200000I-30000J0D01*
G01*
X14530000Y-14800000D02*
G75*
G03*
X14530000Y-14800000I-30000J0D01*
G01*
X14742132Y-5287868D02*
G75*
G03*
X14742132Y-5287868I-30000J0D01*
G01*
X14742132Y-5712132D02*
G75*
G03*
X14742132Y-5712132I-30000J0D01*
G01*
X14742132Y-14287868D02*
G75*
G03*
X14742132Y-14287868I-30000J0D01*
G01*
X14742132Y-14712132D02*
G75*
G03*
X14742132Y-14712132I-30000J0D01*
G01*
X14830000Y-5500000D02*
G75*
G03*
X14830000Y-5500000I-30000J0D01*
G01*
X14830000Y-14500000D02*
G75*
G03*
X14830000Y-14500000I-30000J0D01*
G01*
D13*
X5500000Y-5300000D02*
X5500000Y-5700000D01*
X5300000Y-5500000D02*
X5700000Y-5500000D01*
X5500000Y-14300000D02*
X5500000Y-14700000D01*
X5300000Y-14500000D02*
X5700000Y-14500000D01*
X14500000Y-5300000D02*
X14500000Y-5700000D01*
X14300000Y-5500000D02*
X14700000Y-5500000D01*
X14500000Y-14300000D02*
X14500000Y-14700000D01*
X14300000Y-14500000D02*
X14700000Y-14500000D01*
D10*
X5247619Y-15320476D02*
X5247619Y-15120476D01*
X5295238Y-15120476D01*
X5323810Y-15130000D01*
X5342857Y-15149048D01*
X5352381Y-15168095D01*
X5361905Y-15206190D01*
X5361905Y-15234762D01*
X5352381Y-15272857D01*
X5342857Y-15291905D01*
X5323810Y-15310952D01*
X5295238Y-15320476D01*
X5247619Y-15320476D01*
X5447619Y-15320476D02*
X5447619Y-15187143D01*
X5447619Y-15225238D02*
X5457143Y-15206190D01*
X5466667Y-15196667D01*
X5485714Y-15187143D01*
X5504762Y-15187143D01*
X5571429Y-15320476D02*
X5571429Y-15187143D01*
X5571429Y-15120476D02*
X5561905Y-15130000D01*
X5571429Y-15139524D01*
X5580952Y-15130000D01*
X5571429Y-15120476D01*
X5571429Y-15139524D01*
X5695238Y-15320476D02*
X5676190Y-15310952D01*
X5666667Y-15291905D01*
X5666667Y-15120476D01*
X5800000Y-15320476D02*
X5780952Y-15310952D01*
X5771428Y-15291905D01*
X5771428Y-15120476D01*
X6028571Y-15320476D02*
X6028571Y-15120476D01*
X6095238Y-15263333D01*
X6161905Y-15120476D01*
X6161905Y-15320476D01*
X6342857Y-15320476D02*
X6342857Y-15215714D01*
X6333333Y-15196667D01*
X6314286Y-15187143D01*
X6276190Y-15187143D01*
X6257143Y-15196667D01*
X6342857Y-15310952D02*
X6323809Y-15320476D01*
X6276190Y-15320476D01*
X6257143Y-15310952D01*
X6247619Y-15291905D01*
X6247619Y-15272857D01*
X6257143Y-15253809D01*
X6276190Y-15244286D01*
X6323809Y-15244286D01*
X6342857Y-15234762D01*
X6438095Y-15187143D02*
X6438095Y-15387143D01*
X6438095Y-15196667D02*
X6457143Y-15187143D01*
X6495238Y-15187143D01*
X6514286Y-15196667D01*
X6523809Y-15206190D01*
X6533333Y-15225238D01*
X6533333Y-15282381D01*
X6523809Y-15301428D01*
X6514286Y-15310952D01*
X6495238Y-15320476D01*
X6457143Y-15320476D01*
X6438095Y-15310952D01*
X6619048Y-15301428D02*
X6628571Y-15310952D01*
X6619048Y-15320476D01*
X6609524Y-15310952D01*
X6619048Y-15301428D01*
X6619048Y-15320476D01*
X6619048Y-15196667D02*
X6628571Y-15206190D01*
X6619048Y-15215714D01*
X6609524Y-15206190D01*
X6619048Y-15196667D01*
X6619048Y-15215714D01*
D11*
X4950000Y-15630000D02*
X4990000Y-15670000D01*
X4990000Y-15630000D02*
X4950000Y-15670000D01*
D10*
X5285714Y-15540476D02*
X5304762Y-15540476D01*
X5323810Y-15550000D01*
X5333333Y-15559524D01*
X5342857Y-15578571D01*
X5352381Y-15616667D01*
X5352381Y-15664286D01*
X5342857Y-15702381D01*
X5333333Y-15721428D01*
X5323810Y-15730952D01*
X5304762Y-15740476D01*
X5285714Y-15740476D01*
X5266667Y-15730952D01*
X5257143Y-15721428D01*
X5247619Y-15702381D01*
X5238095Y-15664286D01*
X5238095Y-15616667D01*
X5247619Y-15578571D01*
X5257143Y-15559524D01*
X5266667Y-15550000D01*
X5285714Y-15540476D01*
X5438095Y-15721428D02*
X5447619Y-15730952D01*
X5438095Y-15740476D01*
X5428571Y-15730952D01*
X5438095Y-15721428D01*
X5438095Y-15740476D01*
X5619048Y-15607143D02*
X5619048Y-15740476D01*
X5571429Y-15530952D02*
X5523810Y-15673809D01*
X5647619Y-15673809D01*
X5761905Y-15540476D02*
X5780952Y-15540476D01*
X5800000Y-15550000D01*
X5809524Y-15559524D01*
X5819048Y-15578571D01*
X5828571Y-15616667D01*
X5828571Y-15664286D01*
X5819048Y-15702381D01*
X5809524Y-15721428D01*
X5800000Y-15730952D01*
X5780952Y-15740476D01*
X5761905Y-15740476D01*
X5742857Y-15730952D01*
X5733333Y-15721428D01*
X5723809Y-15702381D01*
X5714286Y-15664286D01*
X5714286Y-15616667D01*
X5723809Y-15578571D01*
X5733333Y-15559524D01*
X5742857Y-15550000D01*
X5761905Y-15540476D01*
X5952381Y-15540476D02*
X5971428Y-15540476D01*
X5990476Y-15550000D01*
X6000000Y-15559524D01*
X6009524Y-15578571D01*
X6019048Y-15616667D01*
X6019048Y-15664286D01*
X6009524Y-15702381D01*
X6000000Y-15721428D01*
X5990476Y-15730952D01*
X5971428Y-15740476D01*
X5952381Y-15740476D01*
X5933333Y-15730952D01*
X5923809Y-15721428D01*
X5914286Y-15702381D01*
X5904762Y-15664286D01*
X5904762Y-15616667D01*
X5914286Y-15578571D01*
X5923809Y-15559524D01*
X5933333Y-15550000D01*
X5952381Y-15540476D01*
X6104762Y-15740476D02*
X6104762Y-15607143D01*
X6104762Y-15626190D02*
X6114286Y-15616667D01*
X6133333Y-15607143D01*
X6161905Y-15607143D01*
X6180952Y-15616667D01*
X6190476Y-15635714D01*
X6190476Y-15740476D01*
X6190476Y-15635714D02*
X6200000Y-15616667D01*
X6219048Y-15607143D01*
X6247619Y-15607143D01*
X6266667Y-15616667D01*
X6276190Y-15635714D01*
X6276190Y-15740476D01*
X6371428Y-15740476D02*
X6371428Y-15607143D01*
X6371428Y-15626190D02*
X6380952Y-15616667D01*
X6400000Y-15607143D01*
X6428571Y-15607143D01*
X6447619Y-15616667D01*
X6457143Y-15635714D01*
X6457143Y-15740476D01*
X6457143Y-15635714D02*
X6466667Y-15616667D01*
X6485714Y-15607143D01*
X6514286Y-15607143D01*
X6533333Y-15616667D01*
X6542857Y-15635714D01*
X6542857Y-15740476D01*
X6933333Y-15530952D02*
X6761905Y-15788095D01*
X7190476Y-15540476D02*
X7209524Y-15540476D01*
X7228571Y-15550000D01*
X7238095Y-15559524D01*
X7247619Y-15578571D01*
X7257143Y-15616667D01*
X7257143Y-15664286D01*
X7247619Y-15702381D01*
X7238095Y-15721428D01*
X7228571Y-15730952D01*
X7209524Y-15740476D01*
X7190476Y-15740476D01*
X7171428Y-15730952D01*
X7161905Y-15721428D01*
X7152381Y-15702381D01*
X7142857Y-15664286D01*
X7142857Y-15616667D01*
X7152381Y-15578571D01*
X7161905Y-15559524D01*
X7171428Y-15550000D01*
X7190476Y-15540476D01*
X7342857Y-15721428D02*
X7352381Y-15730952D01*
X7342857Y-15740476D01*
X7333333Y-15730952D01*
X7342857Y-15721428D01*
X7342857Y-15740476D01*
X7476190Y-15540476D02*
X7495238Y-15540476D01*
X7514286Y-15550000D01*
X7523809Y-15559524D01*
X7533333Y-15578571D01*
X7542857Y-15616667D01*
X7542857Y-15664286D01*
X7533333Y-15702381D01*
X7523809Y-15721428D01*
X7514286Y-15730952D01*
X7495238Y-15740476D01*
X7476190Y-15740476D01*
X7457143Y-15730952D01*
X7447619Y-15721428D01*
X7438095Y-15702381D01*
X7428571Y-15664286D01*
X7428571Y-15616667D01*
X7438095Y-15578571D01*
X7447619Y-15559524D01*
X7457143Y-15550000D01*
X7476190Y-15540476D01*
X7733333Y-15740476D02*
X7619048Y-15740476D01*
X7676190Y-15740476D02*
X7676190Y-15540476D01*
X7657143Y-15569048D01*
X7638095Y-15588095D01*
X7619048Y-15597619D01*
X7914286Y-15540476D02*
X7819048Y-15540476D01*
X7809524Y-15635714D01*
X7819048Y-15626190D01*
X7838095Y-15616667D01*
X7885714Y-15616667D01*
X7904762Y-15626190D01*
X7914286Y-15635714D01*
X7923809Y-15654762D01*
X7923809Y-15702381D01*
X7914286Y-15721428D01*
X7904762Y-15730952D01*
X7885714Y-15740476D01*
X7838095Y-15740476D01*
X7819048Y-15730952D01*
X7809524Y-15721428D01*
X7990476Y-15540476D02*
X8123809Y-15540476D01*
X8038095Y-15740476D01*
X8190476Y-15540476D02*
X8190476Y-15578571D01*
X8266667Y-15540476D02*
X8266667Y-15578571D01*
X8561905Y-15816667D02*
X8552381Y-15807143D01*
X8533333Y-15778571D01*
X8523810Y-15759524D01*
X8514286Y-15730952D01*
X8504762Y-15683333D01*
X8504762Y-15645238D01*
X8514286Y-15597619D01*
X8523810Y-15569048D01*
X8533333Y-15550000D01*
X8552381Y-15521428D01*
X8561905Y-15511905D01*
X8666667Y-15626190D02*
X8647619Y-15616667D01*
X8638095Y-15607143D01*
X8628571Y-15588095D01*
X8628571Y-15578571D01*
X8638095Y-15559524D01*
X8647619Y-15550000D01*
X8666667Y-15540476D01*
X8704762Y-15540476D01*
X8723810Y-15550000D01*
X8733333Y-15559524D01*
X8742857Y-15578571D01*
X8742857Y-15588095D01*
X8733333Y-15607143D01*
X8723810Y-15616667D01*
X8704762Y-15626190D01*
X8666667Y-15626190D01*
X8647619Y-15635714D01*
X8638095Y-15645238D01*
X8628571Y-15664286D01*
X8628571Y-15702381D01*
X8638095Y-15721428D01*
X8647619Y-15730952D01*
X8666667Y-15740476D01*
X8704762Y-15740476D01*
X8723810Y-15730952D01*
X8733333Y-15721428D01*
X8742857Y-15702381D01*
X8742857Y-15664286D01*
X8733333Y-15645238D01*
X8723810Y-15635714D01*
X8704762Y-15626190D01*
X8866667Y-15540476D02*
X8885714Y-15540476D01*
X8904762Y-15550000D01*
X8914286Y-15559524D01*
X8923810Y-15578571D01*
X8933333Y-15616667D01*
X8933333Y-15664286D01*
X8923810Y-15702381D01*
X8914286Y-15721428D01*
X8904762Y-15730952D01*
X8885714Y-15740476D01*
X8866667Y-15740476D01*
X8847619Y-15730952D01*
X8838095Y-15721428D01*
X8828571Y-15702381D01*
X8819048Y-15664286D01*
X8819048Y-15616667D01*
X8828571Y-15578571D01*
X8838095Y-15559524D01*
X8847619Y-15550000D01*
X8866667Y-15540476D01*
X9171429Y-15740476D02*
X9171429Y-15540476D01*
X9257143Y-15740476D02*
X9257143Y-15635714D01*
X9247619Y-15616667D01*
X9228571Y-15607143D01*
X9200000Y-15607143D01*
X9180952Y-15616667D01*
X9171429Y-15626190D01*
X9380952Y-15740476D02*
X9361905Y-15730952D01*
X9352381Y-15721428D01*
X9342857Y-15702381D01*
X9342857Y-15645238D01*
X9352381Y-15626190D01*
X9361905Y-15616667D01*
X9380952Y-15607143D01*
X9409524Y-15607143D01*
X9428571Y-15616667D01*
X9438095Y-15626190D01*
X9447619Y-15645238D01*
X9447619Y-15702381D01*
X9438095Y-15721428D01*
X9428571Y-15730952D01*
X9409524Y-15740476D01*
X9380952Y-15740476D01*
X9561905Y-15740476D02*
X9542857Y-15730952D01*
X9533333Y-15711905D01*
X9533333Y-15540476D01*
X9714286Y-15730952D02*
X9695238Y-15740476D01*
X9657143Y-15740476D01*
X9638095Y-15730952D01*
X9628571Y-15711905D01*
X9628571Y-15635714D01*
X9638095Y-15616667D01*
X9657143Y-15607143D01*
X9695238Y-15607143D01*
X9714286Y-15616667D01*
X9723810Y-15635714D01*
X9723810Y-15654762D01*
X9628571Y-15673809D01*
X9800000Y-15730952D02*
X9819048Y-15740476D01*
X9857143Y-15740476D01*
X9876190Y-15730952D01*
X9885714Y-15711905D01*
X9885714Y-15702381D01*
X9876190Y-15683333D01*
X9857143Y-15673809D01*
X9828571Y-15673809D01*
X9809524Y-15664286D01*
X9800000Y-15645238D01*
X9800000Y-15635714D01*
X9809524Y-15616667D01*
X9828571Y-15607143D01*
X9857143Y-15607143D01*
X9876190Y-15616667D01*
X9952381Y-15816667D02*
X9961905Y-15807143D01*
X9980952Y-15778571D01*
X9990476Y-15759524D01*
X10000000Y-15730952D01*
X10009524Y-15683333D01*
X10009524Y-15645238D01*
X10000000Y-15597619D01*
X9990476Y-15569048D01*
X9980952Y-15550000D01*
X9961905Y-15521428D01*
X9952381Y-15511905D01*
D12*
X4990000Y-15914000D02*
G75*
G03*
X4990000Y-15914000I-30000J0D01*
G01*
D10*
X5285714Y-15804476D02*
X5304762Y-15804476D01*
X5323810Y-15814000D01*
X5333333Y-15823524D01*
X5342857Y-15842571D01*
X5352381Y-15880667D01*
X5352381Y-15928286D01*
X5342857Y-15966381D01*
X5333333Y-15985428D01*
X5323810Y-15994952D01*
X5304762Y-16004476D01*
X5285714Y-16004476D01*
X5266667Y-15994952D01*
X5257143Y-15985428D01*
X5247619Y-15966381D01*
X5238095Y-15928286D01*
X5238095Y-15880667D01*
X5247619Y-15842571D01*
X5257143Y-15823524D01*
X5266667Y-15814000D01*
X5285714Y-15804476D01*
X5438095Y-15985428D02*
X5447619Y-15994952D01*
X5438095Y-16004476D01*
X5428571Y-15994952D01*
X5438095Y-15985428D01*
X5438095Y-16004476D01*
X5619048Y-15804476D02*
X5580952Y-15804476D01*
X5561905Y-15814000D01*
X5552381Y-15823524D01*
X5533333Y-15852095D01*
X5523810Y-15890190D01*
X5523810Y-15966381D01*
X5533333Y-15985428D01*
X5542857Y-15994952D01*
X5561905Y-16004476D01*
X5600000Y-16004476D01*
X5619048Y-15994952D01*
X5628571Y-15985428D01*
X5638095Y-15966381D01*
X5638095Y-15918762D01*
X5628571Y-15899714D01*
X5619048Y-15890190D01*
X5600000Y-15880667D01*
X5561905Y-15880667D01*
X5542857Y-15890190D01*
X5533333Y-15899714D01*
X5523810Y-15918762D01*
X5761905Y-15804476D02*
X5780952Y-15804476D01*
X5800000Y-15814000D01*
X5809524Y-15823524D01*
X5819048Y-15842571D01*
X5828571Y-15880667D01*
X5828571Y-15928286D01*
X5819048Y-15966381D01*
X5809524Y-15985428D01*
X5800000Y-15994952D01*
X5780952Y-16004476D01*
X5761905Y-16004476D01*
X5742857Y-15994952D01*
X5733333Y-15985428D01*
X5723809Y-15966381D01*
X5714286Y-15928286D01*
X5714286Y-15880667D01*
X5723809Y-15842571D01*
X5733333Y-15823524D01*
X5742857Y-15814000D01*
X5761905Y-15804476D01*
X5952381Y-15804476D02*
X5971428Y-15804476D01*
X5990476Y-15814000D01*
X6000000Y-15823524D01*
X6009524Y-15842571D01*
X6019048Y-15880667D01*
X6019048Y-15928286D01*
X6009524Y-15966381D01*
X6000000Y-15985428D01*
X5990476Y-15994952D01*
X5971428Y-16004476D01*
X5952381Y-16004476D01*
X5933333Y-15994952D01*
X5923809Y-15985428D01*
X5914286Y-15966381D01*
X5904762Y-15928286D01*
X5904762Y-15880667D01*
X5914286Y-15842571D01*
X5923809Y-15823524D01*
X5933333Y-15814000D01*
X5952381Y-15804476D01*
X6104762Y-16004476D02*
X6104762Y-15871143D01*
X6104762Y-15890190D02*
X6114286Y-15880667D01*
X6133333Y-15871143D01*
X6161905Y-15871143D01*
X6180952Y-15880667D01*
X6190476Y-15899714D01*
X6190476Y-16004476D01*
X6190476Y-15899714D02*
X6200000Y-15880667D01*
X6219048Y-15871143D01*
X6247619Y-15871143D01*
X6266667Y-15880667D01*
X6276190Y-15899714D01*
X6276190Y-16004476D01*
X6371428Y-16004476D02*
X6371428Y-15871143D01*
X6371428Y-15890190D02*
X6380952Y-15880667D01*
X6400000Y-15871143D01*
X6428571Y-15871143D01*
X6447619Y-15880667D01*
X6457143Y-15899714D01*
X6457143Y-16004476D01*
X6457143Y-15899714D02*
X6466667Y-15880667D01*
X6485714Y-15871143D01*
X6514286Y-15871143D01*
X6533333Y-15880667D01*
X6542857Y-15899714D01*
X6542857Y-16004476D01*
X6933333Y-15794952D02*
X6761905Y-16052095D01*
X7190476Y-15804476D02*
X7209524Y-15804476D01*
X7228571Y-15814000D01*
X7238095Y-15823524D01*
X7247619Y-15842571D01*
X7257143Y-15880667D01*
X7257143Y-15928286D01*
X7247619Y-15966381D01*
X7238095Y-15985428D01*
X7228571Y-15994952D01*
X7209524Y-16004476D01*
X7190476Y-16004476D01*
X7171428Y-15994952D01*
X7161905Y-15985428D01*
X7152381Y-15966381D01*
X7142857Y-15928286D01*
X7142857Y-15880667D01*
X7152381Y-15842571D01*
X7161905Y-15823524D01*
X7171428Y-15814000D01*
X7190476Y-15804476D01*
X7342857Y-15985428D02*
X7352381Y-15994952D01*
X7342857Y-16004476D01*
X7333333Y-15994952D01*
X7342857Y-15985428D01*
X7342857Y-16004476D01*
X7476190Y-15804476D02*
X7495238Y-15804476D01*
X7514286Y-15814000D01*
X7523809Y-15823524D01*
X7533333Y-15842571D01*
X7542857Y-15880667D01*
X7542857Y-15928286D01*
X7533333Y-15966381D01*
X7523809Y-15985428D01*
X7514286Y-15994952D01*
X7495238Y-16004476D01*
X7476190Y-16004476D01*
X7457143Y-15994952D01*
X7447619Y-15985428D01*
X7438095Y-15966381D01*
X7428571Y-15928286D01*
X7428571Y-15880667D01*
X7438095Y-15842571D01*
X7447619Y-15823524D01*
X7457143Y-15814000D01*
X7476190Y-15804476D01*
X7619048Y-15823524D02*
X7628571Y-15814000D01*
X7647619Y-15804476D01*
X7695238Y-15804476D01*
X7714286Y-15814000D01*
X7723809Y-15823524D01*
X7733333Y-15842571D01*
X7733333Y-15861619D01*
X7723809Y-15890190D01*
X7609524Y-16004476D01*
X7733333Y-16004476D01*
X7800000Y-15804476D02*
X7923809Y-15804476D01*
X7857143Y-15880667D01*
X7885714Y-15880667D01*
X7904762Y-15890190D01*
X7914286Y-15899714D01*
X7923809Y-15918762D01*
X7923809Y-15966381D01*
X7914286Y-15985428D01*
X7904762Y-15994952D01*
X7885714Y-16004476D01*
X7828571Y-16004476D01*
X7809524Y-15994952D01*
X7800000Y-15985428D01*
X8095238Y-15804476D02*
X8057143Y-15804476D01*
X8038095Y-15814000D01*
X8028571Y-15823524D01*
X8009524Y-15852095D01*
X8000000Y-15890190D01*
X8000000Y-15966381D01*
X8009524Y-15985428D01*
X8019048Y-15994952D01*
X8038095Y-16004476D01*
X8076190Y-16004476D01*
X8095238Y-15994952D01*
X8104762Y-15985428D01*
X8114286Y-15966381D01*
X8114286Y-15918762D01*
X8104762Y-15899714D01*
X8095238Y-15890190D01*
X8076190Y-15880667D01*
X8038095Y-15880667D01*
X8019048Y-15890190D01*
X8009524Y-15899714D01*
X8000000Y-15918762D01*
X8190476Y-15804476D02*
X8190476Y-15842571D01*
X8266667Y-15804476D02*
X8266667Y-15842571D01*
X8561905Y-16080667D02*
X8552381Y-16071143D01*
X8533333Y-16042571D01*
X8523810Y-16023524D01*
X8514286Y-15994952D01*
X8504762Y-15947333D01*
X8504762Y-15909238D01*
X8514286Y-15861619D01*
X8523810Y-15833048D01*
X8533333Y-15814000D01*
X8552381Y-15785428D01*
X8561905Y-15775905D01*
X8619048Y-15804476D02*
X8742857Y-15804476D01*
X8676190Y-15880667D01*
X8704762Y-15880667D01*
X8723810Y-15890190D01*
X8733333Y-15899714D01*
X8742857Y-15918762D01*
X8742857Y-15966381D01*
X8733333Y-15985428D01*
X8723810Y-15994952D01*
X8704762Y-16004476D01*
X8647619Y-16004476D01*
X8628571Y-15994952D01*
X8619048Y-15985428D01*
X8819048Y-15823524D02*
X8828571Y-15814000D01*
X8847619Y-15804476D01*
X8895238Y-15804476D01*
X8914286Y-15814000D01*
X8923810Y-15823524D01*
X8933333Y-15842571D01*
X8933333Y-15861619D01*
X8923810Y-15890190D01*
X8809524Y-16004476D01*
X8933333Y-16004476D01*
X9171429Y-16004476D02*
X9171429Y-15804476D01*
X9257143Y-16004476D02*
X9257143Y-15899714D01*
X9247619Y-15880667D01*
X9228571Y-15871143D01*
X9200000Y-15871143D01*
X9180952Y-15880667D01*
X9171429Y-15890190D01*
X9380952Y-16004476D02*
X9361905Y-15994952D01*
X9352381Y-15985428D01*
X9342857Y-15966381D01*
X9342857Y-15909238D01*
X9352381Y-15890190D01*
X9361905Y-15880667D01*
X9380952Y-15871143D01*
X9409524Y-15871143D01*
X9428571Y-15880667D01*
X9438095Y-15890190D01*
X9447619Y-15909238D01*
X9447619Y-15966381D01*
X9438095Y-15985428D01*
X9428571Y-15994952D01*
X9409524Y-16004476D01*
X9380952Y-16004476D01*
X9561905Y-16004476D02*
X9542857Y-15994952D01*
X9533333Y-15975905D01*
X9533333Y-15804476D01*
X9714286Y-15994952D02*
X9695238Y-16004476D01*
X9657143Y-16004476D01*
X9638095Y-15994952D01*
X9628571Y-15975905D01*
X9628571Y-15899714D01*
X9638095Y-15880667D01*
X9657143Y-15871143D01*
X9695238Y-15871143D01*
X9714286Y-15880667D01*
X9723810Y-15899714D01*
X9723810Y-15918762D01*
X9628571Y-15937809D01*
X9800000Y-15994952D02*
X9819048Y-16004476D01*
X9857143Y-16004476D01*
X9876190Y-15994952D01*
X9885714Y-15975905D01*
X9885714Y-15966381D01*
X9876190Y-15947333D01*
X9857143Y-15937809D01*
X9828571Y-15937809D01*
X9809524Y-15928286D01*
X9800000Y-15909238D01*
X9800000Y-15899714D01*
X9809524Y-15880667D01*
X9828571Y-15871143D01*
X9857143Y-15871143D01*
X9876190Y-15880667D01*
X9952381Y-16080667D02*
X9961905Y-16071143D01*
X9980952Y-16042571D01*
X9990476Y-16023524D01*
X10000000Y-15994952D01*
X10009524Y-15947333D01*
X10009524Y-15909238D01*
X10000000Y-15861619D01*
X9990476Y-15833048D01*
X9980952Y-15814000D01*
X9961905Y-15785428D01*
X9952381Y-15775905D01*
X4890000Y-16078000D02*
X4890000Y-16278000D01*
X4790000Y-16178000D02*
X4990000Y-16178000D01*
X5333333Y-16135143D02*
X5333333Y-16268476D01*
X5285714Y-16058952D02*
X5238095Y-16201809D01*
X5361905Y-16201809D01*
X5438095Y-16249428D02*
X5447619Y-16258952D01*
X5438095Y-16268476D01*
X5428571Y-16258952D01*
X5438095Y-16249428D01*
X5438095Y-16268476D01*
X5571429Y-16068476D02*
X5590476Y-16068476D01*
X5609524Y-16078000D01*
X5619048Y-16087524D01*
X5628571Y-16106571D01*
X5638095Y-16144667D01*
X5638095Y-16192286D01*
X5628571Y-16230381D01*
X5619048Y-16249428D01*
X5609524Y-16258952D01*
X5590476Y-16268476D01*
X5571429Y-16268476D01*
X5552381Y-16258952D01*
X5542857Y-16249428D01*
X5533333Y-16230381D01*
X5523810Y-16192286D01*
X5523810Y-16144667D01*
X5533333Y-16106571D01*
X5542857Y-16087524D01*
X5552381Y-16078000D01*
X5571429Y-16068476D01*
X5761905Y-16068476D02*
X5780952Y-16068476D01*
X5800000Y-16078000D01*
X5809524Y-16087524D01*
X5819048Y-16106571D01*
X5828571Y-16144667D01*
X5828571Y-16192286D01*
X5819048Y-16230381D01*
X5809524Y-16249428D01*
X5800000Y-16258952D01*
X5780952Y-16268476D01*
X5761905Y-16268476D01*
X5742857Y-16258952D01*
X5733333Y-16249428D01*
X5723809Y-16230381D01*
X5714286Y-16192286D01*
X5714286Y-16144667D01*
X5723809Y-16106571D01*
X5733333Y-16087524D01*
X5742857Y-16078000D01*
X5761905Y-16068476D01*
X5952381Y-16068476D02*
X5971428Y-16068476D01*
X5990476Y-16078000D01*
X6000000Y-16087524D01*
X6009524Y-16106571D01*
X6019048Y-16144667D01*
X6019048Y-16192286D01*
X6009524Y-16230381D01*
X6000000Y-16249428D01*
X5990476Y-16258952D01*
X5971428Y-16268476D01*
X5952381Y-16268476D01*
X5933333Y-16258952D01*
X5923809Y-16249428D01*
X5914286Y-16230381D01*
X5904762Y-16192286D01*
X5904762Y-16144667D01*
X5914286Y-16106571D01*
X5923809Y-16087524D01*
X5933333Y-16078000D01*
X5952381Y-16068476D01*
X6104762Y-16268476D02*
X6104762Y-16135143D01*
X6104762Y-16154190D02*
X6114286Y-16144667D01*
X6133333Y-16135143D01*
X6161905Y-16135143D01*
X6180952Y-16144667D01*
X6190476Y-16163714D01*
X6190476Y-16268476D01*
X6190476Y-16163714D02*
X6200000Y-16144667D01*
X6219048Y-16135143D01*
X6247619Y-16135143D01*
X6266667Y-16144667D01*
X6276190Y-16163714D01*
X6276190Y-16268476D01*
X6371428Y-16268476D02*
X6371428Y-16135143D01*
X6371428Y-16154190D02*
X6380952Y-16144667D01*
X6400000Y-16135143D01*
X6428571Y-16135143D01*
X6447619Y-16144667D01*
X6457143Y-16163714D01*
X6457143Y-16268476D01*
X6457143Y-16163714D02*
X6466667Y-16144667D01*
X6485714Y-16135143D01*
X6514286Y-16135143D01*
X6533333Y-16144667D01*
X6542857Y-16163714D01*
X6542857Y-16268476D01*
X6933333Y-16058952D02*
X6761905Y-16316095D01*
X7190476Y-16068476D02*
X7209524Y-16068476D01*
X7228571Y-16078000D01*
X7238095Y-16087524D01*
X7247619Y-16106571D01*
X7257143Y-16144667D01*
X7257143Y-16192286D01*
X7247619Y-16230381D01*
X7238095Y-16249428D01*
X7228571Y-16258952D01*
X7209524Y-16268476D01*
X7190476Y-16268476D01*
X7171428Y-16258952D01*
X7161905Y-16249428D01*
X7152381Y-16230381D01*
X7142857Y-16192286D01*
X7142857Y-16144667D01*
X7152381Y-16106571D01*
X7161905Y-16087524D01*
X7171428Y-16078000D01*
X7190476Y-16068476D01*
X7342857Y-16249428D02*
X7352381Y-16258952D01*
X7342857Y-16268476D01*
X7333333Y-16258952D01*
X7342857Y-16249428D01*
X7342857Y-16268476D01*
X7542857Y-16268476D02*
X7428571Y-16268476D01*
X7485714Y-16268476D02*
X7485714Y-16068476D01*
X7466667Y-16097048D01*
X7447619Y-16116095D01*
X7428571Y-16125619D01*
X7723809Y-16068476D02*
X7628571Y-16068476D01*
X7619048Y-16163714D01*
X7628571Y-16154190D01*
X7647619Y-16144667D01*
X7695238Y-16144667D01*
X7714286Y-16154190D01*
X7723809Y-16163714D01*
X7733333Y-16182762D01*
X7733333Y-16230381D01*
X7723809Y-16249428D01*
X7714286Y-16258952D01*
X7695238Y-16268476D01*
X7647619Y-16268476D01*
X7628571Y-16258952D01*
X7619048Y-16249428D01*
X7800000Y-16068476D02*
X7933333Y-16068476D01*
X7847619Y-16268476D01*
X8104762Y-16068476D02*
X8009524Y-16068476D01*
X8000000Y-16163714D01*
X8009524Y-16154190D01*
X8028571Y-16144667D01*
X8076190Y-16144667D01*
X8095238Y-16154190D01*
X8104762Y-16163714D01*
X8114286Y-16182762D01*
X8114286Y-16230381D01*
X8104762Y-16249428D01*
X8095238Y-16258952D01*
X8076190Y-16268476D01*
X8028571Y-16268476D01*
X8009524Y-16258952D01*
X8000000Y-16249428D01*
X8190476Y-16068476D02*
X8190476Y-16106571D01*
X8266667Y-16068476D02*
X8266667Y-16106571D01*
X8561905Y-16344667D02*
X8552381Y-16335143D01*
X8533333Y-16306571D01*
X8523810Y-16287524D01*
X8514286Y-16258952D01*
X8504762Y-16211333D01*
X8504762Y-16173238D01*
X8514286Y-16125619D01*
X8523810Y-16097048D01*
X8533333Y-16078000D01*
X8552381Y-16049428D01*
X8561905Y-16039905D01*
X8723810Y-16135143D02*
X8723810Y-16268476D01*
X8676190Y-16058952D02*
X8628571Y-16201809D01*
X8752381Y-16201809D01*
X8980952Y-16268476D02*
X8980952Y-16068476D01*
X9066667Y-16268476D02*
X9066667Y-16163714D01*
X9057143Y-16144667D01*
X9038095Y-16135143D01*
X9009524Y-16135143D01*
X8990476Y-16144667D01*
X8980952Y-16154190D01*
X9190476Y-16268476D02*
X9171429Y-16258952D01*
X9161905Y-16249428D01*
X9152381Y-16230381D01*
X9152381Y-16173238D01*
X9161905Y-16154190D01*
X9171429Y-16144667D01*
X9190476Y-16135143D01*
X9219048Y-16135143D01*
X9238095Y-16144667D01*
X9247619Y-16154190D01*
X9257143Y-16173238D01*
X9257143Y-16230381D01*
X9247619Y-16249428D01*
X9238095Y-16258952D01*
X9219048Y-16268476D01*
X9190476Y-16268476D01*
X9371429Y-16268476D02*
X9352381Y-16258952D01*
X9342857Y-16239905D01*
X9342857Y-16068476D01*
X9523810Y-16258952D02*
X9504762Y-16268476D01*
X9466667Y-16268476D01*
X9447619Y-16258952D01*
X9438095Y-16239905D01*
X9438095Y-16163714D01*
X9447619Y-16144667D01*
X9466667Y-16135143D01*
X9504762Y-16135143D01*
X9523810Y-16144667D01*
X9533333Y-16163714D01*
X9533333Y-16182762D01*
X9438095Y-16201809D01*
X9609524Y-16258952D02*
X9628571Y-16268476D01*
X9666667Y-16268476D01*
X9685714Y-16258952D01*
X9695238Y-16239905D01*
X9695238Y-16230381D01*
X9685714Y-16211333D01*
X9666667Y-16201809D01*
X9638095Y-16201809D01*
X9619048Y-16192286D01*
X9609524Y-16173238D01*
X9609524Y-16163714D01*
X9619048Y-16144667D01*
X9638095Y-16135143D01*
X9666667Y-16135143D01*
X9685714Y-16144667D01*
X9761905Y-16344667D02*
X9771429Y-16335143D01*
X9790476Y-16306571D01*
X9800000Y-16287524D01*
X9809524Y-16258952D01*
X9819048Y-16211333D01*
X9819048Y-16173238D01*
X9809524Y-16125619D01*
X9800000Y-16097048D01*
X9790476Y-16078000D01*
X9771429Y-16049428D01*
X9761905Y-16039905D01*
M02*
