M48
; DRILL file {KiCad (6.0.7)} date Mon Oct 24 21:40:08 2022
; FORMAT={-:-/ absolute / inch / decimal}
; #@! TF.CreationDate,2022-10-24T21:40:08-07:00
; #@! TF.GenerationSoftware,Kicad,Pcbnew,(6.0.7)
; #@! TF.FileFunction,Plated,1,2,PTH
FMAT,2
INCH
; #@! TA.AperFunction,Plated,PTH,ViaDrill
T1C0.0157
; #@! TA.AperFunction,Plated,PTH,ComponentDrill
T2C0.0236
; #@! TA.AperFunction,Plated,PTH,ComponentDrill
T3C0.1575
%
G90
G05
T1
X3.1496Y-3.1496
X3.1496Y-3.3465
X3.1496Y-3.5433
X3.1496Y-3.7402
X3.3465Y-2.1654
X3.3465Y-2.3622
X3.3465Y-2.5591
X3.3465Y-2.7559
X3.3465Y-2.9528
X3.3465Y-3.1535
X3.3465Y-3.3465
X3.3465Y-3.5433
X3.3465Y-3.7402
X3.3465Y-3.937
X3.3465Y-4.1339
X3.3465Y-4.3307
X3.3465Y-4.5276
X3.5433Y-2.3622
X3.5433Y-2.5591
X3.5433Y-2.7559
X3.5433Y-2.9528
X3.5433Y-3.1535
X3.5433Y-3.3465
X3.5433Y-3.5433
X3.5433Y-3.7402
X3.5433Y-3.937
X3.5433Y-4.1339
X3.5433Y-4.3307
X3.5433Y-4.5276
X3.5433Y-4.7244
X3.5433Y-4.9213
X3.5433Y-5.1181
X3.7402Y-3.1496
X3.7402Y-3.3465
X3.7402Y-3.5433
X3.7402Y-3.7402
X3.7402Y-3.937
X3.7402Y-4.1339
X3.7402Y-4.3307
X4.1339Y-2.9528
X4.1339Y-3.1496
X4.1339Y-3.3465
X4.1339Y-3.5433
X4.1339Y-3.7402
X4.1339Y-3.937
X4.1339Y-4.1339
X4.1339Y-4.3307
X4.1339Y-4.5276
X4.3307Y-2.1654
X4.3307Y-2.3622
X4.3307Y-2.5591
X4.3307Y-2.7559
X4.3307Y-2.9528
X4.3307Y-3.1496
X4.3307Y-3.3465
X4.3307Y-3.5433
X4.3307Y-3.7402
X4.3307Y-3.937
X4.3307Y-4.1339
X4.3307Y-4.3307
X4.3307Y-4.5276
X4.3307Y-4.7244
X4.3307Y-4.9213
X4.3307Y-5.1181
X4.5276Y-2.1654
X4.5276Y-2.3622
X4.5276Y-2.5591
X4.5276Y-2.7559
X4.5276Y-2.9528
X4.5276Y-3.1496
X4.5276Y-3.3465
X4.5276Y-3.5433
X4.5276Y-3.7402
X4.5276Y-3.937
X4.5276Y-4.1339
X4.5276Y-4.3307
X4.7244Y-2.9528
X4.7244Y-3.1496
X4.7244Y-3.3465
X4.7244Y-3.5433
T2
X2.0472Y-2.1654
X2.0472Y-5.7087
X2.0818Y-2.0818
X2.0818Y-2.2489
X2.0818Y-5.6251
X2.0818Y-5.7922
X2.1654Y-2.0472
X2.1654Y-2.2835
X2.1654Y-5.5906
X2.1654Y-5.8268
X2.2489Y-2.0818
X2.2489Y-2.2489
X2.2489Y-5.6251
X2.2489Y-5.7922
X2.2835Y-2.1654
X2.2835Y-5.7087
X5.5906Y-2.1654
X5.5906Y-5.7087
X5.6251Y-2.0818
X5.6251Y-2.2489
X5.6251Y-5.6251
X5.6251Y-5.7922
X5.7087Y-2.0472
X5.7087Y-2.2835
X5.7087Y-5.5906
X5.7087Y-5.8268
X5.7922Y-2.0818
X5.7922Y-2.2489
X5.7922Y-5.6251
X5.7922Y-5.7922
X5.8268Y-2.1654
X5.8268Y-5.7087
T3
X2.1654Y-2.1654
X2.1654Y-5.7087
X5.7087Y-2.1654
X5.7087Y-5.7087
T0
M30
