%TF.GenerationSoftware,KiCad,Pcbnew,(6.0.7)*%
%TF.CreationDate,2022-10-24T21:40:11-07:00*%
%TF.ProjectId,18650_3s2p,31383635-305f-4337-9332-702e6b696361,2.0*%
%TF.SameCoordinates,Original*%
%TF.FileFunction,Copper,L2,Bot*%
%TF.FilePolarity,Positive*%
%FSLAX46Y46*%
G04 Gerber Fmt 4.6, Leading zero omitted, Abs format (unit mm)*
G04 Created by KiCad (PCBNEW (6.0.7)) date 2022-10-24 21:40:11*
%MOMM*%
%LPD*%
G01*
G04 APERTURE LIST*
G04 Aperture macros list*
%AMRoundRect*
0 Rectangle with rounded corners*
0 $1 Rounding radius*
0 $2 $3 $4 $5 $6 $7 $8 $9 X,Y pos of 4 corners*
0 Add a 4 corners polygon primitive as box body*
4,1,4,$2,$3,$4,$5,$6,$7,$8,$9,$2,$3,0*
0 Add four circle primitives for the rounded corners*
1,1,$1+$1,$2,$3*
1,1,$1+$1,$4,$5*
1,1,$1+$1,$6,$7*
1,1,$1+$1,$8,$9*
0 Add four rect primitives between the rounded corners*
20,1,$1+$1,$2,$3,$4,$5,0*
20,1,$1+$1,$4,$5,$6,$7,0*
20,1,$1+$1,$6,$7,$8,$9,0*
20,1,$1+$1,$8,$9,$2,$3,0*%
G04 Aperture macros list end*
%TA.AperFunction,SMDPad,CuDef*%
%ADD10R,6.350000X7.340000*%
%TD*%
%TA.AperFunction,ComponentPad*%
%ADD11C,0.900000*%
%TD*%
%TA.AperFunction,ComponentPad*%
%ADD12C,8.000000*%
%TD*%
%TA.AperFunction,SMDPad,CuDef*%
%ADD13RoundRect,0.250000X1.450000X-0.400000X1.450000X0.400000X-1.450000X0.400000X-1.450000X-0.400000X0*%
%TD*%
%TA.AperFunction,ViaPad*%
%ADD14C,0.800000*%
%TD*%
%TA.AperFunction,Conductor*%
%ADD15C,3.000000*%
%TD*%
%TA.AperFunction,Conductor*%
%ADD16C,0.250000*%
%TD*%
G04 APERTURE END LIST*
D10*
%TO.P,BT6,1,+*%
%TO.N,B1*%
X120700000Y-57190000D03*
%TO.P,BT6,2,-*%
%TO.N,B-*%
X120700000Y-135850000D03*
%TD*%
%TO.P,BT4,1,+*%
%TO.N,B+*%
X78940000Y-57190000D03*
%TO.P,BT4,2,-*%
%TO.N,B2*%
X78940000Y-135850000D03*
%TD*%
%TO.P,BT5,1,+*%
%TO.N,B2*%
X99820000Y-57190000D03*
%TO.P,BT5,2,-*%
%TO.N,B1*%
X99820000Y-135850000D03*
%TD*%
D11*
%TO.P,H4,1,1*%
%TO.N,B-*%
X142000000Y-145000000D03*
X147121320Y-142878680D03*
X145000000Y-148000000D03*
X147121320Y-147121320D03*
X142878680Y-147121320D03*
X142878680Y-142878680D03*
X145000000Y-142000000D03*
D12*
X145000000Y-145000000D03*
D11*
X148000000Y-145000000D03*
%TD*%
%TO.P,H3,1,1*%
%TO.N,Net-(F1-Pad2)*%
X142000000Y-55000000D03*
X147121320Y-52878680D03*
X145000000Y-58000000D03*
X147121320Y-57121320D03*
X142878680Y-57121320D03*
X142878680Y-52878680D03*
X145000000Y-52000000D03*
D12*
X145000000Y-55000000D03*
D11*
X148000000Y-55000000D03*
%TD*%
%TO.P,H2,1,1*%
%TO.N,Net-(F2-Pad2)*%
X52000000Y-55000000D03*
X57121320Y-52878680D03*
X55000000Y-58000000D03*
X57121320Y-57121320D03*
X52878680Y-57121320D03*
X52878680Y-52878680D03*
X55000000Y-52000000D03*
D12*
X55000000Y-55000000D03*
D11*
X58000000Y-55000000D03*
%TD*%
%TO.P,H1,1,1*%
%TO.N,B+*%
X52000000Y-145000000D03*
X57121320Y-142878680D03*
X55000000Y-148000000D03*
X57121320Y-147121320D03*
X52878680Y-147121320D03*
X52878680Y-142878680D03*
X55000000Y-142000000D03*
D12*
X55000000Y-145000000D03*
D11*
X58000000Y-145000000D03*
%TD*%
D13*
%TO.P,F1,2*%
%TO.N,Net-(F1-Pad2)*%
X145000000Y-62775000D03*
%TO.P,F1,1*%
%TO.N,B1*%
X145000000Y-67225000D03*
%TD*%
D14*
%TO.N,B2*%
X85000000Y-55000000D03*
X90000000Y-60000000D03*
X85000000Y-60000000D03*
X90000000Y-65000000D03*
X85000000Y-65000000D03*
X90000000Y-70000000D03*
X85000000Y-70000000D03*
X90000000Y-75000000D03*
X85000000Y-75000000D03*
X95000000Y-80000000D03*
X90000000Y-80100000D03*
X85000000Y-80100000D03*
X80000000Y-80000000D03*
X95000000Y-85000000D03*
X90000000Y-85000000D03*
X85000000Y-85000000D03*
X80000000Y-85000000D03*
X95000000Y-90000000D03*
X90000000Y-90000000D03*
X85000000Y-90000000D03*
X80000000Y-90000000D03*
X95000000Y-95000000D03*
X90000000Y-95000000D03*
X85000000Y-95000000D03*
X80000000Y-95000000D03*
X95000000Y-100000000D03*
X90000000Y-100000000D03*
X85000000Y-100000000D03*
X95000000Y-105000000D03*
X90000000Y-105000000D03*
X85000000Y-105000000D03*
X95000000Y-110000000D03*
X90000000Y-110000000D03*
X85000000Y-110000000D03*
X85000000Y-115000000D03*
X90000000Y-130000000D03*
X90000000Y-125000000D03*
X90000000Y-120000000D03*
X90000000Y-115000000D03*
%TO.N,B1*%
X115000000Y-55000000D03*
X110000000Y-55000000D03*
X110000000Y-130000000D03*
X110000000Y-125000000D03*
X110000000Y-120000000D03*
X115000000Y-60000000D03*
X110000000Y-60000000D03*
X115000000Y-65000000D03*
X110000000Y-65000000D03*
X120000000Y-75000000D03*
X115000000Y-70000000D03*
X110000000Y-70000000D03*
X105000000Y-75000000D03*
X115000000Y-75000000D03*
X110000000Y-75000000D03*
X120000000Y-80000000D03*
X120000000Y-85000000D03*
X120000000Y-90000000D03*
X105000000Y-115000000D03*
X110000000Y-115000000D03*
X115000000Y-100000000D03*
X115000000Y-90000000D03*
X115000000Y-105000000D03*
X115000000Y-80000000D03*
X115000000Y-85000000D03*
X115000000Y-95000000D03*
X115000000Y-110000000D03*
X110000000Y-100000000D03*
X110000000Y-90000000D03*
X110000000Y-105000000D03*
X110000000Y-80000000D03*
X110000000Y-85000000D03*
X110000000Y-95000000D03*
X110000000Y-110000000D03*
X105000000Y-105000000D03*
X105000000Y-95000000D03*
X105000000Y-85000000D03*
X105000000Y-110000000D03*
X105000000Y-100000000D03*
X105000000Y-90000000D03*
X105000000Y-80000000D03*
%TD*%
D15*
%TO.N,B1*%
X128110000Y-64600000D02*
X120700000Y-57190000D01*
X133100000Y-64600000D02*
X128110000Y-64600000D01*
X135800000Y-67300000D02*
X133100000Y-64600000D01*
X144925000Y-67300000D02*
X135800000Y-67300000D01*
D16*
X145000000Y-67225000D02*
X144925000Y-67300000D01*
D15*
%TO.N,Net-(F1-Pad2)*%
X145000000Y-62775000D02*
X145000000Y-55000000D01*
%TD*%
%TA.AperFunction,Conductor*%
%TO.N,B-*%
G36*
X116959441Y-132020002D02*
G01*
X117005934Y-132073658D01*
X117016966Y-132131911D01*
X117017000Y-132131911D01*
X117017000Y-132132093D01*
X117017136Y-132132811D01*
X117017000Y-132135323D01*
X117017000Y-135577885D01*
X117021475Y-135593124D01*
X117022865Y-135594329D01*
X117030548Y-135596000D01*
X124364884Y-135596000D01*
X124380123Y-135591525D01*
X124381328Y-135590135D01*
X124382999Y-135582452D01*
X124382999Y-132135323D01*
X124382863Y-132132810D01*
X124382999Y-132132233D01*
X124382999Y-132131912D01*
X124383075Y-132131912D01*
X124399154Y-132063708D01*
X124450219Y-132014383D01*
X124508679Y-132000000D01*
X148874000Y-132000000D01*
X148942121Y-132020002D01*
X148988614Y-132073658D01*
X149000000Y-132126000D01*
X149000000Y-142456504D01*
X148979998Y-142524625D01*
X148926342Y-142571118D01*
X148856068Y-142581222D01*
X148791488Y-142551728D01*
X148769296Y-142526597D01*
X148633930Y-142324389D01*
X148630537Y-142319787D01*
X148376832Y-142006489D01*
X148363963Y-141999226D01*
X148362596Y-141999305D01*
X148355268Y-142003942D01*
X148006618Y-142352592D01*
X147121320Y-143237889D01*
X146595233Y-143763977D01*
X145372022Y-144987188D01*
X145364408Y-145001132D01*
X145364539Y-145002965D01*
X145368790Y-145009580D01*
X146595232Y-146236022D01*
X147107995Y-146748786D01*
X147121319Y-146762110D01*
X148006617Y-147647407D01*
X148350688Y-147991478D01*
X148364134Y-147998820D01*
X148373970Y-147991900D01*
X148573611Y-147755657D01*
X148577097Y-147751130D01*
X148770787Y-147474512D01*
X148826244Y-147430184D01*
X148896863Y-147422875D01*
X148960224Y-147454906D01*
X148996209Y-147516107D01*
X149000000Y-147546783D01*
X149000000Y-148874000D01*
X148979998Y-148942121D01*
X148926342Y-148988614D01*
X148874000Y-149000000D01*
X147544211Y-149000000D01*
X147476090Y-148979998D01*
X147429597Y-148926342D01*
X147419493Y-148856068D01*
X147448987Y-148791488D01*
X147473389Y-148769788D01*
X147700898Y-148615174D01*
X147705511Y-148611723D01*
X147991829Y-148376539D01*
X148000290Y-148364106D01*
X147994040Y-148353250D01*
X147647408Y-148006618D01*
X146762111Y-147121320D01*
X146236023Y-146595233D01*
X145012812Y-145372022D01*
X144998868Y-145364408D01*
X144997035Y-145364539D01*
X144990420Y-145368790D01*
X143763978Y-146595232D01*
X142878680Y-147480529D01*
X142352593Y-148006617D01*
X142007723Y-148351487D01*
X142000109Y-148365431D01*
X142000190Y-148366564D01*
X142005168Y-148374136D01*
X142025401Y-148393539D01*
X142029678Y-148397283D01*
X142345218Y-148649175D01*
X142349811Y-148652512D01*
X142526185Y-148768809D01*
X142572045Y-148823007D01*
X142581323Y-148893395D01*
X142551074Y-148957625D01*
X142490902Y-148995305D01*
X142456825Y-149000000D01*
X110126000Y-149000000D01*
X110057879Y-148979998D01*
X110011386Y-148926342D01*
X110000000Y-148874000D01*
X110000000Y-145154638D01*
X140489964Y-145154638D01*
X140490163Y-145160343D01*
X140522540Y-145562753D01*
X140523258Y-145568430D01*
X140591970Y-145966229D01*
X140593201Y-145971829D01*
X140697689Y-146361786D01*
X140699413Y-146367219D01*
X140838817Y-146746108D01*
X140841025Y-146751362D01*
X141014192Y-147116050D01*
X141016877Y-147121099D01*
X141222390Y-147468606D01*
X141225500Y-147473358D01*
X141461668Y-147800812D01*
X141465208Y-147805278D01*
X141625528Y-147989704D01*
X141638657Y-147998113D01*
X141648570Y-147992220D01*
X141993382Y-147647408D01*
X142878680Y-146762111D01*
X142892004Y-146748787D01*
X143404767Y-146236023D01*
X144627978Y-145012812D01*
X144635592Y-144998868D01*
X144635461Y-144997035D01*
X144631210Y-144990420D01*
X143404768Y-143763978D01*
X142519471Y-142878680D01*
X141993383Y-142352593D01*
X141650424Y-142009634D01*
X141636480Y-142002020D01*
X141636287Y-142002033D01*
X141627465Y-142008012D01*
X141524743Y-142121298D01*
X141521091Y-142125712D01*
X141278139Y-142448120D01*
X141274906Y-142452843D01*
X141062173Y-142795946D01*
X141059379Y-142800946D01*
X140878624Y-143161905D01*
X140876290Y-143167147D01*
X140728992Y-143543009D01*
X140727149Y-143548422D01*
X140614517Y-143936103D01*
X140613175Y-143941653D01*
X140536142Y-144337952D01*
X140535309Y-144343593D01*
X140494512Y-144745234D01*
X140494192Y-144750958D01*
X140489964Y-145154638D01*
X110000000Y-145154638D01*
X110000000Y-141638713D01*
X142001723Y-141638713D01*
X142001735Y-141639144D01*
X142007102Y-141647892D01*
X142352592Y-141993382D01*
X142809617Y-142450408D01*
X142878679Y-142519470D01*
X143763977Y-143404767D01*
X144987188Y-144627978D01*
X145001132Y-144635592D01*
X145002965Y-144635461D01*
X145009580Y-144631210D01*
X146236022Y-143404768D01*
X147121320Y-142519471D01*
X147190382Y-142450409D01*
X147647407Y-141993383D01*
X147990943Y-141649847D01*
X147998351Y-141636280D01*
X147991609Y-141626624D01*
X147780533Y-141445711D01*
X147776040Y-141442200D01*
X147446969Y-141208341D01*
X147442146Y-141205233D01*
X147093242Y-141002166D01*
X147088177Y-140999519D01*
X146722296Y-140828905D01*
X146717003Y-140826724D01*
X146337166Y-140689973D01*
X146331706Y-140688284D01*
X145941036Y-140586522D01*
X145935446Y-140585334D01*
X145537154Y-140519397D01*
X145531490Y-140518721D01*
X145128851Y-140489153D01*
X145123150Y-140488994D01*
X144719489Y-140496040D01*
X144713801Y-140496398D01*
X144312457Y-140539998D01*
X144306787Y-140540876D01*
X143911058Y-140620669D01*
X143905512Y-140622051D01*
X143518627Y-140737387D01*
X143513223Y-140739269D01*
X143138396Y-140889189D01*
X143133189Y-140891551D01*
X142773475Y-141074834D01*
X142768510Y-141077655D01*
X142426897Y-141292781D01*
X142422202Y-141296044D01*
X142101494Y-141541243D01*
X142097114Y-141544917D01*
X142009910Y-141625106D01*
X142001723Y-141638713D01*
X110000000Y-141638713D01*
X110000000Y-139815123D01*
X110003580Y-139785303D01*
X110039558Y-139637606D01*
X110057325Y-139564669D01*
X117017001Y-139564669D01*
X117017371Y-139571490D01*
X117022895Y-139622352D01*
X117026521Y-139637604D01*
X117071676Y-139758054D01*
X117080214Y-139773649D01*
X117156715Y-139875724D01*
X117169276Y-139888285D01*
X117271351Y-139964786D01*
X117286946Y-139973324D01*
X117407394Y-140018478D01*
X117422649Y-140022105D01*
X117473514Y-140027631D01*
X117480328Y-140028000D01*
X120427885Y-140028000D01*
X120443124Y-140023525D01*
X120444329Y-140022135D01*
X120446000Y-140014452D01*
X120446000Y-140009884D01*
X120954000Y-140009884D01*
X120958475Y-140025123D01*
X120959865Y-140026328D01*
X120967548Y-140027999D01*
X123919669Y-140027999D01*
X123926490Y-140027629D01*
X123977352Y-140022105D01*
X123992604Y-140018479D01*
X124113054Y-139973324D01*
X124128649Y-139964786D01*
X124230724Y-139888285D01*
X124243285Y-139875724D01*
X124319786Y-139773649D01*
X124328324Y-139758054D01*
X124373478Y-139637606D01*
X124377105Y-139622351D01*
X124382631Y-139571486D01*
X124383000Y-139564672D01*
X124383000Y-136122115D01*
X124378525Y-136106876D01*
X124377135Y-136105671D01*
X124369452Y-136104000D01*
X120972115Y-136104000D01*
X120956876Y-136108475D01*
X120955671Y-136109865D01*
X120954000Y-136117548D01*
X120954000Y-140009884D01*
X120446000Y-140009884D01*
X120446000Y-136122115D01*
X120441525Y-136106876D01*
X120440135Y-136105671D01*
X120432452Y-136104000D01*
X117035116Y-136104000D01*
X117019877Y-136108475D01*
X117018672Y-136109865D01*
X117017001Y-136117548D01*
X117017001Y-139564669D01*
X110057325Y-139564669D01*
X111025480Y-135590135D01*
X111417148Y-133982235D01*
X111452704Y-133920783D01*
X111515838Y-133888310D01*
X111586507Y-133895125D01*
X111598223Y-133900541D01*
X111821468Y-134017996D01*
X111825984Y-134019555D01*
X111825990Y-134019558D01*
X111952565Y-134063264D01*
X112066451Y-134102590D01*
X112184193Y-134124093D01*
X112317441Y-134148429D01*
X112317445Y-134148429D01*
X112321412Y-134149154D01*
X112404342Y-134153500D01*
X112565903Y-134153500D01*
X112568282Y-134153319D01*
X112568283Y-134153319D01*
X112753664Y-134139218D01*
X112753669Y-134139217D01*
X112758431Y-134138855D01*
X112763084Y-134137776D01*
X112763087Y-134137776D01*
X113006251Y-134081413D01*
X113006250Y-134081413D01*
X113010915Y-134080332D01*
X113251642Y-133984292D01*
X113475072Y-133852944D01*
X113478783Y-133849923D01*
X113478787Y-133849920D01*
X113672351Y-133692334D01*
X113676063Y-133689312D01*
X113679272Y-133685767D01*
X113679277Y-133685762D01*
X113846774Y-133500713D01*
X113849990Y-133497160D01*
X113992851Y-133280910D01*
X114066888Y-133120313D01*
X114099352Y-133049892D01*
X114099353Y-133049889D01*
X114101358Y-133045540D01*
X114173015Y-132796465D01*
X114206172Y-132539417D01*
X114200065Y-132280311D01*
X114176614Y-132147988D01*
X114184422Y-132077422D01*
X114229141Y-132022279D01*
X114300681Y-132000000D01*
X116891320Y-132000000D01*
X116959441Y-132020002D01*
G37*
%TD.AperFunction*%
%TD*%
%TA.AperFunction,Conductor*%
%TO.N,B1*%
G36*
X126942121Y-51020002D02*
G01*
X126988614Y-51073658D01*
X127000000Y-51126000D01*
X127000000Y-61085809D01*
X126996844Y-61113834D01*
X124707351Y-71149445D01*
X113149629Y-121810793D01*
X113114976Y-121872759D01*
X113052324Y-121906153D01*
X113007077Y-121907217D01*
X112902881Y-121890714D01*
X112857854Y-121888669D01*
X112811503Y-121886564D01*
X112811484Y-121886564D01*
X112810084Y-121886500D01*
X112624736Y-121886500D01*
X112403944Y-121901165D01*
X112113090Y-121959812D01*
X111832547Y-122056410D01*
X111828804Y-122058284D01*
X111828800Y-122058286D01*
X111654179Y-122145730D01*
X111567244Y-122189264D01*
X111321842Y-122356039D01*
X111100654Y-122553804D01*
X110907564Y-122779086D01*
X110905290Y-122782588D01*
X110905289Y-122782589D01*
X110800698Y-122943646D01*
X110745965Y-123027927D01*
X110618696Y-123295954D01*
X110617417Y-123299937D01*
X110617416Y-123299940D01*
X110557044Y-123487979D01*
X110527994Y-123578458D01*
X110527253Y-123582577D01*
X110492174Y-123777541D01*
X110475452Y-123870477D01*
X110475263Y-123874644D01*
X110475262Y-123874651D01*
X110466060Y-124077290D01*
X110461992Y-124166880D01*
X110462355Y-124171028D01*
X110462355Y-124171032D01*
X110487487Y-124458293D01*
X110487488Y-124458301D01*
X110487852Y-124462459D01*
X110552577Y-124752021D01*
X110554019Y-124755941D01*
X110554021Y-124755947D01*
X110653582Y-125026548D01*
X110655029Y-125030480D01*
X110656980Y-125034180D01*
X110656982Y-125034185D01*
X110748784Y-125208302D01*
X110793410Y-125292942D01*
X110965288Y-125534797D01*
X111167642Y-125751796D01*
X111396918Y-125940125D01*
X111649088Y-126096477D01*
X111919722Y-126218105D01*
X111923734Y-126219301D01*
X111923742Y-126219304D01*
X112016771Y-126247038D01*
X112076338Y-126285667D01*
X112105564Y-126350369D01*
X112103618Y-126395807D01*
X109000000Y-140000000D01*
X109000000Y-148874000D01*
X108979998Y-148942121D01*
X108926342Y-148988614D01*
X108874000Y-149000000D01*
X90126000Y-149000000D01*
X90057879Y-148979998D01*
X90011386Y-148926342D01*
X90000000Y-148874000D01*
X90000000Y-140013982D01*
X90003066Y-139986356D01*
X90096295Y-139571486D01*
X90097827Y-139564669D01*
X96137001Y-139564669D01*
X96137371Y-139571490D01*
X96142895Y-139622352D01*
X96146521Y-139637604D01*
X96191676Y-139758054D01*
X96200214Y-139773649D01*
X96276715Y-139875724D01*
X96289276Y-139888285D01*
X96391351Y-139964786D01*
X96406946Y-139973324D01*
X96527394Y-140018478D01*
X96542649Y-140022105D01*
X96593514Y-140027631D01*
X96600328Y-140028000D01*
X99547885Y-140028000D01*
X99563124Y-140023525D01*
X99564329Y-140022135D01*
X99566000Y-140014452D01*
X99566000Y-140009884D01*
X100074000Y-140009884D01*
X100078475Y-140025123D01*
X100079865Y-140026328D01*
X100087548Y-140027999D01*
X103039669Y-140027999D01*
X103046490Y-140027629D01*
X103097352Y-140022105D01*
X103112604Y-140018479D01*
X103233054Y-139973324D01*
X103248649Y-139964786D01*
X103350724Y-139888285D01*
X103363285Y-139875724D01*
X103439786Y-139773649D01*
X103448324Y-139758054D01*
X103493478Y-139637606D01*
X103497105Y-139622351D01*
X103502631Y-139571486D01*
X103503000Y-139564672D01*
X103503000Y-136122115D01*
X103498525Y-136106876D01*
X103497135Y-136105671D01*
X103489452Y-136104000D01*
X100092115Y-136104000D01*
X100076876Y-136108475D01*
X100075671Y-136109865D01*
X100074000Y-136117548D01*
X100074000Y-140009884D01*
X99566000Y-140009884D01*
X99566000Y-136122115D01*
X99561525Y-136106876D01*
X99560135Y-136105671D01*
X99552452Y-136104000D01*
X96155116Y-136104000D01*
X96139877Y-136108475D01*
X96138672Y-136109865D01*
X96137001Y-136117548D01*
X96137001Y-139564669D01*
X90097827Y-139564669D01*
X90993734Y-135577885D01*
X96137000Y-135577885D01*
X96141475Y-135593124D01*
X96142865Y-135594329D01*
X96150548Y-135596000D01*
X99547885Y-135596000D01*
X99563124Y-135591525D01*
X99564329Y-135590135D01*
X99566000Y-135582452D01*
X99566000Y-135577885D01*
X100074000Y-135577885D01*
X100078475Y-135593124D01*
X100079865Y-135594329D01*
X100087548Y-135596000D01*
X103484884Y-135596000D01*
X103500123Y-135591525D01*
X103501328Y-135590135D01*
X103502999Y-135582452D01*
X103502999Y-132135331D01*
X103502629Y-132128510D01*
X103497105Y-132077648D01*
X103493479Y-132062396D01*
X103448324Y-131941946D01*
X103439786Y-131926351D01*
X103363285Y-131824276D01*
X103350724Y-131811715D01*
X103248649Y-131735214D01*
X103233054Y-131726676D01*
X103112606Y-131681522D01*
X103097351Y-131677895D01*
X103046486Y-131672369D01*
X103039672Y-131672000D01*
X100092115Y-131672000D01*
X100076876Y-131676475D01*
X100075671Y-131677865D01*
X100074000Y-131685548D01*
X100074000Y-135577885D01*
X99566000Y-135577885D01*
X99566000Y-131690116D01*
X99561525Y-131674877D01*
X99560135Y-131673672D01*
X99552452Y-131672001D01*
X96600331Y-131672001D01*
X96593510Y-131672371D01*
X96542648Y-131677895D01*
X96527396Y-131681521D01*
X96406946Y-131726676D01*
X96391351Y-131735214D01*
X96289276Y-131811715D01*
X96276715Y-131824276D01*
X96200214Y-131926351D01*
X96191676Y-131941946D01*
X96146522Y-132062394D01*
X96142895Y-132077649D01*
X96137369Y-132128514D01*
X96137000Y-132135328D01*
X96137000Y-135577885D01*
X90993734Y-135577885D01*
X91293257Y-134245006D01*
X91327708Y-134182929D01*
X91390251Y-134149331D01*
X91433324Y-134148756D01*
X91433417Y-134147958D01*
X91437439Y-134148428D01*
X91441412Y-134149154D01*
X91524342Y-134153500D01*
X91685903Y-134153500D01*
X91688282Y-134153319D01*
X91688283Y-134153319D01*
X91873664Y-134139218D01*
X91873669Y-134139217D01*
X91878431Y-134138855D01*
X91883084Y-134137776D01*
X91883087Y-134137776D01*
X92126251Y-134081413D01*
X92126250Y-134081413D01*
X92130915Y-134080332D01*
X92371642Y-133984292D01*
X92595072Y-133852944D01*
X92598783Y-133849923D01*
X92598787Y-133849920D01*
X92792351Y-133692334D01*
X92796063Y-133689312D01*
X92799272Y-133685767D01*
X92799277Y-133685762D01*
X92966774Y-133500713D01*
X92969990Y-133497160D01*
X93112851Y-133280910D01*
X93186888Y-133120313D01*
X93219352Y-133049892D01*
X93219353Y-133049889D01*
X93221358Y-133045540D01*
X93293015Y-132796465D01*
X93326172Y-132539417D01*
X93320065Y-132280311D01*
X93294371Y-132135331D01*
X93275671Y-132029814D01*
X93275670Y-132029810D01*
X93274837Y-132025110D01*
X93191527Y-131779687D01*
X93189326Y-131775451D01*
X93189324Y-131775445D01*
X93108104Y-131619090D01*
X93072053Y-131549689D01*
X92919163Y-131340410D01*
X92915789Y-131337018D01*
X92739752Y-131160055D01*
X92739747Y-131160051D01*
X92736378Y-131156664D01*
X92527901Y-131002681D01*
X92523661Y-131000450D01*
X92302768Y-130884232D01*
X92302761Y-130884229D01*
X92298532Y-130882004D01*
X92294016Y-130880445D01*
X92294010Y-130880442D01*
X92173472Y-130838820D01*
X92115611Y-130797680D01*
X92089177Y-130731787D01*
X92091664Y-130692095D01*
X93156826Y-125952125D01*
X93191277Y-125890048D01*
X93198179Y-125883984D01*
X93198158Y-125883961D01*
X93416231Y-125688981D01*
X93419346Y-125686196D01*
X93612436Y-125460914D01*
X93670466Y-125371556D01*
X93771763Y-125215572D01*
X93771765Y-125215569D01*
X93774035Y-125212073D01*
X93784551Y-125189928D01*
X93822629Y-125109734D01*
X93901304Y-124944046D01*
X93902584Y-124940060D01*
X93990726Y-124665530D01*
X93990727Y-124665524D01*
X93992006Y-124661542D01*
X94027719Y-124463056D01*
X94043809Y-124373632D01*
X94043810Y-124373627D01*
X94044548Y-124369523D01*
X94046746Y-124321134D01*
X94053751Y-124166880D01*
X105381992Y-124166880D01*
X105382355Y-124171028D01*
X105382355Y-124171032D01*
X105407487Y-124458293D01*
X105407488Y-124458301D01*
X105407852Y-124462459D01*
X105472577Y-124752021D01*
X105474019Y-124755941D01*
X105474021Y-124755947D01*
X105573582Y-125026548D01*
X105575029Y-125030480D01*
X105576980Y-125034180D01*
X105576982Y-125034185D01*
X105668784Y-125208302D01*
X105713410Y-125292942D01*
X105885288Y-125534797D01*
X106087642Y-125751796D01*
X106316918Y-125940125D01*
X106569088Y-126096477D01*
X106839722Y-126218105D01*
X106936776Y-126247038D01*
X107120065Y-126301679D01*
X107120067Y-126301679D01*
X107124064Y-126302871D01*
X107128184Y-126303524D01*
X107128186Y-126303524D01*
X107247106Y-126322359D01*
X107417119Y-126349286D01*
X107462146Y-126351331D01*
X107508497Y-126353436D01*
X107508516Y-126353436D01*
X107509916Y-126353500D01*
X107695264Y-126353500D01*
X107916056Y-126338835D01*
X108206910Y-126280188D01*
X108487453Y-126183590D01*
X108491196Y-126181716D01*
X108491200Y-126181714D01*
X108749012Y-126052611D01*
X108749014Y-126052610D01*
X108752756Y-126050736D01*
X108962050Y-125908500D01*
X108994699Y-125886312D01*
X108994702Y-125886310D01*
X108998158Y-125883961D01*
X109219346Y-125686196D01*
X109412436Y-125460914D01*
X109470466Y-125371556D01*
X109571763Y-125215572D01*
X109571765Y-125215569D01*
X109574035Y-125212073D01*
X109584551Y-125189928D01*
X109622629Y-125109734D01*
X109701304Y-124944046D01*
X109702584Y-124940060D01*
X109790726Y-124665530D01*
X109790727Y-124665524D01*
X109792006Y-124661542D01*
X109827719Y-124463056D01*
X109843809Y-124373632D01*
X109843810Y-124373627D01*
X109844548Y-124369523D01*
X109846746Y-124321134D01*
X109857819Y-124077290D01*
X109857819Y-124077285D01*
X109858008Y-124073120D01*
X109857645Y-124068968D01*
X109832513Y-123781707D01*
X109832512Y-123781699D01*
X109832148Y-123777541D01*
X109767423Y-123487979D01*
X109696773Y-123295954D01*
X109666418Y-123213452D01*
X109666416Y-123213448D01*
X109664971Y-123209520D01*
X109622244Y-123128480D01*
X109528543Y-122950762D01*
X109528542Y-122950761D01*
X109526590Y-122947058D01*
X109354712Y-122705203D01*
X109152358Y-122488204D01*
X108923082Y-122299875D01*
X108670912Y-122143523D01*
X108400278Y-122021895D01*
X108227610Y-121970420D01*
X108119935Y-121938321D01*
X108119933Y-121938321D01*
X108115936Y-121937129D01*
X108111816Y-121936476D01*
X108111814Y-121936476D01*
X107992894Y-121917641D01*
X107822881Y-121890714D01*
X107777854Y-121888669D01*
X107731503Y-121886564D01*
X107731484Y-121886564D01*
X107730084Y-121886500D01*
X107544736Y-121886500D01*
X107323944Y-121901165D01*
X107033090Y-121959812D01*
X106752547Y-122056410D01*
X106748804Y-122058284D01*
X106748800Y-122058286D01*
X106574179Y-122145730D01*
X106487244Y-122189264D01*
X106241842Y-122356039D01*
X106020654Y-122553804D01*
X105827564Y-122779086D01*
X105825290Y-122782588D01*
X105825289Y-122782589D01*
X105720698Y-122943646D01*
X105665965Y-123027927D01*
X105538696Y-123295954D01*
X105537417Y-123299937D01*
X105537416Y-123299940D01*
X105477044Y-123487979D01*
X105447994Y-123578458D01*
X105447253Y-123582577D01*
X105412174Y-123777541D01*
X105395452Y-123870477D01*
X105395263Y-123874644D01*
X105395262Y-123874651D01*
X105386060Y-124077290D01*
X105381992Y-124166880D01*
X94053751Y-124166880D01*
X94057819Y-124077290D01*
X94057819Y-124077285D01*
X94058008Y-124073120D01*
X94057645Y-124068968D01*
X94032513Y-123781707D01*
X94032512Y-123781699D01*
X94032148Y-123777541D01*
X93967423Y-123487979D01*
X93896773Y-123295954D01*
X93866418Y-123213452D01*
X93866416Y-123213448D01*
X93864971Y-123209520D01*
X93822243Y-123128479D01*
X93808166Y-123058893D01*
X93810765Y-123042096D01*
X105696498Y-70150586D01*
X105730948Y-70088510D01*
X105793491Y-70054912D01*
X105864271Y-70060462D01*
X105922137Y-70105223D01*
X106030292Y-70257411D01*
X106085288Y-70334797D01*
X106287642Y-70551796D01*
X106516918Y-70740125D01*
X106769088Y-70896477D01*
X107039722Y-71018105D01*
X107212390Y-71069580D01*
X107320065Y-71101679D01*
X107320067Y-71101679D01*
X107324064Y-71102871D01*
X107328184Y-71103524D01*
X107328186Y-71103524D01*
X107447106Y-71122359D01*
X107617119Y-71149286D01*
X107662146Y-71151331D01*
X107708497Y-71153436D01*
X107708516Y-71153436D01*
X107709916Y-71153500D01*
X107895264Y-71153500D01*
X108116056Y-71138835D01*
X108406910Y-71080188D01*
X108687453Y-70983590D01*
X108691196Y-70981716D01*
X108691200Y-70981714D01*
X108949012Y-70852611D01*
X108949014Y-70852610D01*
X108952756Y-70850736D01*
X109198158Y-70683961D01*
X109419346Y-70486196D01*
X109612436Y-70260914D01*
X109713543Y-70105223D01*
X109771763Y-70015572D01*
X109771765Y-70015569D01*
X109774035Y-70012073D01*
X109901304Y-69744046D01*
X109961696Y-69555947D01*
X109990726Y-69465530D01*
X109990727Y-69465524D01*
X109992006Y-69461542D01*
X110035555Y-69219504D01*
X110067304Y-69156001D01*
X110128345Y-69119745D01*
X110199298Y-69122245D01*
X110257635Y-69162708D01*
X110285084Y-69230834D01*
X110287485Y-69258277D01*
X110287488Y-69258294D01*
X110287852Y-69262459D01*
X110352577Y-69552021D01*
X110354019Y-69555941D01*
X110354021Y-69555947D01*
X110424619Y-69747827D01*
X110455029Y-69830480D01*
X110593410Y-70092942D01*
X110765288Y-70334797D01*
X110967642Y-70551796D01*
X111196918Y-70740125D01*
X111449088Y-70896477D01*
X111719722Y-71018105D01*
X111892390Y-71069580D01*
X112000065Y-71101679D01*
X112000067Y-71101679D01*
X112004064Y-71102871D01*
X112008184Y-71103524D01*
X112008186Y-71103524D01*
X112127106Y-71122359D01*
X112297119Y-71149286D01*
X112342146Y-71151331D01*
X112388497Y-71153436D01*
X112388516Y-71153436D01*
X112389916Y-71153500D01*
X112575264Y-71153500D01*
X112796056Y-71138835D01*
X113086910Y-71080188D01*
X113367453Y-70983590D01*
X113371196Y-70981716D01*
X113371200Y-70981714D01*
X113629012Y-70852611D01*
X113629014Y-70852610D01*
X113632756Y-70850736D01*
X113878158Y-70683961D01*
X114099346Y-70486196D01*
X114292436Y-70260914D01*
X114393543Y-70105223D01*
X114451763Y-70015572D01*
X114451765Y-70015569D01*
X114454035Y-70012073D01*
X114581304Y-69744046D01*
X114641696Y-69555947D01*
X114670726Y-69465530D01*
X114670727Y-69465524D01*
X114672006Y-69461542D01*
X114707091Y-69266548D01*
X114723809Y-69173632D01*
X114723810Y-69173627D01*
X114724548Y-69169523D01*
X114724858Y-69162708D01*
X114737819Y-68877290D01*
X114737819Y-68877285D01*
X114738008Y-68873120D01*
X114724634Y-68720255D01*
X114712513Y-68581707D01*
X114712512Y-68581699D01*
X114712148Y-68577541D01*
X114647423Y-68287979D01*
X114576773Y-68095954D01*
X114546418Y-68013452D01*
X114546416Y-68013448D01*
X114544971Y-68009520D01*
X114406590Y-67747058D01*
X114234712Y-67505203D01*
X114032358Y-67288204D01*
X113803082Y-67099875D01*
X113550912Y-66943523D01*
X113280278Y-66821895D01*
X113107610Y-66770420D01*
X112999935Y-66738321D01*
X112999933Y-66738321D01*
X112995936Y-66737129D01*
X112991816Y-66736476D01*
X112991814Y-66736476D01*
X112872894Y-66717641D01*
X112702881Y-66690714D01*
X112657854Y-66688669D01*
X112611503Y-66686564D01*
X112611484Y-66686564D01*
X112610084Y-66686500D01*
X112424736Y-66686500D01*
X112203944Y-66701165D01*
X111913090Y-66759812D01*
X111632547Y-66856410D01*
X111628804Y-66858284D01*
X111628800Y-66858286D01*
X111454179Y-66945730D01*
X111367244Y-66989264D01*
X111121842Y-67156039D01*
X110900654Y-67353804D01*
X110707564Y-67579086D01*
X110705290Y-67582588D01*
X110705289Y-67582589D01*
X110600698Y-67743646D01*
X110545965Y-67827927D01*
X110418696Y-68095954D01*
X110417417Y-68099937D01*
X110417416Y-68099940D01*
X110357044Y-68287979D01*
X110327994Y-68378458D01*
X110284445Y-68620496D01*
X110252696Y-68683999D01*
X110191655Y-68720255D01*
X110120702Y-68717755D01*
X110062365Y-68677292D01*
X110034916Y-68609166D01*
X110032515Y-68581723D01*
X110032512Y-68581706D01*
X110032148Y-68577541D01*
X109967423Y-68287979D01*
X109896773Y-68095954D01*
X109866418Y-68013452D01*
X109866416Y-68013448D01*
X109864971Y-68009520D01*
X109726590Y-67747058D01*
X109554712Y-67505203D01*
X109352358Y-67288204D01*
X109123082Y-67099875D01*
X108870912Y-66943523D01*
X108600278Y-66821895D01*
X108427610Y-66770420D01*
X108319935Y-66738321D01*
X108319933Y-66738321D01*
X108315936Y-66737129D01*
X108311816Y-66736476D01*
X108311814Y-66736476D01*
X108192894Y-66717641D01*
X108022881Y-66690714D01*
X107977854Y-66688669D01*
X107931503Y-66686564D01*
X107931484Y-66686564D01*
X107930084Y-66686500D01*
X107744736Y-66686500D01*
X107523944Y-66701165D01*
X107233090Y-66759812D01*
X106952547Y-66856410D01*
X106948804Y-66858284D01*
X106948800Y-66858286D01*
X106774179Y-66945730D01*
X106687244Y-66989264D01*
X106620022Y-67034948D01*
X106552441Y-67056693D01*
X106483828Y-67038449D01*
X106435972Y-66986006D01*
X106424065Y-66916015D01*
X106426268Y-66903109D01*
X107865037Y-60500583D01*
X110993828Y-60500583D01*
X110999935Y-60759689D01*
X111000769Y-60764394D01*
X111025630Y-60904672D01*
X111045163Y-61014890D01*
X111128473Y-61260313D01*
X111130674Y-61264549D01*
X111130676Y-61264555D01*
X111181365Y-61362135D01*
X111247947Y-61490311D01*
X111400837Y-61699590D01*
X111404209Y-61702980D01*
X111404211Y-61702982D01*
X111580248Y-61879945D01*
X111580253Y-61879949D01*
X111583622Y-61883336D01*
X111792099Y-62037319D01*
X111796337Y-62039549D01*
X111796339Y-62039550D01*
X112017232Y-62155768D01*
X112017239Y-62155771D01*
X112021468Y-62157996D01*
X112025984Y-62159555D01*
X112025990Y-62159558D01*
X112152565Y-62203264D01*
X112266451Y-62242590D01*
X112384193Y-62264093D01*
X112517441Y-62288429D01*
X112517445Y-62288429D01*
X112521412Y-62289154D01*
X112604342Y-62293500D01*
X112765903Y-62293500D01*
X112768282Y-62293319D01*
X112768283Y-62293319D01*
X112953664Y-62279218D01*
X112953669Y-62279217D01*
X112958431Y-62278855D01*
X112963084Y-62277776D01*
X112963087Y-62277776D01*
X113206251Y-62221413D01*
X113206250Y-62221413D01*
X113210915Y-62220332D01*
X113451642Y-62124292D01*
X113675072Y-61992944D01*
X113678783Y-61989923D01*
X113678787Y-61989920D01*
X113872351Y-61832334D01*
X113876063Y-61829312D01*
X113879272Y-61825767D01*
X113879277Y-61825762D01*
X114046774Y-61640713D01*
X114049990Y-61637160D01*
X114192851Y-61420910D01*
X114217013Y-61368500D01*
X114299352Y-61189892D01*
X114299353Y-61189889D01*
X114301358Y-61185540D01*
X114321987Y-61113834D01*
X114371694Y-60941058D01*
X114371695Y-60941053D01*
X114373015Y-60936465D01*
X114376623Y-60908500D01*
X114377117Y-60904669D01*
X117017001Y-60904669D01*
X117017371Y-60911490D01*
X117022895Y-60962352D01*
X117026521Y-60977604D01*
X117071676Y-61098054D01*
X117080214Y-61113649D01*
X117156715Y-61215724D01*
X117169276Y-61228285D01*
X117271351Y-61304786D01*
X117286946Y-61313324D01*
X117407394Y-61358478D01*
X117422649Y-61362105D01*
X117473514Y-61367631D01*
X117480328Y-61368000D01*
X120427885Y-61368000D01*
X120443124Y-61363525D01*
X120444329Y-61362135D01*
X120446000Y-61354452D01*
X120446000Y-61349884D01*
X120954000Y-61349884D01*
X120958475Y-61365123D01*
X120959865Y-61366328D01*
X120967548Y-61367999D01*
X123919669Y-61367999D01*
X123926490Y-61367629D01*
X123977352Y-61362105D01*
X123992604Y-61358479D01*
X124113054Y-61313324D01*
X124128649Y-61304786D01*
X124230724Y-61228285D01*
X124243285Y-61215724D01*
X124319786Y-61113649D01*
X124328324Y-61098054D01*
X124373478Y-60977606D01*
X124377105Y-60962351D01*
X124382631Y-60911486D01*
X124383000Y-60904672D01*
X124383000Y-57462115D01*
X124378525Y-57446876D01*
X124377135Y-57445671D01*
X124369452Y-57444000D01*
X120972115Y-57444000D01*
X120956876Y-57448475D01*
X120955671Y-57449865D01*
X120954000Y-57457548D01*
X120954000Y-61349884D01*
X120446000Y-61349884D01*
X120446000Y-57462115D01*
X120441525Y-57446876D01*
X120440135Y-57445671D01*
X120432452Y-57444000D01*
X117035116Y-57444000D01*
X117019877Y-57448475D01*
X117018672Y-57449865D01*
X117017001Y-57457548D01*
X117017001Y-60904669D01*
X114377117Y-60904669D01*
X114405561Y-60684154D01*
X114406172Y-60679417D01*
X114400065Y-60420311D01*
X114367922Y-60238942D01*
X114355671Y-60169814D01*
X114355670Y-60169810D01*
X114354837Y-60165110D01*
X114271527Y-59919687D01*
X114269326Y-59915451D01*
X114269324Y-59915445D01*
X114188104Y-59759090D01*
X114152053Y-59689689D01*
X113999163Y-59480410D01*
X113873466Y-59354052D01*
X113819752Y-59300055D01*
X113819747Y-59300051D01*
X113816378Y-59296664D01*
X113607901Y-59142681D01*
X113586091Y-59131206D01*
X113382768Y-59024232D01*
X113382761Y-59024229D01*
X113378532Y-59022004D01*
X113374016Y-59020445D01*
X113374010Y-59020442D01*
X113203148Y-58961443D01*
X113133549Y-58937410D01*
X113015807Y-58915907D01*
X112882559Y-58891571D01*
X112882555Y-58891571D01*
X112878588Y-58890846D01*
X112795658Y-58886500D01*
X112634097Y-58886500D01*
X112631718Y-58886681D01*
X112631717Y-58886681D01*
X112446336Y-58900782D01*
X112446331Y-58900783D01*
X112441569Y-58901145D01*
X112436916Y-58902224D01*
X112436913Y-58902224D01*
X112288822Y-58936550D01*
X112189085Y-58959668D01*
X111948358Y-59055708D01*
X111724928Y-59187056D01*
X111721217Y-59190077D01*
X111721213Y-59190080D01*
X111541110Y-59336707D01*
X111523937Y-59350688D01*
X111520728Y-59354233D01*
X111520723Y-59354238D01*
X111403021Y-59484274D01*
X111350010Y-59542840D01*
X111347369Y-59546838D01*
X111347368Y-59546839D01*
X111268759Y-59665830D01*
X111207149Y-59759090D01*
X111205148Y-59763430D01*
X111205146Y-59763434D01*
X111131025Y-59924215D01*
X111098642Y-59994460D01*
X111026985Y-60243535D01*
X110993828Y-60500583D01*
X107865037Y-60500583D01*
X108547839Y-57462115D01*
X108670138Y-56917885D01*
X117017000Y-56917885D01*
X117021475Y-56933124D01*
X117022865Y-56934329D01*
X117030548Y-56936000D01*
X120427885Y-56936000D01*
X120443124Y-56931525D01*
X120444329Y-56930135D01*
X120446000Y-56922452D01*
X120446000Y-56917885D01*
X120954000Y-56917885D01*
X120958475Y-56933124D01*
X120959865Y-56934329D01*
X120967548Y-56936000D01*
X124364884Y-56936000D01*
X124380123Y-56931525D01*
X124381328Y-56930135D01*
X124382999Y-56922452D01*
X124382999Y-53475331D01*
X124382629Y-53468510D01*
X124377105Y-53417648D01*
X124373479Y-53402396D01*
X124328324Y-53281946D01*
X124319786Y-53266351D01*
X124243285Y-53164276D01*
X124230724Y-53151715D01*
X124128649Y-53075214D01*
X124113054Y-53066676D01*
X123992606Y-53021522D01*
X123977351Y-53017895D01*
X123926486Y-53012369D01*
X123919672Y-53012000D01*
X120972115Y-53012000D01*
X120956876Y-53016475D01*
X120955671Y-53017865D01*
X120954000Y-53025548D01*
X120954000Y-56917885D01*
X120446000Y-56917885D01*
X120446000Y-53030116D01*
X120441525Y-53014877D01*
X120440135Y-53013672D01*
X120432452Y-53012001D01*
X117480331Y-53012001D01*
X117473510Y-53012371D01*
X117422648Y-53017895D01*
X117407396Y-53021521D01*
X117286946Y-53066676D01*
X117271351Y-53075214D01*
X117169276Y-53151715D01*
X117156715Y-53164276D01*
X117080214Y-53266351D01*
X117071676Y-53281946D01*
X117026522Y-53402394D01*
X117022895Y-53417649D01*
X117017369Y-53468514D01*
X117017000Y-53475328D01*
X117017000Y-56917885D01*
X108670138Y-56917885D01*
X109977894Y-51098373D01*
X110012344Y-51036297D01*
X110074887Y-51002699D01*
X110100827Y-51000000D01*
X126874000Y-51000000D01*
X126942121Y-51020002D01*
G37*
%TD.AperFunction*%
%TD*%
%TA.AperFunction,Conductor*%
%TO.N,B2*%
G36*
X109010491Y-51020002D02*
G01*
X109056984Y-51073658D01*
X109067088Y-51143932D01*
X109065275Y-51153757D01*
X104565344Y-71078826D01*
X93060494Y-122020701D01*
X93051694Y-122059664D01*
X93017176Y-122121705D01*
X92954597Y-122155236D01*
X92883823Y-122149610D01*
X92872217Y-122144332D01*
X92870912Y-122143523D01*
X92867103Y-122141811D01*
X92867097Y-122141808D01*
X92748438Y-122088481D01*
X92600278Y-122021895D01*
X92427610Y-121970420D01*
X92319935Y-121938321D01*
X92319933Y-121938321D01*
X92315936Y-121937129D01*
X92311816Y-121936476D01*
X92311814Y-121936476D01*
X92192894Y-121917641D01*
X92022881Y-121890714D01*
X91977854Y-121888669D01*
X91931503Y-121886564D01*
X91931484Y-121886564D01*
X91930084Y-121886500D01*
X91744736Y-121886500D01*
X91523944Y-121901165D01*
X91233090Y-121959812D01*
X90952547Y-122056410D01*
X90948804Y-122058284D01*
X90948800Y-122058286D01*
X90774179Y-122145730D01*
X90687244Y-122189264D01*
X90441842Y-122356039D01*
X90220654Y-122553804D01*
X90027564Y-122779086D01*
X90025290Y-122782588D01*
X90025289Y-122782589D01*
X89920698Y-122943646D01*
X89865965Y-123027927D01*
X89738696Y-123295954D01*
X89737417Y-123299937D01*
X89737416Y-123299940D01*
X89677044Y-123487979D01*
X89647994Y-123578458D01*
X89647253Y-123582577D01*
X89612174Y-123777541D01*
X89595452Y-123870477D01*
X89595263Y-123874644D01*
X89595262Y-123874651D01*
X89583612Y-124131206D01*
X89581992Y-124166880D01*
X89582355Y-124171028D01*
X89582355Y-124171032D01*
X89607487Y-124458293D01*
X89607488Y-124458301D01*
X89607852Y-124462459D01*
X89672577Y-124752021D01*
X89674019Y-124755941D01*
X89674021Y-124755947D01*
X89773582Y-125026548D01*
X89775029Y-125030480D01*
X89776980Y-125034180D01*
X89776982Y-125034185D01*
X89868784Y-125208302D01*
X89913410Y-125292942D01*
X90085288Y-125534797D01*
X90287642Y-125751796D01*
X90516918Y-125940125D01*
X90769088Y-126096477D01*
X91039722Y-126218105D01*
X91212390Y-126269580D01*
X91320065Y-126301679D01*
X91320067Y-126301679D01*
X91324064Y-126302871D01*
X91328184Y-126303524D01*
X91328186Y-126303524D01*
X91447106Y-126322359D01*
X91617119Y-126349286D01*
X91662146Y-126351331D01*
X91708497Y-126353436D01*
X91708516Y-126353436D01*
X91709916Y-126353500D01*
X91895264Y-126353500D01*
X91897354Y-126353361D01*
X91897360Y-126353361D01*
X91916363Y-126352099D01*
X91985660Y-126367543D01*
X92035606Y-126418001D01*
X92050344Y-126487451D01*
X92047618Y-126505571D01*
X91526588Y-128812620D01*
X91084379Y-130770658D01*
X91049861Y-130832699D01*
X91008164Y-130859931D01*
X90985949Y-130868794D01*
X90868358Y-130915708D01*
X90644928Y-131047056D01*
X90641217Y-131050077D01*
X90641213Y-131050080D01*
X90513791Y-131153818D01*
X90443937Y-131210688D01*
X90440728Y-131214233D01*
X90440723Y-131214238D01*
X90323021Y-131344274D01*
X90270010Y-131402840D01*
X90127149Y-131619090D01*
X90125148Y-131623430D01*
X90125146Y-131623434D01*
X90032557Y-131824276D01*
X90018642Y-131854460D01*
X90017318Y-131859062D01*
X89956724Y-132069684D01*
X89946985Y-132103535D01*
X89946374Y-132108270D01*
X89946373Y-132108276D01*
X89924789Y-132275606D01*
X89913828Y-132360583D01*
X89919935Y-132619689D01*
X89965163Y-132874890D01*
X90048473Y-133120313D01*
X90050674Y-133124549D01*
X90050676Y-133124555D01*
X90108210Y-133235312D01*
X90167947Y-133350311D01*
X90320837Y-133559590D01*
X90380958Y-133620027D01*
X90414818Y-133682427D01*
X90414533Y-133736644D01*
X89001542Y-139993170D01*
X89001542Y-139993174D01*
X89000000Y-140000000D01*
X89000000Y-148874449D01*
X88979998Y-148942570D01*
X88926342Y-148989063D01*
X88874450Y-149000448D01*
X61126450Y-149099548D01*
X61058258Y-149079790D01*
X61011574Y-149026300D01*
X61000000Y-148973549D01*
X61000000Y-140017968D01*
X61005023Y-139982747D01*
X61126742Y-139564669D01*
X75257001Y-139564669D01*
X75257371Y-139571490D01*
X75262895Y-139622352D01*
X75266521Y-139637604D01*
X75311676Y-139758054D01*
X75320214Y-139773649D01*
X75396715Y-139875724D01*
X75409276Y-139888285D01*
X75511351Y-139964786D01*
X75526946Y-139973324D01*
X75647394Y-140018478D01*
X75662649Y-140022105D01*
X75713514Y-140027631D01*
X75720328Y-140028000D01*
X78667885Y-140028000D01*
X78683124Y-140023525D01*
X78684329Y-140022135D01*
X78686000Y-140014452D01*
X78686000Y-140009884D01*
X79194000Y-140009884D01*
X79198475Y-140025123D01*
X79199865Y-140026328D01*
X79207548Y-140027999D01*
X82159669Y-140027999D01*
X82166490Y-140027629D01*
X82217352Y-140022105D01*
X82232604Y-140018479D01*
X82353054Y-139973324D01*
X82368649Y-139964786D01*
X82470724Y-139888285D01*
X82483285Y-139875724D01*
X82559786Y-139773649D01*
X82568324Y-139758054D01*
X82613478Y-139637606D01*
X82617105Y-139622351D01*
X82622631Y-139571486D01*
X82623000Y-139564672D01*
X82623000Y-136122115D01*
X82618525Y-136106876D01*
X82617135Y-136105671D01*
X82609452Y-136104000D01*
X79212115Y-136104000D01*
X79196876Y-136108475D01*
X79195671Y-136109865D01*
X79194000Y-136117548D01*
X79194000Y-140009884D01*
X78686000Y-140009884D01*
X78686000Y-136122115D01*
X78681525Y-136106876D01*
X78680135Y-136105671D01*
X78672452Y-136104000D01*
X75275116Y-136104000D01*
X75259877Y-136108475D01*
X75258672Y-136109865D01*
X75257001Y-136117548D01*
X75257001Y-139564669D01*
X61126742Y-139564669D01*
X62287451Y-135577885D01*
X75257000Y-135577885D01*
X75261475Y-135593124D01*
X75262865Y-135594329D01*
X75270548Y-135596000D01*
X78667885Y-135596000D01*
X78683124Y-135591525D01*
X78684329Y-135590135D01*
X78686000Y-135582452D01*
X78686000Y-135577885D01*
X79194000Y-135577885D01*
X79198475Y-135593124D01*
X79199865Y-135594329D01*
X79207548Y-135596000D01*
X82604884Y-135596000D01*
X82620123Y-135591525D01*
X82621328Y-135590135D01*
X82622999Y-135582452D01*
X82622999Y-132135331D01*
X82622629Y-132128510D01*
X82617105Y-132077648D01*
X82613479Y-132062396D01*
X82568324Y-131941946D01*
X82559786Y-131926351D01*
X82483285Y-131824276D01*
X82470724Y-131811715D01*
X82368649Y-131735214D01*
X82353054Y-131726676D01*
X82232606Y-131681522D01*
X82217351Y-131677895D01*
X82166486Y-131672369D01*
X82159672Y-131672000D01*
X79212115Y-131672000D01*
X79196876Y-131676475D01*
X79195671Y-131677865D01*
X79194000Y-131685548D01*
X79194000Y-135577885D01*
X78686000Y-135577885D01*
X78686000Y-131690116D01*
X78681525Y-131674877D01*
X78680135Y-131673672D01*
X78672452Y-131672001D01*
X75720331Y-131672001D01*
X75713510Y-131672371D01*
X75662648Y-131677895D01*
X75647396Y-131681521D01*
X75526946Y-131726676D01*
X75511351Y-131735214D01*
X75409276Y-131811715D01*
X75396715Y-131824276D01*
X75320214Y-131926351D01*
X75311676Y-131941946D01*
X75266522Y-132062394D01*
X75262895Y-132077649D01*
X75257369Y-132128514D01*
X75257000Y-132135328D01*
X75257000Y-135577885D01*
X62287451Y-135577885D01*
X63095895Y-132801058D01*
X63224135Y-132360583D01*
X69033828Y-132360583D01*
X69039935Y-132619689D01*
X69085163Y-132874890D01*
X69168473Y-133120313D01*
X69170674Y-133124549D01*
X69170676Y-133124555D01*
X69228210Y-133235312D01*
X69287947Y-133350311D01*
X69440837Y-133559590D01*
X69444209Y-133562980D01*
X69444211Y-133562982D01*
X69620248Y-133739945D01*
X69620253Y-133739949D01*
X69623622Y-133743336D01*
X69832099Y-133897319D01*
X69836337Y-133899549D01*
X69836339Y-133899550D01*
X70057232Y-134015768D01*
X70057239Y-134015771D01*
X70061468Y-134017996D01*
X70065984Y-134019555D01*
X70065990Y-134019558D01*
X70192565Y-134063264D01*
X70306451Y-134102590D01*
X70424193Y-134124093D01*
X70557441Y-134148429D01*
X70557445Y-134148429D01*
X70561412Y-134149154D01*
X70644342Y-134153500D01*
X70805903Y-134153500D01*
X70808282Y-134153319D01*
X70808283Y-134153319D01*
X70993664Y-134139218D01*
X70993669Y-134139217D01*
X70998431Y-134138855D01*
X71003084Y-134137776D01*
X71003087Y-134137776D01*
X71246251Y-134081413D01*
X71246250Y-134081413D01*
X71250915Y-134080332D01*
X71491642Y-133984292D01*
X71715072Y-133852944D01*
X71718783Y-133849923D01*
X71718787Y-133849920D01*
X71912351Y-133692334D01*
X71916063Y-133689312D01*
X71919272Y-133685767D01*
X71919277Y-133685762D01*
X72086774Y-133500713D01*
X72089990Y-133497160D01*
X72232851Y-133280910D01*
X72306888Y-133120313D01*
X72339352Y-133049892D01*
X72339353Y-133049889D01*
X72341358Y-133045540D01*
X72413015Y-132796465D01*
X72446172Y-132539417D01*
X72440065Y-132280311D01*
X72414371Y-132135331D01*
X72395671Y-132029814D01*
X72395670Y-132029810D01*
X72394837Y-132025110D01*
X72311527Y-131779687D01*
X72309326Y-131775451D01*
X72309324Y-131775445D01*
X72228104Y-131619090D01*
X72192053Y-131549689D01*
X72039163Y-131340410D01*
X71913651Y-131214238D01*
X71859752Y-131160055D01*
X71859747Y-131160051D01*
X71856378Y-131156664D01*
X71647901Y-131002681D01*
X71643661Y-131000450D01*
X71422768Y-130884232D01*
X71422761Y-130884229D01*
X71418532Y-130882004D01*
X71414016Y-130880445D01*
X71414010Y-130880442D01*
X71243148Y-130821443D01*
X71173549Y-130797410D01*
X71027069Y-130770658D01*
X70922559Y-130751571D01*
X70922555Y-130751571D01*
X70918588Y-130750846D01*
X70835658Y-130746500D01*
X70674097Y-130746500D01*
X70671718Y-130746681D01*
X70671717Y-130746681D01*
X70486336Y-130760782D01*
X70486331Y-130760783D01*
X70481569Y-130761145D01*
X70476916Y-130762224D01*
X70476913Y-130762224D01*
X70440527Y-130770658D01*
X70229085Y-130819668D01*
X69988358Y-130915708D01*
X69764928Y-131047056D01*
X69761217Y-131050077D01*
X69761213Y-131050080D01*
X69633791Y-131153818D01*
X69563937Y-131210688D01*
X69560728Y-131214233D01*
X69560723Y-131214238D01*
X69443021Y-131344274D01*
X69390010Y-131402840D01*
X69247149Y-131619090D01*
X69245148Y-131623430D01*
X69245146Y-131623434D01*
X69152557Y-131824276D01*
X69138642Y-131854460D01*
X69137318Y-131859062D01*
X69076724Y-132069684D01*
X69066985Y-132103535D01*
X69066374Y-132108270D01*
X69066373Y-132108276D01*
X69044789Y-132275606D01*
X69033828Y-132360583D01*
X63224135Y-132360583D01*
X65609643Y-124166880D01*
X68701992Y-124166880D01*
X68702355Y-124171028D01*
X68702355Y-124171032D01*
X68727487Y-124458293D01*
X68727488Y-124458301D01*
X68727852Y-124462459D01*
X68792577Y-124752021D01*
X68794019Y-124755941D01*
X68794021Y-124755947D01*
X68893582Y-125026548D01*
X68895029Y-125030480D01*
X68896980Y-125034180D01*
X68896982Y-125034185D01*
X68988784Y-125208302D01*
X69033410Y-125292942D01*
X69205288Y-125534797D01*
X69407642Y-125751796D01*
X69636918Y-125940125D01*
X69889088Y-126096477D01*
X70159722Y-126218105D01*
X70332390Y-126269580D01*
X70440065Y-126301679D01*
X70440067Y-126301679D01*
X70444064Y-126302871D01*
X70448184Y-126303524D01*
X70448186Y-126303524D01*
X70567106Y-126322359D01*
X70737119Y-126349286D01*
X70782146Y-126351331D01*
X70828497Y-126353436D01*
X70828516Y-126353436D01*
X70829916Y-126353500D01*
X71015264Y-126353500D01*
X71236056Y-126338835D01*
X71526910Y-126280188D01*
X71807453Y-126183590D01*
X71811196Y-126181716D01*
X71811200Y-126181714D01*
X72069012Y-126052611D01*
X72069014Y-126052610D01*
X72072756Y-126050736D01*
X72318158Y-125883961D01*
X72539346Y-125686196D01*
X72732436Y-125460914D01*
X72790466Y-125371556D01*
X72891763Y-125215572D01*
X72891765Y-125215569D01*
X72894035Y-125212073D01*
X72904551Y-125189928D01*
X72942629Y-125109734D01*
X73021304Y-124944046D01*
X73022584Y-124940060D01*
X73110726Y-124665530D01*
X73110727Y-124665524D01*
X73112006Y-124661542D01*
X73147719Y-124463056D01*
X73163809Y-124373632D01*
X73163810Y-124373627D01*
X73164548Y-124369523D01*
X73166746Y-124321134D01*
X73173751Y-124166880D01*
X84501992Y-124166880D01*
X84502355Y-124171028D01*
X84502355Y-124171032D01*
X84527487Y-124458293D01*
X84527488Y-124458301D01*
X84527852Y-124462459D01*
X84592577Y-124752021D01*
X84594019Y-124755941D01*
X84594021Y-124755947D01*
X84693582Y-125026548D01*
X84695029Y-125030480D01*
X84696980Y-125034180D01*
X84696982Y-125034185D01*
X84788784Y-125208302D01*
X84833410Y-125292942D01*
X85005288Y-125534797D01*
X85207642Y-125751796D01*
X85436918Y-125940125D01*
X85689088Y-126096477D01*
X85959722Y-126218105D01*
X86132390Y-126269580D01*
X86240065Y-126301679D01*
X86240067Y-126301679D01*
X86244064Y-126302871D01*
X86248184Y-126303524D01*
X86248186Y-126303524D01*
X86367106Y-126322359D01*
X86537119Y-126349286D01*
X86582146Y-126351331D01*
X86628497Y-126353436D01*
X86628516Y-126353436D01*
X86629916Y-126353500D01*
X86815264Y-126353500D01*
X87036056Y-126338835D01*
X87326910Y-126280188D01*
X87607453Y-126183590D01*
X87611196Y-126181716D01*
X87611200Y-126181714D01*
X87869012Y-126052611D01*
X87869014Y-126052610D01*
X87872756Y-126050736D01*
X88118158Y-125883961D01*
X88339346Y-125686196D01*
X88532436Y-125460914D01*
X88590466Y-125371556D01*
X88691763Y-125215572D01*
X88691765Y-125215569D01*
X88694035Y-125212073D01*
X88704551Y-125189928D01*
X88742629Y-125109734D01*
X88821304Y-124944046D01*
X88822584Y-124940060D01*
X88910726Y-124665530D01*
X88910727Y-124665524D01*
X88912006Y-124661542D01*
X88947719Y-124463056D01*
X88963809Y-124373632D01*
X88963810Y-124373627D01*
X88964548Y-124369523D01*
X88966746Y-124321134D01*
X88977819Y-124077290D01*
X88977819Y-124077285D01*
X88978008Y-124073120D01*
X88977645Y-124068968D01*
X88952513Y-123781707D01*
X88952512Y-123781699D01*
X88952148Y-123777541D01*
X88887423Y-123487979D01*
X88816773Y-123295954D01*
X88786418Y-123213452D01*
X88786416Y-123213448D01*
X88784971Y-123209520D01*
X88646590Y-122947058D01*
X88474712Y-122705203D01*
X88272358Y-122488204D01*
X88043082Y-122299875D01*
X87790912Y-122143523D01*
X87520278Y-122021895D01*
X87347610Y-121970420D01*
X87239935Y-121938321D01*
X87239933Y-121938321D01*
X87235936Y-121937129D01*
X87231816Y-121936476D01*
X87231814Y-121936476D01*
X87112894Y-121917641D01*
X86942881Y-121890714D01*
X86897854Y-121888669D01*
X86851503Y-121886564D01*
X86851484Y-121886564D01*
X86850084Y-121886500D01*
X86664736Y-121886500D01*
X86443944Y-121901165D01*
X86153090Y-121959812D01*
X85872547Y-122056410D01*
X85868804Y-122058284D01*
X85868800Y-122058286D01*
X85694179Y-122145730D01*
X85607244Y-122189264D01*
X85361842Y-122356039D01*
X85140654Y-122553804D01*
X84947564Y-122779086D01*
X84945290Y-122782588D01*
X84945289Y-122782589D01*
X84840698Y-122943646D01*
X84785965Y-123027927D01*
X84658696Y-123295954D01*
X84657417Y-123299937D01*
X84657416Y-123299940D01*
X84597044Y-123487979D01*
X84567994Y-123578458D01*
X84567253Y-123582577D01*
X84532174Y-123777541D01*
X84515452Y-123870477D01*
X84515263Y-123874644D01*
X84515262Y-123874651D01*
X84503612Y-124131206D01*
X84501992Y-124166880D01*
X73173751Y-124166880D01*
X73177819Y-124077290D01*
X73177819Y-124077285D01*
X73178008Y-124073120D01*
X73177645Y-124068968D01*
X73152513Y-123781707D01*
X73152512Y-123781699D01*
X73152148Y-123777541D01*
X73087423Y-123487979D01*
X73016773Y-123295954D01*
X72986418Y-123213452D01*
X72986416Y-123213448D01*
X72984971Y-123209520D01*
X72846590Y-122947058D01*
X72674712Y-122705203D01*
X72472358Y-122488204D01*
X72243082Y-122299875D01*
X71990912Y-122143523D01*
X71720278Y-122021895D01*
X71547610Y-121970420D01*
X71439935Y-121938321D01*
X71439933Y-121938321D01*
X71435936Y-121937129D01*
X71431816Y-121936476D01*
X71431814Y-121936476D01*
X71312894Y-121917641D01*
X71142881Y-121890714D01*
X71097854Y-121888669D01*
X71051503Y-121886564D01*
X71051484Y-121886564D01*
X71050084Y-121886500D01*
X70864736Y-121886500D01*
X70643944Y-121901165D01*
X70353090Y-121959812D01*
X70072547Y-122056410D01*
X70068804Y-122058284D01*
X70068800Y-122058286D01*
X69894179Y-122145730D01*
X69807244Y-122189264D01*
X69561842Y-122356039D01*
X69340654Y-122553804D01*
X69147564Y-122779086D01*
X69145290Y-122782588D01*
X69145289Y-122782589D01*
X69040698Y-122943646D01*
X68985965Y-123027927D01*
X68858696Y-123295954D01*
X68857417Y-123299937D01*
X68857416Y-123299940D01*
X68797044Y-123487979D01*
X68767994Y-123578458D01*
X68767253Y-123582577D01*
X68732174Y-123777541D01*
X68715452Y-123870477D01*
X68715263Y-123874644D01*
X68715262Y-123874651D01*
X68703612Y-124131206D01*
X68701992Y-124166880D01*
X65609643Y-124166880D01*
X81045098Y-71149445D01*
X81680528Y-68966880D01*
X84701992Y-68966880D01*
X84702355Y-68971028D01*
X84702355Y-68971032D01*
X84727487Y-69258293D01*
X84727488Y-69258301D01*
X84727852Y-69262459D01*
X84792577Y-69552021D01*
X84794019Y-69555941D01*
X84794021Y-69555947D01*
X84864619Y-69747827D01*
X84895029Y-69830480D01*
X85033410Y-70092942D01*
X85205288Y-70334797D01*
X85407642Y-70551796D01*
X85636918Y-70740125D01*
X85889088Y-70896477D01*
X86159722Y-71018105D01*
X86332390Y-71069580D01*
X86440065Y-71101679D01*
X86440067Y-71101679D01*
X86444064Y-71102871D01*
X86448184Y-71103524D01*
X86448186Y-71103524D01*
X86567106Y-71122359D01*
X86737119Y-71149286D01*
X86782146Y-71151331D01*
X86828497Y-71153436D01*
X86828516Y-71153436D01*
X86829916Y-71153500D01*
X87015264Y-71153500D01*
X87236056Y-71138835D01*
X87526910Y-71080188D01*
X87807453Y-70983590D01*
X87811196Y-70981716D01*
X87811200Y-70981714D01*
X88069012Y-70852611D01*
X88069014Y-70852610D01*
X88072756Y-70850736D01*
X88318158Y-70683961D01*
X88539346Y-70486196D01*
X88732436Y-70260914D01*
X88778535Y-70189928D01*
X88891763Y-70015572D01*
X88891765Y-70015569D01*
X88894035Y-70012073D01*
X89021304Y-69744046D01*
X89081696Y-69555947D01*
X89110726Y-69465530D01*
X89110727Y-69465524D01*
X89112006Y-69461542D01*
X89155555Y-69219504D01*
X89187304Y-69156001D01*
X89248345Y-69119745D01*
X89319298Y-69122245D01*
X89377635Y-69162708D01*
X89405084Y-69230834D01*
X89407485Y-69258277D01*
X89407488Y-69258294D01*
X89407852Y-69262459D01*
X89472577Y-69552021D01*
X89474019Y-69555941D01*
X89474021Y-69555947D01*
X89544619Y-69747827D01*
X89575029Y-69830480D01*
X89713410Y-70092942D01*
X89885288Y-70334797D01*
X90087642Y-70551796D01*
X90316918Y-70740125D01*
X90569088Y-70896477D01*
X90839722Y-71018105D01*
X91012390Y-71069580D01*
X91120065Y-71101679D01*
X91120067Y-71101679D01*
X91124064Y-71102871D01*
X91128184Y-71103524D01*
X91128186Y-71103524D01*
X91247106Y-71122359D01*
X91417119Y-71149286D01*
X91462146Y-71151331D01*
X91508497Y-71153436D01*
X91508516Y-71153436D01*
X91509916Y-71153500D01*
X91695264Y-71153500D01*
X91916056Y-71138835D01*
X92206910Y-71080188D01*
X92487453Y-70983590D01*
X92491196Y-70981716D01*
X92491200Y-70981714D01*
X92749012Y-70852611D01*
X92749014Y-70852610D01*
X92752756Y-70850736D01*
X92998158Y-70683961D01*
X93219346Y-70486196D01*
X93412436Y-70260914D01*
X93458535Y-70189928D01*
X93571763Y-70015572D01*
X93571765Y-70015569D01*
X93574035Y-70012073D01*
X93701304Y-69744046D01*
X93761696Y-69555947D01*
X93790726Y-69465530D01*
X93790727Y-69465524D01*
X93792006Y-69461542D01*
X93827091Y-69266548D01*
X93843809Y-69173632D01*
X93843810Y-69173627D01*
X93844548Y-69169523D01*
X93844858Y-69162708D01*
X93857819Y-68877290D01*
X93857819Y-68877285D01*
X93858008Y-68873120D01*
X93844634Y-68720255D01*
X93832513Y-68581707D01*
X93832512Y-68581699D01*
X93832148Y-68577541D01*
X93767423Y-68287979D01*
X93696773Y-68095954D01*
X93666418Y-68013452D01*
X93666416Y-68013448D01*
X93664971Y-68009520D01*
X93526590Y-67747058D01*
X93354712Y-67505203D01*
X93152358Y-67288204D01*
X92923082Y-67099875D01*
X92670912Y-66943523D01*
X92400278Y-66821895D01*
X92227610Y-66770420D01*
X92119935Y-66738321D01*
X92119933Y-66738321D01*
X92115936Y-66737129D01*
X92111816Y-66736476D01*
X92111814Y-66736476D01*
X91992894Y-66717641D01*
X91822881Y-66690714D01*
X91777854Y-66688669D01*
X91731503Y-66686564D01*
X91731484Y-66686564D01*
X91730084Y-66686500D01*
X91544736Y-66686500D01*
X91323944Y-66701165D01*
X91033090Y-66759812D01*
X90752547Y-66856410D01*
X90748804Y-66858284D01*
X90748800Y-66858286D01*
X90574179Y-66945730D01*
X90487244Y-66989264D01*
X90241842Y-67156039D01*
X90020654Y-67353804D01*
X89827564Y-67579086D01*
X89825290Y-67582588D01*
X89825289Y-67582589D01*
X89720698Y-67743646D01*
X89665965Y-67827927D01*
X89538696Y-68095954D01*
X89537417Y-68099937D01*
X89537416Y-68099940D01*
X89477044Y-68287979D01*
X89447994Y-68378458D01*
X89404445Y-68620496D01*
X89372696Y-68683999D01*
X89311655Y-68720255D01*
X89240702Y-68717755D01*
X89182365Y-68677292D01*
X89154916Y-68609166D01*
X89152515Y-68581723D01*
X89152512Y-68581706D01*
X89152148Y-68577541D01*
X89087423Y-68287979D01*
X89016773Y-68095954D01*
X88986418Y-68013452D01*
X88986416Y-68013448D01*
X88984971Y-68009520D01*
X88846590Y-67747058D01*
X88674712Y-67505203D01*
X88472358Y-67288204D01*
X88243082Y-67099875D01*
X87990912Y-66943523D01*
X87720278Y-66821895D01*
X87547610Y-66770420D01*
X87439935Y-66738321D01*
X87439933Y-66738321D01*
X87435936Y-66737129D01*
X87431816Y-66736476D01*
X87431814Y-66736476D01*
X87312894Y-66717641D01*
X87142881Y-66690714D01*
X87097854Y-66688669D01*
X87051503Y-66686564D01*
X87051484Y-66686564D01*
X87050084Y-66686500D01*
X86864736Y-66686500D01*
X86643944Y-66701165D01*
X86353090Y-66759812D01*
X86072547Y-66856410D01*
X86068804Y-66858284D01*
X86068800Y-66858286D01*
X85894179Y-66945730D01*
X85807244Y-66989264D01*
X85561842Y-67156039D01*
X85340654Y-67353804D01*
X85147564Y-67579086D01*
X85145290Y-67582588D01*
X85145289Y-67582589D01*
X85040698Y-67743646D01*
X84985965Y-67827927D01*
X84858696Y-68095954D01*
X84857417Y-68099937D01*
X84857416Y-68099940D01*
X84797044Y-68287979D01*
X84767994Y-68378458D01*
X84767253Y-68382577D01*
X84732174Y-68577541D01*
X84715452Y-68670477D01*
X84715263Y-68674644D01*
X84715262Y-68674651D01*
X84706060Y-68877290D01*
X84701992Y-68966880D01*
X81680528Y-68966880D01*
X83997501Y-61008584D01*
X83997501Y-61008583D01*
X84000000Y-61000000D01*
X84000000Y-60500583D01*
X90113828Y-60500583D01*
X90119935Y-60759689D01*
X90120769Y-60764394D01*
X90145630Y-60904672D01*
X90165163Y-61014890D01*
X90248473Y-61260313D01*
X90250674Y-61264549D01*
X90250676Y-61264555D01*
X90301365Y-61362135D01*
X90367947Y-61490311D01*
X90520837Y-61699590D01*
X90524209Y-61702980D01*
X90524211Y-61702982D01*
X90700248Y-61879945D01*
X90700253Y-61879949D01*
X90703622Y-61883336D01*
X90912099Y-62037319D01*
X90916337Y-62039549D01*
X90916339Y-62039550D01*
X91137232Y-62155768D01*
X91137239Y-62155771D01*
X91141468Y-62157996D01*
X91145984Y-62159555D01*
X91145990Y-62159558D01*
X91272565Y-62203264D01*
X91386451Y-62242590D01*
X91504193Y-62264093D01*
X91637441Y-62288429D01*
X91637445Y-62288429D01*
X91641412Y-62289154D01*
X91724342Y-62293500D01*
X91885903Y-62293500D01*
X91888282Y-62293319D01*
X91888283Y-62293319D01*
X92073664Y-62279218D01*
X92073669Y-62279217D01*
X92078431Y-62278855D01*
X92083084Y-62277776D01*
X92083087Y-62277776D01*
X92326251Y-62221413D01*
X92326250Y-62221413D01*
X92330915Y-62220332D01*
X92571642Y-62124292D01*
X92795072Y-61992944D01*
X92798783Y-61989923D01*
X92798787Y-61989920D01*
X92992351Y-61832334D01*
X92996063Y-61829312D01*
X92999272Y-61825767D01*
X92999277Y-61825762D01*
X93166774Y-61640713D01*
X93169990Y-61637160D01*
X93312851Y-61420910D01*
X93337013Y-61368500D01*
X93419352Y-61189892D01*
X93419353Y-61189889D01*
X93421358Y-61185540D01*
X93422682Y-61180938D01*
X93491694Y-60941058D01*
X93491695Y-60941053D01*
X93493015Y-60936465D01*
X93496623Y-60908500D01*
X93497117Y-60904669D01*
X96137001Y-60904669D01*
X96137371Y-60911490D01*
X96142895Y-60962352D01*
X96146521Y-60977604D01*
X96191676Y-61098054D01*
X96200214Y-61113649D01*
X96276715Y-61215724D01*
X96289276Y-61228285D01*
X96391351Y-61304786D01*
X96406946Y-61313324D01*
X96527394Y-61358478D01*
X96542649Y-61362105D01*
X96593514Y-61367631D01*
X96600328Y-61368000D01*
X99547885Y-61368000D01*
X99563124Y-61363525D01*
X99564329Y-61362135D01*
X99566000Y-61354452D01*
X99566000Y-61349884D01*
X100074000Y-61349884D01*
X100078475Y-61365123D01*
X100079865Y-61366328D01*
X100087548Y-61367999D01*
X103039669Y-61367999D01*
X103046490Y-61367629D01*
X103097352Y-61362105D01*
X103112604Y-61358479D01*
X103233054Y-61313324D01*
X103248649Y-61304786D01*
X103350724Y-61228285D01*
X103363285Y-61215724D01*
X103439786Y-61113649D01*
X103448324Y-61098054D01*
X103493478Y-60977606D01*
X103497105Y-60962351D01*
X103502631Y-60911486D01*
X103503000Y-60904672D01*
X103503000Y-57462115D01*
X103498525Y-57446876D01*
X103497135Y-57445671D01*
X103489452Y-57444000D01*
X100092115Y-57444000D01*
X100076876Y-57448475D01*
X100075671Y-57449865D01*
X100074000Y-57457548D01*
X100074000Y-61349884D01*
X99566000Y-61349884D01*
X99566000Y-57462115D01*
X99561525Y-57446876D01*
X99560135Y-57445671D01*
X99552452Y-57444000D01*
X96155116Y-57444000D01*
X96139877Y-57448475D01*
X96138672Y-57449865D01*
X96137001Y-57457548D01*
X96137001Y-60904669D01*
X93497117Y-60904669D01*
X93525561Y-60684154D01*
X93526172Y-60679417D01*
X93520065Y-60420311D01*
X93487922Y-60238942D01*
X93475671Y-60169814D01*
X93475670Y-60169810D01*
X93474837Y-60165110D01*
X93391527Y-59919687D01*
X93389326Y-59915451D01*
X93389324Y-59915445D01*
X93308104Y-59759090D01*
X93272053Y-59689689D01*
X93119163Y-59480410D01*
X92993651Y-59354238D01*
X92939752Y-59300055D01*
X92939747Y-59300051D01*
X92936378Y-59296664D01*
X92727901Y-59142681D01*
X92706091Y-59131206D01*
X92502768Y-59024232D01*
X92502761Y-59024229D01*
X92498532Y-59022004D01*
X92494016Y-59020445D01*
X92494010Y-59020442D01*
X92323148Y-58961443D01*
X92253549Y-58937410D01*
X92135807Y-58915907D01*
X92002559Y-58891571D01*
X92002555Y-58891571D01*
X91998588Y-58890846D01*
X91915658Y-58886500D01*
X91754097Y-58886500D01*
X91751718Y-58886681D01*
X91751717Y-58886681D01*
X91566336Y-58900782D01*
X91566331Y-58900783D01*
X91561569Y-58901145D01*
X91556916Y-58902224D01*
X91556913Y-58902224D01*
X91408822Y-58936550D01*
X91309085Y-58959668D01*
X91068358Y-59055708D01*
X90844928Y-59187056D01*
X90841217Y-59190077D01*
X90841213Y-59190080D01*
X90661110Y-59336707D01*
X90643937Y-59350688D01*
X90640728Y-59354233D01*
X90640723Y-59354238D01*
X90523021Y-59484274D01*
X90470010Y-59542840D01*
X90467369Y-59546838D01*
X90467368Y-59546839D01*
X90388759Y-59665830D01*
X90327149Y-59759090D01*
X90325148Y-59763430D01*
X90325146Y-59763434D01*
X90251025Y-59924215D01*
X90218642Y-59994460D01*
X90146985Y-60243535D01*
X90113828Y-60500583D01*
X84000000Y-60500583D01*
X84000000Y-56917885D01*
X96137000Y-56917885D01*
X96141475Y-56933124D01*
X96142865Y-56934329D01*
X96150548Y-56936000D01*
X99547885Y-56936000D01*
X99563124Y-56931525D01*
X99564329Y-56930135D01*
X99566000Y-56922452D01*
X99566000Y-56917885D01*
X100074000Y-56917885D01*
X100078475Y-56933124D01*
X100079865Y-56934329D01*
X100087548Y-56936000D01*
X103484884Y-56936000D01*
X103500123Y-56931525D01*
X103501328Y-56930135D01*
X103502999Y-56922452D01*
X103502999Y-53475331D01*
X103502629Y-53468510D01*
X103497105Y-53417648D01*
X103493479Y-53402396D01*
X103448324Y-53281946D01*
X103439786Y-53266351D01*
X103363285Y-53164276D01*
X103350724Y-53151715D01*
X103248649Y-53075214D01*
X103233054Y-53066676D01*
X103112606Y-53021522D01*
X103097351Y-53017895D01*
X103046486Y-53012369D01*
X103039672Y-53012000D01*
X100092115Y-53012000D01*
X100076876Y-53016475D01*
X100075671Y-53017865D01*
X100074000Y-53025548D01*
X100074000Y-56917885D01*
X99566000Y-56917885D01*
X99566000Y-53030116D01*
X99561525Y-53014877D01*
X99560135Y-53013672D01*
X99552452Y-53012001D01*
X96600331Y-53012001D01*
X96593510Y-53012371D01*
X96542648Y-53017895D01*
X96527396Y-53021521D01*
X96406946Y-53066676D01*
X96391351Y-53075214D01*
X96289276Y-53151715D01*
X96276715Y-53164276D01*
X96200214Y-53266351D01*
X96191676Y-53281946D01*
X96146522Y-53402394D01*
X96142895Y-53417649D01*
X96137369Y-53468514D01*
X96137000Y-53475328D01*
X96137000Y-56917885D01*
X84000000Y-56917885D01*
X84000000Y-51126000D01*
X84020002Y-51057879D01*
X84073658Y-51011386D01*
X84126000Y-51000000D01*
X108942370Y-51000000D01*
X109010491Y-51020002D01*
G37*
%TD.AperFunction*%
%TD*%
%TA.AperFunction,Conductor*%
%TO.N,B+*%
G36*
X75336064Y-53020002D02*
G01*
X75382557Y-53073658D01*
X75392661Y-53143932D01*
X75368769Y-53201565D01*
X75320214Y-53266352D01*
X75311676Y-53281946D01*
X75266522Y-53402394D01*
X75262895Y-53417649D01*
X75257369Y-53468514D01*
X75257000Y-53475328D01*
X75257000Y-56917885D01*
X75261475Y-56933124D01*
X75262865Y-56934329D01*
X75270548Y-56936000D01*
X82604884Y-56936000D01*
X82620123Y-56931525D01*
X82621328Y-56930135D01*
X82622999Y-56922452D01*
X82622999Y-53475331D01*
X82622629Y-53468510D01*
X82617105Y-53417648D01*
X82613479Y-53402396D01*
X82568324Y-53281946D01*
X82559786Y-53266352D01*
X82511231Y-53201565D01*
X82486383Y-53135059D01*
X82501436Y-53065676D01*
X82551610Y-53015446D01*
X82612057Y-53000000D01*
X82874000Y-53000000D01*
X82942121Y-53020002D01*
X82988614Y-53073658D01*
X83000000Y-53126000D01*
X83000000Y-60982032D01*
X82994977Y-61017253D01*
X60000000Y-140000000D01*
X60000000Y-148874000D01*
X59979998Y-148942121D01*
X59926342Y-148988614D01*
X59874000Y-149000000D01*
X57544211Y-149000000D01*
X57476090Y-148979998D01*
X57429597Y-148926342D01*
X57419493Y-148856068D01*
X57448987Y-148791488D01*
X57473389Y-148769788D01*
X57700898Y-148615174D01*
X57705511Y-148611723D01*
X57991829Y-148376539D01*
X58000290Y-148364106D01*
X57994040Y-148353250D01*
X57647408Y-148006618D01*
X56762111Y-147121320D01*
X56236023Y-146595233D01*
X55012812Y-145372022D01*
X54998868Y-145364408D01*
X54997035Y-145364539D01*
X54990420Y-145368790D01*
X53763978Y-146595232D01*
X52878680Y-147480529D01*
X52352593Y-148006617D01*
X52007723Y-148351487D01*
X52000109Y-148365431D01*
X52000190Y-148366564D01*
X52005168Y-148374136D01*
X52025401Y-148393539D01*
X52029678Y-148397283D01*
X52345218Y-148649175D01*
X52349811Y-148652512D01*
X52526185Y-148768809D01*
X52572045Y-148823007D01*
X52581323Y-148893395D01*
X52551074Y-148957625D01*
X52490902Y-148995305D01*
X52456825Y-149000000D01*
X51126000Y-149000000D01*
X51057879Y-148979998D01*
X51011386Y-148926342D01*
X51000000Y-148874000D01*
X51000000Y-147550798D01*
X51020002Y-147482677D01*
X51073658Y-147436184D01*
X51143932Y-147426080D01*
X51208512Y-147455574D01*
X51228194Y-147477093D01*
X51461668Y-147800812D01*
X51465208Y-147805278D01*
X51625528Y-147989704D01*
X51638657Y-147998113D01*
X51648570Y-147992220D01*
X51993382Y-147647408D01*
X52878680Y-146762111D01*
X52950260Y-146690531D01*
X53404767Y-146236023D01*
X54627978Y-145012812D01*
X54634356Y-145001132D01*
X55364408Y-145001132D01*
X55364539Y-145002965D01*
X55368790Y-145009580D01*
X56595232Y-146236022D01*
X57049739Y-146690530D01*
X57121319Y-146762110D01*
X58006617Y-147647407D01*
X58350688Y-147991478D01*
X58364134Y-147998820D01*
X58373970Y-147991900D01*
X58573611Y-147755657D01*
X58577097Y-147751130D01*
X58808659Y-147420424D01*
X58811716Y-147415608D01*
X59012350Y-147065281D01*
X59014962Y-147060199D01*
X59183020Y-146693127D01*
X59185159Y-146687834D01*
X59319255Y-146307047D01*
X59320908Y-146301573D01*
X59419939Y-145910206D01*
X59421090Y-145904600D01*
X59484245Y-145505854D01*
X59484880Y-145500192D01*
X59511709Y-145096260D01*
X59511843Y-145092753D01*
X59512796Y-145001773D01*
X59512734Y-144998225D01*
X59494371Y-144593843D01*
X59493855Y-144588165D01*
X59439063Y-144188177D01*
X59438036Y-144182577D01*
X59347216Y-143789198D01*
X59345682Y-143783702D01*
X59219588Y-143400183D01*
X59217558Y-143394841D01*
X59057226Y-143024336D01*
X59054722Y-143019202D01*
X58861471Y-142664752D01*
X58858508Y-142659861D01*
X58633930Y-142324389D01*
X58630537Y-142319787D01*
X58376832Y-142006489D01*
X58363963Y-141999226D01*
X58362596Y-141999305D01*
X58355268Y-142003942D01*
X58006618Y-142352592D01*
X57121320Y-143237889D01*
X56595233Y-143763977D01*
X55372022Y-144987188D01*
X55364408Y-145001132D01*
X54634356Y-145001132D01*
X54635592Y-144998868D01*
X54635461Y-144997035D01*
X54631210Y-144990420D01*
X53404768Y-143763978D01*
X52519471Y-142878680D01*
X51993383Y-142352593D01*
X51650424Y-142009634D01*
X51636480Y-142002020D01*
X51636287Y-142002033D01*
X51627465Y-142008012D01*
X51524743Y-142121298D01*
X51521091Y-142125712D01*
X51278139Y-142448120D01*
X51274906Y-142452843D01*
X51233087Y-142520289D01*
X51180190Y-142567645D01*
X51110089Y-142578884D01*
X51045039Y-142550440D01*
X51005694Y-142491343D01*
X51000000Y-142453893D01*
X51000000Y-141638713D01*
X52001723Y-141638713D01*
X52001735Y-141639144D01*
X52007102Y-141647892D01*
X52352592Y-141993382D01*
X52809617Y-142450408D01*
X52878679Y-142519470D01*
X53763977Y-143404767D01*
X54987188Y-144627978D01*
X55001132Y-144635592D01*
X55002965Y-144635461D01*
X55009580Y-144631210D01*
X56236022Y-143404768D01*
X57121320Y-142519471D01*
X57190382Y-142450409D01*
X57647407Y-141993383D01*
X57990943Y-141649847D01*
X57998351Y-141636280D01*
X57991609Y-141626624D01*
X57780533Y-141445711D01*
X57776040Y-141442200D01*
X57446969Y-141208341D01*
X57442146Y-141205233D01*
X57093242Y-141002166D01*
X57088177Y-140999519D01*
X56722296Y-140828905D01*
X56717003Y-140826724D01*
X56337166Y-140689973D01*
X56331706Y-140688284D01*
X55941036Y-140586522D01*
X55935446Y-140585334D01*
X55537154Y-140519397D01*
X55531490Y-140518721D01*
X55128851Y-140489153D01*
X55123150Y-140488994D01*
X54719489Y-140496040D01*
X54713801Y-140496398D01*
X54312457Y-140539998D01*
X54306787Y-140540876D01*
X53911058Y-140620669D01*
X53905512Y-140622051D01*
X53518627Y-140737387D01*
X53513223Y-140739269D01*
X53138396Y-140889189D01*
X53133189Y-140891551D01*
X52773475Y-141074834D01*
X52768510Y-141077655D01*
X52426897Y-141292781D01*
X52422202Y-141296044D01*
X52101494Y-141541243D01*
X52097114Y-141544917D01*
X52009910Y-141625106D01*
X52001723Y-141638713D01*
X51000000Y-141638713D01*
X51000000Y-140018716D01*
X51005441Y-139982090D01*
X72029461Y-70778024D01*
X72068400Y-70718659D01*
X72079198Y-70710438D01*
X72114699Y-70686312D01*
X72114702Y-70686310D01*
X72118158Y-70683961D01*
X72339346Y-70486196D01*
X72532436Y-70260914D01*
X72694035Y-70012073D01*
X72821304Y-69744046D01*
X72822584Y-69740060D01*
X72910726Y-69465530D01*
X72910727Y-69465524D01*
X72912006Y-69461542D01*
X72926536Y-69380786D01*
X72963809Y-69173632D01*
X72963810Y-69173627D01*
X72964548Y-69169523D01*
X72973751Y-68966880D01*
X72977819Y-68877290D01*
X72977819Y-68877285D01*
X72978008Y-68873120D01*
X72960279Y-68670477D01*
X72952513Y-68581707D01*
X72952512Y-68581699D01*
X72952148Y-68577541D01*
X72887423Y-68287979D01*
X72846431Y-68176565D01*
X72841681Y-68105728D01*
X72844122Y-68096432D01*
X74997295Y-61008906D01*
X74997296Y-61008902D01*
X75000000Y-61000000D01*
X75000000Y-60904669D01*
X75257001Y-60904669D01*
X75257371Y-60911490D01*
X75262895Y-60962352D01*
X75266521Y-60977604D01*
X75311676Y-61098054D01*
X75320214Y-61113649D01*
X75396715Y-61215724D01*
X75409276Y-61228285D01*
X75511351Y-61304786D01*
X75526946Y-61313324D01*
X75647394Y-61358478D01*
X75662649Y-61362105D01*
X75713514Y-61367631D01*
X75720328Y-61368000D01*
X78667885Y-61368000D01*
X78683124Y-61363525D01*
X78684329Y-61362135D01*
X78686000Y-61354452D01*
X78686000Y-61349884D01*
X79194000Y-61349884D01*
X79198475Y-61365123D01*
X79199865Y-61366328D01*
X79207548Y-61367999D01*
X82159669Y-61367999D01*
X82166490Y-61367629D01*
X82217352Y-61362105D01*
X82232604Y-61358479D01*
X82353054Y-61313324D01*
X82368649Y-61304786D01*
X82470724Y-61228285D01*
X82483285Y-61215724D01*
X82559786Y-61113649D01*
X82568324Y-61098054D01*
X82613478Y-60977606D01*
X82617105Y-60962351D01*
X82622631Y-60911486D01*
X82623000Y-60904672D01*
X82623000Y-57462115D01*
X82618525Y-57446876D01*
X82617135Y-57445671D01*
X82609452Y-57444000D01*
X79212115Y-57444000D01*
X79196876Y-57448475D01*
X79195671Y-57449865D01*
X79194000Y-57457548D01*
X79194000Y-61349884D01*
X78686000Y-61349884D01*
X78686000Y-57462115D01*
X78681525Y-57446876D01*
X78680135Y-57445671D01*
X78672452Y-57444000D01*
X75275116Y-57444000D01*
X75259877Y-57448475D01*
X75258672Y-57449865D01*
X75257001Y-57457548D01*
X75257001Y-60904669D01*
X75000000Y-60904669D01*
X75000000Y-53126000D01*
X75020002Y-53057879D01*
X75073658Y-53011386D01*
X75126000Y-53000000D01*
X75267943Y-53000000D01*
X75336064Y-53020002D01*
G37*
%TD.AperFunction*%
%TD*%
M02*
