%TF.GenerationSoftware,KiCad,Pcbnew,(6.0.7)*%
%TF.CreationDate,2022-10-24T21:40:11-07:00*%
%TF.ProjectId,18650_3s2p,31383635-305f-4337-9332-702e6b696361,2.0*%
%TF.SameCoordinates,Original*%
%TF.FileFunction,Soldermask,Bot*%
%TF.FilePolarity,Negative*%
%FSLAX46Y46*%
G04 Gerber Fmt 4.6, Leading zero omitted, Abs format (unit mm)*
G04 Created by KiCad (PCBNEW (6.0.7)) date 2022-10-24 21:40:11*
%MOMM*%
%LPD*%
G01*
G04 APERTURE LIST*
G04 Aperture macros list*
%AMRoundRect*
0 Rectangle with rounded corners*
0 $1 Rounding radius*
0 $2 $3 $4 $5 $6 $7 $8 $9 X,Y pos of 4 corners*
0 Add a 4 corners polygon primitive as box body*
4,1,4,$2,$3,$4,$5,$6,$7,$8,$9,$2,$3,0*
0 Add four circle primitives for the rounded corners*
1,1,$1+$1,$2,$3*
1,1,$1+$1,$4,$5*
1,1,$1+$1,$6,$7*
1,1,$1+$1,$8,$9*
0 Add four rect primitives between the rounded corners*
20,1,$1+$1,$2,$3,$4,$5,0*
20,1,$1+$1,$4,$5,$6,$7,0*
20,1,$1+$1,$6,$7,$8,$9,0*
20,1,$1+$1,$8,$9,$2,$3,0*%
G04 Aperture macros list end*
%ADD10C,2.390000*%
%ADD11C,3.450000*%
%ADD12R,6.350000X7.340000*%
%ADD13C,0.900000*%
%ADD14C,8.000000*%
%ADD15RoundRect,0.250000X1.450000X-0.400000X1.450000X0.400000X-1.450000X0.400000X-1.450000X-0.400000X0*%
G04 APERTURE END LIST*
D10*
%TO.C,BT6*%
X112700000Y-60590000D03*
D11*
X112700000Y-124120000D03*
X128700000Y-68920000D03*
D12*
X120700000Y-57190000D03*
X120700000Y-135850000D03*
%TD*%
D10*
%TO.C,BT4*%
X70940000Y-60590000D03*
D11*
X86940000Y-68920000D03*
X70940000Y-124120000D03*
D12*
X78940000Y-57190000D03*
X78940000Y-135850000D03*
%TD*%
D10*
%TO.C,BT5*%
X91820000Y-60590000D03*
D11*
X107820000Y-68920000D03*
X91820000Y-124120000D03*
D12*
X99820000Y-57190000D03*
X99820000Y-135850000D03*
%TD*%
D13*
%TO.C,H4*%
X142000000Y-145000000D03*
X147121320Y-142878680D03*
X145000000Y-148000000D03*
X147121320Y-147121320D03*
X142878680Y-147121320D03*
X142878680Y-142878680D03*
X145000000Y-142000000D03*
D14*
X145000000Y-145000000D03*
D13*
X148000000Y-145000000D03*
%TD*%
%TO.C,H3*%
X142000000Y-55000000D03*
X147121320Y-52878680D03*
X145000000Y-58000000D03*
X147121320Y-57121320D03*
X142878680Y-57121320D03*
X142878680Y-52878680D03*
X145000000Y-52000000D03*
D14*
X145000000Y-55000000D03*
D13*
X148000000Y-55000000D03*
%TD*%
%TO.C,H2*%
X52000000Y-55000000D03*
X57121320Y-52878680D03*
X55000000Y-58000000D03*
X57121320Y-57121320D03*
X52878680Y-57121320D03*
X52878680Y-52878680D03*
X55000000Y-52000000D03*
D14*
X55000000Y-55000000D03*
D13*
X58000000Y-55000000D03*
%TD*%
%TO.C,H1*%
X52000000Y-145000000D03*
X57121320Y-142878680D03*
X55000000Y-148000000D03*
X57121320Y-147121320D03*
X52878680Y-147121320D03*
X52878680Y-142878680D03*
X55000000Y-142000000D03*
D14*
X55000000Y-145000000D03*
D13*
X58000000Y-145000000D03*
%TD*%
D11*
%TO.C,BT2*%
X107620000Y-124120000D03*
X91620000Y-68920000D03*
D10*
X91620000Y-132450000D03*
%TD*%
D11*
%TO.C,BT3*%
X128500000Y-124120000D03*
D10*
X112500000Y-132450000D03*
D11*
X112500000Y-68920000D03*
%TD*%
D10*
%TO.C,BT1*%
X70740000Y-132450000D03*
D11*
X86740000Y-124120000D03*
X70740000Y-68920000D03*
%TD*%
D15*
%TO.C,F1*%
X145000000Y-62775000D03*
X145000000Y-67225000D03*
%TD*%
M02*
