%TF.GenerationSoftware,KiCad,Pcbnew,(6.0.7)*%
%TF.CreationDate,2022-10-24T21:40:11-07:00*%
%TF.ProjectId,18650_3s2p,31383635-305f-4337-9332-702e6b696361,2.0*%
%TF.SameCoordinates,Original*%
%TF.FileFunction,Legend,Top*%
%TF.FilePolarity,Positive*%
%FSLAX46Y46*%
G04 Gerber Fmt 4.6, Leading zero omitted, Abs format (unit mm)*
G04 Created by KiCad (PCBNEW (6.0.7)) date 2022-10-24 21:40:11*
%MOMM*%
%LPD*%
G01*
G04 APERTURE LIST*
%ADD10C,0.300000*%
%ADD11C,0.150000*%
%ADD12C,0.120000*%
G04 APERTURE END LIST*
D10*
X138733571Y-53685357D02*
X138947857Y-53756785D01*
X139019285Y-53828214D01*
X139090714Y-53971071D01*
X139090714Y-54185357D01*
X139019285Y-54328214D01*
X138947857Y-54399642D01*
X138805000Y-54471071D01*
X138233571Y-54471071D01*
X138233571Y-52971071D01*
X138733571Y-52971071D01*
X138876428Y-53042500D01*
X138947857Y-53113928D01*
X139019285Y-53256785D01*
X139019285Y-53399642D01*
X138947857Y-53542500D01*
X138876428Y-53613928D01*
X138733571Y-53685357D01*
X138233571Y-53685357D01*
X140519285Y-54471071D02*
X139662142Y-54471071D01*
X140090714Y-54471071D02*
X140090714Y-52971071D01*
X139947857Y-53185357D01*
X139805000Y-53328214D01*
X139662142Y-53399642D01*
X128162142Y-55386071D02*
X129090714Y-55386071D01*
X128590714Y-55957500D01*
X128805000Y-55957500D01*
X128947857Y-56028928D01*
X129019285Y-56100357D01*
X129090714Y-56243214D01*
X129090714Y-56600357D01*
X129019285Y-56743214D01*
X128947857Y-56814642D01*
X128805000Y-56886071D01*
X128376428Y-56886071D01*
X128233571Y-56814642D01*
X128162142Y-56743214D01*
X129733571Y-56743214D02*
X129805000Y-56814642D01*
X129733571Y-56886071D01*
X129662142Y-56814642D01*
X129733571Y-56743214D01*
X129733571Y-56886071D01*
X131090714Y-55886071D02*
X131090714Y-56886071D01*
X130733571Y-55314642D02*
X130376428Y-56386071D01*
X131305000Y-56386071D01*
X131662142Y-55386071D02*
X132162142Y-56886071D01*
X132662142Y-55386071D01*
X134733571Y-57457500D02*
X134662142Y-57386071D01*
X134519285Y-57171785D01*
X134447857Y-57028928D01*
X134376428Y-56814642D01*
X134305000Y-56457500D01*
X134305000Y-56171785D01*
X134376428Y-55814642D01*
X134447857Y-55600357D01*
X134519285Y-55457500D01*
X134662142Y-55243214D01*
X134733571Y-55171785D01*
X135947857Y-55886071D02*
X135947857Y-56886071D01*
X135590714Y-55314642D02*
X135233571Y-56386071D01*
X136162142Y-56386071D01*
X136733571Y-56743214D02*
X136805000Y-56814642D01*
X136733571Y-56886071D01*
X136662142Y-56814642D01*
X136733571Y-56743214D01*
X136733571Y-56886071D01*
X137376428Y-55528928D02*
X137447857Y-55457500D01*
X137590714Y-55386071D01*
X137947857Y-55386071D01*
X138090714Y-55457500D01*
X138162142Y-55528928D01*
X138233571Y-55671785D01*
X138233571Y-55814642D01*
X138162142Y-56028928D01*
X137305000Y-56886071D01*
X138233571Y-56886071D01*
X138662142Y-55386071D02*
X139162142Y-56886071D01*
X139662142Y-55386071D01*
X140019285Y-57457500D02*
X140090714Y-57386071D01*
X140233571Y-57171785D01*
X140305000Y-57028928D01*
X140376428Y-56814642D01*
X140447857Y-56457500D01*
X140447857Y-56171785D01*
X140376428Y-55814642D01*
X140305000Y-55600357D01*
X140233571Y-55457500D01*
X140090714Y-55243214D01*
X140019285Y-55171785D01*
X61052142Y-143685357D02*
X61266428Y-143756785D01*
X61337857Y-143828214D01*
X61409285Y-143971071D01*
X61409285Y-144185357D01*
X61337857Y-144328214D01*
X61266428Y-144399642D01*
X61123571Y-144471071D01*
X60552142Y-144471071D01*
X60552142Y-142971071D01*
X61052142Y-142971071D01*
X61195000Y-143042500D01*
X61266428Y-143113928D01*
X61337857Y-143256785D01*
X61337857Y-143399642D01*
X61266428Y-143542500D01*
X61195000Y-143613928D01*
X61052142Y-143685357D01*
X60552142Y-143685357D01*
X62052142Y-143899642D02*
X63195000Y-143899642D01*
X62623571Y-144471071D02*
X62623571Y-143328214D01*
X61337857Y-146886071D02*
X60480714Y-146886071D01*
X60909285Y-146886071D02*
X60909285Y-145386071D01*
X60766428Y-145600357D01*
X60623571Y-145743214D01*
X60480714Y-145814642D01*
X62766428Y-146886071D02*
X61909285Y-146886071D01*
X62337857Y-146886071D02*
X62337857Y-145386071D01*
X62195000Y-145600357D01*
X62052142Y-145743214D01*
X61909285Y-145814642D01*
X63409285Y-146743214D02*
X63480714Y-146814642D01*
X63409285Y-146886071D01*
X63337857Y-146814642D01*
X63409285Y-146743214D01*
X63409285Y-146886071D01*
X64909285Y-146886071D02*
X64052142Y-146886071D01*
X64480714Y-146886071D02*
X64480714Y-145386071D01*
X64337857Y-145600357D01*
X64195000Y-145743214D01*
X64052142Y-145814642D01*
X65337857Y-145386071D02*
X65837857Y-146886071D01*
X66337857Y-145386071D01*
X68409285Y-147457500D02*
X68337857Y-147386071D01*
X68195000Y-147171785D01*
X68123571Y-147028928D01*
X68052142Y-146814642D01*
X67980714Y-146457500D01*
X67980714Y-146171785D01*
X68052142Y-145814642D01*
X68123571Y-145600357D01*
X68195000Y-145457500D01*
X68337857Y-145243214D01*
X68409285Y-145171785D01*
X69766428Y-146886071D02*
X68909285Y-146886071D01*
X69337857Y-146886071D02*
X69337857Y-145386071D01*
X69195000Y-145600357D01*
X69052142Y-145743214D01*
X68909285Y-145814642D01*
X70337857Y-145528928D02*
X70409285Y-145457500D01*
X70552142Y-145386071D01*
X70909285Y-145386071D01*
X71052142Y-145457500D01*
X71123571Y-145528928D01*
X71195000Y-145671785D01*
X71195000Y-145814642D01*
X71123571Y-146028928D01*
X70266428Y-146886071D01*
X71195000Y-146886071D01*
X71837857Y-146743214D02*
X71909285Y-146814642D01*
X71837857Y-146886071D01*
X71766428Y-146814642D01*
X71837857Y-146743214D01*
X71837857Y-146886071D01*
X73195000Y-145886071D02*
X73195000Y-146886071D01*
X72837857Y-145314642D02*
X72480714Y-146386071D01*
X73409285Y-146386071D01*
X73766428Y-145386071D02*
X74266428Y-146886071D01*
X74766428Y-145386071D01*
X75123571Y-147457500D02*
X75195000Y-147386071D01*
X75337857Y-147171785D01*
X75409285Y-147028928D01*
X75480714Y-146814642D01*
X75552142Y-146457500D01*
X75552142Y-146171785D01*
X75480714Y-145814642D01*
X75409285Y-145600357D01*
X75337857Y-145457500D01*
X75195000Y-145243214D01*
X75123571Y-145171785D01*
X137305000Y-143685357D02*
X137519285Y-143756785D01*
X137590714Y-143828214D01*
X137662142Y-143971071D01*
X137662142Y-144185357D01*
X137590714Y-144328214D01*
X137519285Y-144399642D01*
X137376428Y-144471071D01*
X136805000Y-144471071D01*
X136805000Y-142971071D01*
X137305000Y-142971071D01*
X137447857Y-143042500D01*
X137519285Y-143113928D01*
X137590714Y-143256785D01*
X137590714Y-143399642D01*
X137519285Y-143542500D01*
X137447857Y-143613928D01*
X137305000Y-143685357D01*
X136805000Y-143685357D01*
X138305000Y-143899642D02*
X139447857Y-143899642D01*
X137733571Y-145386071D02*
X137876428Y-145386071D01*
X138019285Y-145457500D01*
X138090714Y-145528928D01*
X138162142Y-145671785D01*
X138233571Y-145957500D01*
X138233571Y-146314642D01*
X138162142Y-146600357D01*
X138090714Y-146743214D01*
X138019285Y-146814642D01*
X137876428Y-146886071D01*
X137733571Y-146886071D01*
X137590714Y-146814642D01*
X137519285Y-146743214D01*
X137447857Y-146600357D01*
X137376428Y-146314642D01*
X137376428Y-145957500D01*
X137447857Y-145671785D01*
X137519285Y-145528928D01*
X137590714Y-145457500D01*
X137733571Y-145386071D01*
X138662142Y-145386071D02*
X139162142Y-146886071D01*
X139662142Y-145386071D01*
D11*
X52294761Y-124428571D02*
X52294761Y-123190476D01*
X53056666Y-123857142D01*
X53056666Y-123571428D01*
X53151904Y-123380952D01*
X53247142Y-123285714D01*
X53437619Y-123190476D01*
X53913809Y-123190476D01*
X54104285Y-123285714D01*
X54199523Y-123380952D01*
X54294761Y-123571428D01*
X54294761Y-124142857D01*
X54199523Y-124333333D01*
X54104285Y-124428571D01*
X54199523Y-122428571D02*
X54294761Y-122238095D01*
X54294761Y-121857142D01*
X54199523Y-121666666D01*
X54009047Y-121571428D01*
X53913809Y-121571428D01*
X53723333Y-121666666D01*
X53628095Y-121857142D01*
X53628095Y-122142857D01*
X53532857Y-122333333D01*
X53342380Y-122428571D01*
X53247142Y-122428571D01*
X53056666Y-122333333D01*
X52961428Y-122142857D01*
X52961428Y-121857142D01*
X53056666Y-121666666D01*
X52485238Y-120809523D02*
X52390000Y-120714285D01*
X52294761Y-120523809D01*
X52294761Y-120047619D01*
X52390000Y-119857142D01*
X52485238Y-119761904D01*
X52675714Y-119666666D01*
X52866190Y-119666666D01*
X53151904Y-119761904D01*
X54294761Y-120904761D01*
X54294761Y-119666666D01*
X52961428Y-118809523D02*
X54961428Y-118809523D01*
X53056666Y-118809523D02*
X52961428Y-118619047D01*
X52961428Y-118238095D01*
X53056666Y-118047619D01*
X53151904Y-117952380D01*
X53342380Y-117857142D01*
X53913809Y-117857142D01*
X54104285Y-117952380D01*
X54199523Y-118047619D01*
X54294761Y-118238095D01*
X54294761Y-118619047D01*
X54199523Y-118809523D01*
X54294761Y-114428571D02*
X54294761Y-115571428D01*
X54294761Y-115000000D02*
X52294761Y-115000000D01*
X52580476Y-115190476D01*
X52770952Y-115380952D01*
X52866190Y-115571428D01*
X53151904Y-113285714D02*
X53056666Y-113476190D01*
X52961428Y-113571428D01*
X52770952Y-113666666D01*
X52675714Y-113666666D01*
X52485238Y-113571428D01*
X52390000Y-113476190D01*
X52294761Y-113285714D01*
X52294761Y-112904761D01*
X52390000Y-112714285D01*
X52485238Y-112619047D01*
X52675714Y-112523809D01*
X52770952Y-112523809D01*
X52961428Y-112619047D01*
X53056666Y-112714285D01*
X53151904Y-112904761D01*
X53151904Y-113285714D01*
X53247142Y-113476190D01*
X53342380Y-113571428D01*
X53532857Y-113666666D01*
X53913809Y-113666666D01*
X54104285Y-113571428D01*
X54199523Y-113476190D01*
X54294761Y-113285714D01*
X54294761Y-112904761D01*
X54199523Y-112714285D01*
X54104285Y-112619047D01*
X53913809Y-112523809D01*
X53532857Y-112523809D01*
X53342380Y-112619047D01*
X53247142Y-112714285D01*
X53151904Y-112904761D01*
X52294761Y-110809523D02*
X52294761Y-111190476D01*
X52390000Y-111380952D01*
X52485238Y-111476190D01*
X52770952Y-111666666D01*
X53151904Y-111761904D01*
X53913809Y-111761904D01*
X54104285Y-111666666D01*
X54199523Y-111571428D01*
X54294761Y-111380952D01*
X54294761Y-111000000D01*
X54199523Y-110809523D01*
X54104285Y-110714285D01*
X53913809Y-110619047D01*
X53437619Y-110619047D01*
X53247142Y-110714285D01*
X53151904Y-110809523D01*
X53056666Y-111000000D01*
X53056666Y-111380952D01*
X53151904Y-111571428D01*
X53247142Y-111666666D01*
X53437619Y-111761904D01*
X52294761Y-108809523D02*
X52294761Y-109761904D01*
X53247142Y-109857142D01*
X53151904Y-109761904D01*
X53056666Y-109571428D01*
X53056666Y-109095238D01*
X53151904Y-108904761D01*
X53247142Y-108809523D01*
X53437619Y-108714285D01*
X53913809Y-108714285D01*
X54104285Y-108809523D01*
X54199523Y-108904761D01*
X54294761Y-109095238D01*
X54294761Y-109571428D01*
X54199523Y-109761904D01*
X54104285Y-109857142D01*
X52294761Y-107476190D02*
X52294761Y-107285714D01*
X52390000Y-107095238D01*
X52485238Y-107000000D01*
X52675714Y-106904761D01*
X53056666Y-106809523D01*
X53532857Y-106809523D01*
X53913809Y-106904761D01*
X54104285Y-107000000D01*
X54199523Y-107095238D01*
X54294761Y-107285714D01*
X54294761Y-107476190D01*
X54199523Y-107666666D01*
X54104285Y-107761904D01*
X53913809Y-107857142D01*
X53532857Y-107952380D01*
X53056666Y-107952380D01*
X52675714Y-107857142D01*
X52485238Y-107761904D01*
X52390000Y-107666666D01*
X52294761Y-107476190D01*
X53247142Y-103761904D02*
X53342380Y-103476190D01*
X53437619Y-103380952D01*
X53628095Y-103285714D01*
X53913809Y-103285714D01*
X54104285Y-103380952D01*
X54199523Y-103476190D01*
X54294761Y-103666666D01*
X54294761Y-104428571D01*
X52294761Y-104428571D01*
X52294761Y-103761904D01*
X52390000Y-103571428D01*
X52485238Y-103476190D01*
X52675714Y-103380952D01*
X52866190Y-103380952D01*
X53056666Y-103476190D01*
X53151904Y-103571428D01*
X53247142Y-103761904D01*
X53247142Y-104428571D01*
X54294761Y-101571428D02*
X53247142Y-101571428D01*
X53056666Y-101666666D01*
X52961428Y-101857142D01*
X52961428Y-102238095D01*
X53056666Y-102428571D01*
X54199523Y-101571428D02*
X54294761Y-101761904D01*
X54294761Y-102238095D01*
X54199523Y-102428571D01*
X54009047Y-102523809D01*
X53818571Y-102523809D01*
X53628095Y-102428571D01*
X53532857Y-102238095D01*
X53532857Y-101761904D01*
X53437619Y-101571428D01*
X52961428Y-100904761D02*
X52961428Y-100142857D01*
X52294761Y-100619047D02*
X54009047Y-100619047D01*
X54199523Y-100523809D01*
X54294761Y-100333333D01*
X54294761Y-100142857D01*
X52961428Y-99761904D02*
X52961428Y-99000000D01*
X52294761Y-99476190D02*
X54009047Y-99476190D01*
X54199523Y-99380952D01*
X54294761Y-99190476D01*
X54294761Y-99000000D01*
X54199523Y-97571428D02*
X54294761Y-97761904D01*
X54294761Y-98142857D01*
X54199523Y-98333333D01*
X54009047Y-98428571D01*
X53247142Y-98428571D01*
X53056666Y-98333333D01*
X52961428Y-98142857D01*
X52961428Y-97761904D01*
X53056666Y-97571428D01*
X53247142Y-97476190D01*
X53437619Y-97476190D01*
X53628095Y-98428571D01*
X54294761Y-96619047D02*
X52961428Y-96619047D01*
X53342380Y-96619047D02*
X53151904Y-96523809D01*
X53056666Y-96428571D01*
X52961428Y-96238095D01*
X52961428Y-96047619D01*
X52961428Y-95571428D02*
X54294761Y-95095238D01*
X52961428Y-94619047D02*
X54294761Y-95095238D01*
X54770952Y-95285714D01*
X54866190Y-95380952D01*
X54961428Y-95571428D01*
X54294761Y-92333333D02*
X52294761Y-92333333D01*
X53247142Y-92333333D02*
X53247142Y-91190476D01*
X54294761Y-91190476D02*
X52294761Y-91190476D01*
X54294761Y-89952380D02*
X54199523Y-90142857D01*
X54104285Y-90238095D01*
X53913809Y-90333333D01*
X53342380Y-90333333D01*
X53151904Y-90238095D01*
X53056666Y-90142857D01*
X52961428Y-89952380D01*
X52961428Y-89666666D01*
X53056666Y-89476190D01*
X53151904Y-89380952D01*
X53342380Y-89285714D01*
X53913809Y-89285714D01*
X54104285Y-89380952D01*
X54199523Y-89476190D01*
X54294761Y-89666666D01*
X54294761Y-89952380D01*
X54294761Y-88142857D02*
X54199523Y-88333333D01*
X54009047Y-88428571D01*
X52294761Y-88428571D01*
X54294761Y-86523809D02*
X52294761Y-86523809D01*
X54199523Y-86523809D02*
X54294761Y-86714285D01*
X54294761Y-87095238D01*
X54199523Y-87285714D01*
X54104285Y-87380952D01*
X53913809Y-87476190D01*
X53342380Y-87476190D01*
X53151904Y-87380952D01*
X53056666Y-87285714D01*
X52961428Y-87095238D01*
X52961428Y-86714285D01*
X53056666Y-86523809D01*
X54199523Y-84809523D02*
X54294761Y-85000000D01*
X54294761Y-85380952D01*
X54199523Y-85571428D01*
X54009047Y-85666666D01*
X53247142Y-85666666D01*
X53056666Y-85571428D01*
X52961428Y-85380952D01*
X52961428Y-85000000D01*
X53056666Y-84809523D01*
X53247142Y-84714285D01*
X53437619Y-84714285D01*
X53628095Y-85666666D01*
X54294761Y-83857142D02*
X52961428Y-83857142D01*
X53342380Y-83857142D02*
X53151904Y-83761904D01*
X53056666Y-83666666D01*
X52961428Y-83476190D01*
X52961428Y-83285714D01*
X52961428Y-81285714D02*
X54294761Y-80809523D01*
X52961428Y-80333333D01*
X52485238Y-79666666D02*
X52390000Y-79571428D01*
X52294761Y-79380952D01*
X52294761Y-78904761D01*
X52390000Y-78714285D01*
X52485238Y-78619047D01*
X52675714Y-78523809D01*
X52866190Y-78523809D01*
X53151904Y-78619047D01*
X54294761Y-79761904D01*
X54294761Y-78523809D01*
X54104285Y-77666666D02*
X54199523Y-77571428D01*
X54294761Y-77666666D01*
X54199523Y-77761904D01*
X54104285Y-77666666D01*
X54294761Y-77666666D01*
X52294761Y-76333333D02*
X52294761Y-76142857D01*
X52390000Y-75952380D01*
X52485238Y-75857142D01*
X52675714Y-75761904D01*
X53056666Y-75666666D01*
X53532857Y-75666666D01*
X53913809Y-75761904D01*
X54104285Y-75857142D01*
X54199523Y-75952380D01*
X54294761Y-76142857D01*
X54294761Y-76333333D01*
X54199523Y-76523809D01*
X54104285Y-76619047D01*
X53913809Y-76714285D01*
X53532857Y-76809523D01*
X53056666Y-76809523D01*
X52675714Y-76714285D01*
X52485238Y-76619047D01*
X52390000Y-76523809D01*
X52294761Y-76333333D01*
X57514761Y-115809523D02*
X57514761Y-116952380D01*
X57514761Y-116380952D02*
X55514761Y-116380952D01*
X55800476Y-116571428D01*
X55990952Y-116761904D01*
X56086190Y-116952380D01*
X57514761Y-113904761D02*
X57514761Y-115047619D01*
X57514761Y-114476190D02*
X55514761Y-114476190D01*
X55800476Y-114666666D01*
X55990952Y-114857142D01*
X56086190Y-115047619D01*
X57324285Y-113047619D02*
X57419523Y-112952380D01*
X57514761Y-113047619D01*
X57419523Y-113142857D01*
X57324285Y-113047619D01*
X57514761Y-113047619D01*
X57514761Y-111047619D02*
X57514761Y-112190476D01*
X57514761Y-111619047D02*
X55514761Y-111619047D01*
X55800476Y-111809523D01*
X55990952Y-112000000D01*
X56086190Y-112190476D01*
X55514761Y-110476190D02*
X57514761Y-109809523D01*
X55514761Y-109142857D01*
X58276666Y-106380952D02*
X58181428Y-106476190D01*
X57895714Y-106666666D01*
X57705238Y-106761904D01*
X57419523Y-106857142D01*
X56943333Y-106952380D01*
X56562380Y-106952380D01*
X56086190Y-106857142D01*
X55800476Y-106761904D01*
X55610000Y-106666666D01*
X55324285Y-106476190D01*
X55229047Y-106380952D01*
X57514761Y-104571428D02*
X57514761Y-105714285D01*
X57514761Y-105142857D02*
X55514761Y-105142857D01*
X55800476Y-105333333D01*
X55990952Y-105523809D01*
X56086190Y-105714285D01*
X55705238Y-103809523D02*
X55610000Y-103714285D01*
X55514761Y-103523809D01*
X55514761Y-103047619D01*
X55610000Y-102857142D01*
X55705238Y-102761904D01*
X55895714Y-102666666D01*
X56086190Y-102666666D01*
X56371904Y-102761904D01*
X57514761Y-103904761D01*
X57514761Y-102666666D01*
X57324285Y-101809523D02*
X57419523Y-101714285D01*
X57514761Y-101809523D01*
X57419523Y-101904761D01*
X57324285Y-101809523D01*
X57514761Y-101809523D01*
X56181428Y-100000000D02*
X57514761Y-100000000D01*
X55419523Y-100476190D02*
X56848095Y-100952380D01*
X56848095Y-99714285D01*
X55514761Y-99238095D02*
X57514761Y-98571428D01*
X55514761Y-97904761D01*
X57514761Y-95714285D02*
X55514761Y-95714285D01*
X57514761Y-94571428D01*
X55514761Y-94571428D01*
X57514761Y-93333333D02*
X57419523Y-93523809D01*
X57324285Y-93619047D01*
X57133809Y-93714285D01*
X56562380Y-93714285D01*
X56371904Y-93619047D01*
X56276666Y-93523809D01*
X56181428Y-93333333D01*
X56181428Y-93047619D01*
X56276666Y-92857142D01*
X56371904Y-92761904D01*
X56562380Y-92666666D01*
X57133809Y-92666666D01*
X57324285Y-92761904D01*
X57419523Y-92857142D01*
X57514761Y-93047619D01*
X57514761Y-93333333D01*
X57514761Y-91809523D02*
X56181428Y-91809523D01*
X56371904Y-91809523D02*
X56276666Y-91714285D01*
X56181428Y-91523809D01*
X56181428Y-91238095D01*
X56276666Y-91047619D01*
X56467142Y-90952380D01*
X57514761Y-90952380D01*
X56467142Y-90952380D02*
X56276666Y-90857142D01*
X56181428Y-90666666D01*
X56181428Y-90380952D01*
X56276666Y-90190476D01*
X56467142Y-90095238D01*
X57514761Y-90095238D01*
X57514761Y-89142857D02*
X56181428Y-89142857D01*
X55514761Y-89142857D02*
X55610000Y-89238095D01*
X55705238Y-89142857D01*
X55610000Y-89047619D01*
X55514761Y-89142857D01*
X55705238Y-89142857D01*
X56181428Y-88190476D02*
X57514761Y-88190476D01*
X56371904Y-88190476D02*
X56276666Y-88095238D01*
X56181428Y-87904761D01*
X56181428Y-87619047D01*
X56276666Y-87428571D01*
X56467142Y-87333333D01*
X57514761Y-87333333D01*
X57514761Y-85523809D02*
X56467142Y-85523809D01*
X56276666Y-85619047D01*
X56181428Y-85809523D01*
X56181428Y-86190476D01*
X56276666Y-86380952D01*
X57419523Y-85523809D02*
X57514761Y-85714285D01*
X57514761Y-86190476D01*
X57419523Y-86380952D01*
X57229047Y-86476190D01*
X57038571Y-86476190D01*
X56848095Y-86380952D01*
X56752857Y-86190476D01*
X56752857Y-85714285D01*
X56657619Y-85523809D01*
X57514761Y-84285714D02*
X57419523Y-84476190D01*
X57229047Y-84571428D01*
X55514761Y-84571428D01*
X58276666Y-83714285D02*
X58181428Y-83619047D01*
X57895714Y-83428571D01*
X57705238Y-83333333D01*
X57419523Y-83238095D01*
X56943333Y-83142857D01*
X56562380Y-83142857D01*
X56086190Y-83238095D01*
X55800476Y-83333333D01*
X55610000Y-83428571D01*
X55324285Y-83619047D01*
X55229047Y-83714285D01*
D10*
X61052142Y-53685357D02*
X61266428Y-53756785D01*
X61337857Y-53828214D01*
X61409285Y-53971071D01*
X61409285Y-54185357D01*
X61337857Y-54328214D01*
X61266428Y-54399642D01*
X61123571Y-54471071D01*
X60552142Y-54471071D01*
X60552142Y-52971071D01*
X61052142Y-52971071D01*
X61195000Y-53042500D01*
X61266428Y-53113928D01*
X61337857Y-53256785D01*
X61337857Y-53399642D01*
X61266428Y-53542500D01*
X61195000Y-53613928D01*
X61052142Y-53685357D01*
X60552142Y-53685357D01*
X61980714Y-53113928D02*
X62052142Y-53042500D01*
X62195000Y-52971071D01*
X62552142Y-52971071D01*
X62695000Y-53042500D01*
X62766428Y-53113928D01*
X62837857Y-53256785D01*
X62837857Y-53399642D01*
X62766428Y-53613928D01*
X61909285Y-54471071D01*
X62837857Y-54471071D01*
X60409285Y-55386071D02*
X61409285Y-55386071D01*
X60766428Y-56886071D01*
X61980714Y-56743214D02*
X62052142Y-56814642D01*
X61980714Y-56886071D01*
X61909285Y-56814642D01*
X61980714Y-56743214D01*
X61980714Y-56886071D01*
X63337857Y-55886071D02*
X63337857Y-56886071D01*
X62980714Y-55314642D02*
X62623571Y-56386071D01*
X63552142Y-56386071D01*
X63909285Y-55386071D02*
X64409285Y-56886071D01*
X64909285Y-55386071D01*
X66980714Y-57457500D02*
X66909285Y-57386071D01*
X66766428Y-57171785D01*
X66695000Y-57028928D01*
X66623571Y-56814642D01*
X66552142Y-56457500D01*
X66552142Y-56171785D01*
X66623571Y-55814642D01*
X66695000Y-55600357D01*
X66766428Y-55457500D01*
X66909285Y-55243214D01*
X66980714Y-55171785D01*
X67766428Y-56028928D02*
X67623571Y-55957500D01*
X67552142Y-55886071D01*
X67480714Y-55743214D01*
X67480714Y-55671785D01*
X67552142Y-55528928D01*
X67623571Y-55457500D01*
X67766428Y-55386071D01*
X68052142Y-55386071D01*
X68195000Y-55457500D01*
X68266428Y-55528928D01*
X68337857Y-55671785D01*
X68337857Y-55743214D01*
X68266428Y-55886071D01*
X68195000Y-55957500D01*
X68052142Y-56028928D01*
X67766428Y-56028928D01*
X67623571Y-56100357D01*
X67552142Y-56171785D01*
X67480714Y-56314642D01*
X67480714Y-56600357D01*
X67552142Y-56743214D01*
X67623571Y-56814642D01*
X67766428Y-56886071D01*
X68052142Y-56886071D01*
X68195000Y-56814642D01*
X68266428Y-56743214D01*
X68337857Y-56600357D01*
X68337857Y-56314642D01*
X68266428Y-56171785D01*
X68195000Y-56100357D01*
X68052142Y-56028928D01*
X68980714Y-56743214D02*
X69052142Y-56814642D01*
X68980714Y-56886071D01*
X68909285Y-56814642D01*
X68980714Y-56743214D01*
X68980714Y-56886071D01*
X70337857Y-55886071D02*
X70337857Y-56886071D01*
X69980714Y-55314642D02*
X69623571Y-56386071D01*
X70552142Y-56386071D01*
X70909285Y-55386071D02*
X71409285Y-56886071D01*
X71909285Y-55386071D01*
X72266428Y-57457500D02*
X72337857Y-57386071D01*
X72480714Y-57171785D01*
X72552142Y-57028928D01*
X72623571Y-56814642D01*
X72695000Y-56457500D01*
X72695000Y-56171785D01*
X72623571Y-55814642D01*
X72552142Y-55600357D01*
X72480714Y-55457500D01*
X72337857Y-55243214D01*
X72266428Y-55171785D01*
X145678571Y-115784866D02*
X144178571Y-115597366D01*
X144178571Y-115240223D01*
X144250000Y-115034866D01*
X144392857Y-114909866D01*
X144535714Y-114856294D01*
X144821428Y-114820580D01*
X145035714Y-114847366D01*
X145321428Y-114954508D01*
X145464285Y-115043794D01*
X145607142Y-115204508D01*
X145678571Y-115427723D01*
X145678571Y-115784866D01*
X145678571Y-114070580D02*
X145607142Y-114204508D01*
X145535714Y-114267008D01*
X145392857Y-114320580D01*
X144964285Y-114267008D01*
X144821428Y-114177723D01*
X144750000Y-114097366D01*
X144678571Y-113945580D01*
X144678571Y-113731294D01*
X144750000Y-113597366D01*
X144821428Y-113534866D01*
X144964285Y-113481294D01*
X145392857Y-113534866D01*
X145535714Y-113624151D01*
X145607142Y-113704508D01*
X145678571Y-113856294D01*
X145678571Y-114070580D01*
X145678571Y-112927723D02*
X144678571Y-112802723D01*
X144178571Y-112740223D02*
X144250000Y-112820580D01*
X144321428Y-112758080D01*
X144250000Y-112677723D01*
X144178571Y-112740223D01*
X144321428Y-112758080D01*
X144678571Y-112088437D02*
X145678571Y-112213437D01*
X144821428Y-112106294D02*
X144750000Y-112025937D01*
X144678571Y-111874151D01*
X144678571Y-111659866D01*
X144750000Y-111525937D01*
X144892857Y-111472366D01*
X145678571Y-111570580D01*
X144678571Y-110088437D02*
X145892857Y-110240223D01*
X146035714Y-110329508D01*
X146107142Y-110409866D01*
X146178571Y-110561651D01*
X146178571Y-110775937D01*
X146107142Y-110909866D01*
X145607142Y-110204508D02*
X145678571Y-110356294D01*
X145678571Y-110642008D01*
X145607142Y-110775937D01*
X145535714Y-110838437D01*
X145392857Y-110892008D01*
X144964285Y-110838437D01*
X144821428Y-110749151D01*
X144750000Y-110668794D01*
X144678571Y-110517008D01*
X144678571Y-110231294D01*
X144750000Y-110097366D01*
X145678571Y-109499151D02*
X144178571Y-109311651D01*
X144678571Y-108874151D02*
X144678571Y-108302723D01*
X144178571Y-108597366D02*
X145464285Y-108758080D01*
X145607142Y-108704508D01*
X145678571Y-108570580D01*
X145678571Y-108427723D01*
X144678571Y-107159866D02*
X145678571Y-107284866D01*
X144107142Y-107445580D02*
X145178571Y-107936651D01*
X145178571Y-107008080D01*
X145607142Y-106561651D02*
X145678571Y-106356294D01*
X145678571Y-105999151D01*
X145607142Y-105847366D01*
X145535714Y-105767008D01*
X145392857Y-105677723D01*
X145250000Y-105659866D01*
X145107142Y-105713437D01*
X145035714Y-105775937D01*
X144964285Y-105909866D01*
X144892857Y-106186651D01*
X144821428Y-106320580D01*
X144750000Y-106383080D01*
X144607142Y-106436651D01*
X144464285Y-106418794D01*
X144321428Y-106329508D01*
X144250000Y-106249151D01*
X144178571Y-106097366D01*
X144178571Y-105740223D01*
X144250000Y-105534866D01*
X145607142Y-104418794D02*
X145678571Y-104570580D01*
X145678571Y-104856294D01*
X145607142Y-104990223D01*
X145535714Y-105052723D01*
X145392857Y-105106294D01*
X144964285Y-105052723D01*
X144821428Y-104963437D01*
X144750000Y-104883080D01*
X144678571Y-104731294D01*
X144678571Y-104445580D01*
X144750000Y-104311651D01*
X145678571Y-103784866D02*
X144678571Y-103659866D01*
X144178571Y-103597366D02*
X144250000Y-103677723D01*
X144321428Y-103615223D01*
X144250000Y-103534866D01*
X144178571Y-103597366D01*
X144321428Y-103615223D01*
X145607142Y-102490223D02*
X145678571Y-102642008D01*
X145678571Y-102927723D01*
X145607142Y-103061651D01*
X145464285Y-103115223D01*
X144892857Y-103043794D01*
X144750000Y-102954508D01*
X144678571Y-102802723D01*
X144678571Y-102517008D01*
X144750000Y-102383080D01*
X144892857Y-102329508D01*
X145035714Y-102347366D01*
X145178571Y-103079508D01*
X144678571Y-101659866D02*
X145678571Y-101784866D01*
X144821428Y-101677723D02*
X144750000Y-101597366D01*
X144678571Y-101445580D01*
X144678571Y-101231294D01*
X144750000Y-101097366D01*
X144892857Y-101043794D01*
X145678571Y-101142008D01*
X145607142Y-99775937D02*
X145678571Y-99927723D01*
X145678571Y-100213437D01*
X145607142Y-100347366D01*
X145535714Y-100409866D01*
X145392857Y-100463437D01*
X144964285Y-100409866D01*
X144821428Y-100320580D01*
X144750000Y-100240223D01*
X144678571Y-100088437D01*
X144678571Y-99802723D01*
X144750000Y-99668794D01*
X145607142Y-98561651D02*
X145678571Y-98713437D01*
X145678571Y-98999151D01*
X145607142Y-99133080D01*
X145464285Y-99186651D01*
X144892857Y-99115223D01*
X144750000Y-99025937D01*
X144678571Y-98874151D01*
X144678571Y-98588437D01*
X144750000Y-98454508D01*
X144892857Y-98400937D01*
X145035714Y-98418794D01*
X145178571Y-99150937D01*
X145678571Y-96713437D02*
X144178571Y-96525937D01*
X144678571Y-95874151D02*
X145678571Y-95999151D01*
X144821428Y-95892008D02*
X144750000Y-95811651D01*
X144678571Y-95659866D01*
X144678571Y-95445580D01*
X144750000Y-95311651D01*
X144892857Y-95258080D01*
X145678571Y-95356294D01*
X145678571Y-93999151D02*
X144178571Y-93811651D01*
X145607142Y-93990223D02*
X145678571Y-94142008D01*
X145678571Y-94427723D01*
X145607142Y-94561651D01*
X145535714Y-94624151D01*
X145392857Y-94677723D01*
X144964285Y-94624151D01*
X144821428Y-94534866D01*
X144750000Y-94454508D01*
X144678571Y-94302723D01*
X144678571Y-94017008D01*
X144750000Y-93883080D01*
X144678571Y-92517008D02*
X145678571Y-92642008D01*
X144678571Y-93159866D02*
X145464285Y-93258080D01*
X145607142Y-93204508D01*
X145678571Y-93070580D01*
X145678571Y-92856294D01*
X145607142Y-92704508D01*
X145535714Y-92624151D01*
X145607142Y-91990223D02*
X145678571Y-91856294D01*
X145678571Y-91570580D01*
X145607142Y-91418794D01*
X145464285Y-91329508D01*
X145392857Y-91320580D01*
X145250000Y-91374151D01*
X145178571Y-91508080D01*
X145178571Y-91722366D01*
X145107142Y-91856294D01*
X144964285Y-91909866D01*
X144892857Y-91900937D01*
X144750000Y-91811651D01*
X144678571Y-91659866D01*
X144678571Y-91445580D01*
X144750000Y-91311651D01*
X144678571Y-90802723D02*
X144678571Y-90231294D01*
X144178571Y-90525937D02*
X145464285Y-90686651D01*
X145607142Y-90633080D01*
X145678571Y-90499151D01*
X145678571Y-90356294D01*
X145678571Y-89856294D02*
X144678571Y-89731294D01*
X144964285Y-89767008D02*
X144821428Y-89677723D01*
X144750000Y-89597366D01*
X144678571Y-89445580D01*
X144678571Y-89302723D01*
X145678571Y-88927723D02*
X144678571Y-88802723D01*
X144178571Y-88740223D02*
X144250000Y-88820580D01*
X144321428Y-88758080D01*
X144250000Y-88677723D01*
X144178571Y-88740223D01*
X144321428Y-88758080D01*
X145607142Y-87633080D02*
X145678571Y-87784866D01*
X145678571Y-88070580D01*
X145607142Y-88204508D01*
X145464285Y-88258080D01*
X144892857Y-88186651D01*
X144750000Y-88097366D01*
X144678571Y-87945580D01*
X144678571Y-87659866D01*
X144750000Y-87525937D01*
X144892857Y-87472366D01*
X145035714Y-87490223D01*
X145178571Y-88222366D01*
X145607142Y-86990223D02*
X145678571Y-86856294D01*
X145678571Y-86570580D01*
X145607142Y-86418794D01*
X145464285Y-86329508D01*
X145392857Y-86320580D01*
X145250000Y-86374151D01*
X145178571Y-86508080D01*
X145178571Y-86722366D01*
X145107142Y-86856294D01*
X144964285Y-86909866D01*
X144892857Y-86900937D01*
X144750000Y-86811651D01*
X144678571Y-86659866D01*
X144678571Y-86445580D01*
X144750000Y-86311651D01*
D11*
%TO.C,H4*%
X144238095Y-140452380D02*
X144238095Y-139452380D01*
X144238095Y-139928571D02*
X144809523Y-139928571D01*
X144809523Y-140452380D02*
X144809523Y-139452380D01*
X145714285Y-139785714D02*
X145714285Y-140452380D01*
X145476190Y-139404761D02*
X145238095Y-140119047D01*
X145857142Y-140119047D01*
%TO.C,H3*%
X144238095Y-50452380D02*
X144238095Y-49452380D01*
X144238095Y-49928571D02*
X144809523Y-49928571D01*
X144809523Y-50452380D02*
X144809523Y-49452380D01*
X145190476Y-49452380D02*
X145809523Y-49452380D01*
X145476190Y-49833333D01*
X145619047Y-49833333D01*
X145714285Y-49880952D01*
X145761904Y-49928571D01*
X145809523Y-50023809D01*
X145809523Y-50261904D01*
X145761904Y-50357142D01*
X145714285Y-50404761D01*
X145619047Y-50452380D01*
X145333333Y-50452380D01*
X145238095Y-50404761D01*
X145190476Y-50357142D01*
%TO.C,H2*%
X54238095Y-50452380D02*
X54238095Y-49452380D01*
X54238095Y-49928571D02*
X54809523Y-49928571D01*
X54809523Y-50452380D02*
X54809523Y-49452380D01*
X55238095Y-49547619D02*
X55285714Y-49500000D01*
X55380952Y-49452380D01*
X55619047Y-49452380D01*
X55714285Y-49500000D01*
X55761904Y-49547619D01*
X55809523Y-49642857D01*
X55809523Y-49738095D01*
X55761904Y-49880952D01*
X55190476Y-50452380D01*
X55809523Y-50452380D01*
%TO.C,H1*%
X54238095Y-140452380D02*
X54238095Y-139452380D01*
X54238095Y-139928571D02*
X54809523Y-139928571D01*
X54809523Y-140452380D02*
X54809523Y-139452380D01*
X55809523Y-140452380D02*
X55238095Y-140452380D01*
X55523809Y-140452380D02*
X55523809Y-139452380D01*
X55428571Y-139595238D01*
X55333333Y-139690476D01*
X55238095Y-139738095D01*
%TO.C,BT2*%
X88048571Y-97305714D02*
X88096190Y-97162857D01*
X88143809Y-97115238D01*
X88239047Y-97067619D01*
X88381904Y-97067619D01*
X88477142Y-97115238D01*
X88524761Y-97162857D01*
X88572380Y-97258095D01*
X88572380Y-97639047D01*
X87572380Y-97639047D01*
X87572380Y-97305714D01*
X87620000Y-97210476D01*
X87667619Y-97162857D01*
X87762857Y-97115238D01*
X87858095Y-97115238D01*
X87953333Y-97162857D01*
X88000952Y-97210476D01*
X88048571Y-97305714D01*
X88048571Y-97639047D01*
X87572380Y-96781904D02*
X87572380Y-96210476D01*
X88572380Y-96496190D02*
X87572380Y-96496190D01*
X87667619Y-95924761D02*
X87620000Y-95877142D01*
X87572380Y-95781904D01*
X87572380Y-95543809D01*
X87620000Y-95448571D01*
X87667619Y-95400952D01*
X87762857Y-95353333D01*
X87858095Y-95353333D01*
X88000952Y-95400952D01*
X88572380Y-95972380D01*
X88572380Y-95353333D01*
%TO.C,BT3*%
X108928571Y-97305714D02*
X108976190Y-97162857D01*
X109023809Y-97115238D01*
X109119047Y-97067619D01*
X109261904Y-97067619D01*
X109357142Y-97115238D01*
X109404761Y-97162857D01*
X109452380Y-97258095D01*
X109452380Y-97639047D01*
X108452380Y-97639047D01*
X108452380Y-97305714D01*
X108500000Y-97210476D01*
X108547619Y-97162857D01*
X108642857Y-97115238D01*
X108738095Y-97115238D01*
X108833333Y-97162857D01*
X108880952Y-97210476D01*
X108928571Y-97305714D01*
X108928571Y-97639047D01*
X108452380Y-96781904D02*
X108452380Y-96210476D01*
X109452380Y-96496190D02*
X108452380Y-96496190D01*
X108452380Y-95972380D02*
X108452380Y-95353333D01*
X108833333Y-95686666D01*
X108833333Y-95543809D01*
X108880952Y-95448571D01*
X108928571Y-95400952D01*
X109023809Y-95353333D01*
X109261904Y-95353333D01*
X109357142Y-95400952D01*
X109404761Y-95448571D01*
X109452380Y-95543809D01*
X109452380Y-95829523D01*
X109404761Y-95924761D01*
X109357142Y-95972380D01*
%TO.C,BT1*%
X67168571Y-97305714D02*
X67216190Y-97162857D01*
X67263809Y-97115238D01*
X67359047Y-97067619D01*
X67501904Y-97067619D01*
X67597142Y-97115238D01*
X67644761Y-97162857D01*
X67692380Y-97258095D01*
X67692380Y-97639047D01*
X66692380Y-97639047D01*
X66692380Y-97305714D01*
X66740000Y-97210476D01*
X66787619Y-97162857D01*
X66882857Y-97115238D01*
X66978095Y-97115238D01*
X67073333Y-97162857D01*
X67120952Y-97210476D01*
X67168571Y-97305714D01*
X67168571Y-97639047D01*
X66692380Y-96781904D02*
X66692380Y-96210476D01*
X67692380Y-96496190D02*
X66692380Y-96496190D01*
X67692380Y-95353333D02*
X67692380Y-95924761D01*
X67692380Y-95639047D02*
X66692380Y-95639047D01*
X66835238Y-95734285D01*
X66930476Y-95829523D01*
X66978095Y-95924761D01*
%TO.C,F2*%
X52278571Y-65333333D02*
X52278571Y-65666666D01*
X52802380Y-65666666D02*
X51802380Y-65666666D01*
X51802380Y-65190476D01*
X51897619Y-64857142D02*
X51850000Y-64809523D01*
X51802380Y-64714285D01*
X51802380Y-64476190D01*
X51850000Y-64380952D01*
X51897619Y-64333333D01*
X51992857Y-64285714D01*
X52088095Y-64285714D01*
X52230952Y-64333333D01*
X52802380Y-64904761D01*
X52802380Y-64285714D01*
X57102380Y-65190476D02*
X57102380Y-65666666D01*
X57578571Y-65714285D01*
X57530952Y-65666666D01*
X57483333Y-65571428D01*
X57483333Y-65333333D01*
X57530952Y-65238095D01*
X57578571Y-65190476D01*
X57673809Y-65142857D01*
X57911904Y-65142857D01*
X58007142Y-65190476D01*
X58054761Y-65238095D01*
X58102380Y-65333333D01*
X58102380Y-65571428D01*
X58054761Y-65666666D01*
X58007142Y-65714285D01*
X57816666Y-64761904D02*
X57816666Y-64285714D01*
X58102380Y-64857142D02*
X57102380Y-64523809D01*
X58102380Y-64190476D01*
D12*
%TO.C,BT2*%
X96180000Y-135160000D02*
X96180000Y-139520000D01*
X96180000Y-57880000D02*
X89200000Y-57880000D01*
X93620000Y-140270000D02*
X93620000Y-137770000D01*
X89180000Y-135160000D02*
X96180000Y-135160000D01*
X94870000Y-139020000D02*
X92370000Y-139020000D01*
X103060000Y-57880000D02*
X110060000Y-57880000D01*
X110060000Y-135160000D02*
X103060000Y-135160000D01*
X93620000Y-52770000D02*
X93620000Y-55270000D01*
X89180000Y-57880000D02*
X89180000Y-135160000D01*
X110060000Y-57880000D02*
X110060000Y-135160000D01*
%TO.C,BT3*%
X110060000Y-135160000D02*
X117060000Y-135160000D01*
X117060000Y-135160000D02*
X117060000Y-139520000D01*
X123940000Y-57880000D02*
X130940000Y-57880000D01*
X117060000Y-57880000D02*
X110080000Y-57880000D01*
X114500000Y-52770000D02*
X114500000Y-55270000D01*
X114500000Y-140270000D02*
X114500000Y-137770000D01*
X130940000Y-135160000D02*
X123940000Y-135160000D01*
X115750000Y-139020000D02*
X113250000Y-139020000D01*
X130940000Y-57880000D02*
X130940000Y-135160000D01*
X110060000Y-57880000D02*
X110060000Y-135160000D01*
%TO.C,BT1*%
X82180000Y-57880000D02*
X89180000Y-57880000D01*
X72740000Y-140270000D02*
X72740000Y-137770000D01*
X75300000Y-135160000D02*
X75300000Y-139520000D01*
X73990000Y-139020000D02*
X71490000Y-139020000D01*
X89180000Y-135160000D02*
X82180000Y-135160000D01*
X68300000Y-135160000D02*
X75300000Y-135160000D01*
X89180000Y-57880000D02*
X89180000Y-135160000D01*
X68300000Y-57880000D02*
X68300000Y-135160000D01*
X75300000Y-57880000D02*
X68320000Y-57880000D01*
X72740000Y-52770000D02*
X72740000Y-55270000D01*
%TO.C,F2*%
X53290000Y-66386252D02*
X53290000Y-63613748D01*
X56710000Y-66386252D02*
X56710000Y-63613748D01*
%TD*%
M02*
