%TF.GenerationSoftware,KiCad,Pcbnew,(6.0.7)*%
%TF.CreationDate,2022-10-24T21:40:08-07:00*%
%TF.ProjectId,18650_3s2p,31383635-305f-4337-9332-702e6b696361,2.0*%
%TF.SameCoordinates,Original*%
%TF.FileFunction,Drillmap*%
%TF.FilePolarity,Positive*%
%FSLAX45Y45*%
G04 Gerber Fmt 4.5, Leading zero omitted, Abs format (unit mm)*
G04 Created by KiCad (PCBNEW (6.0.7)) date 2022-10-24 21:40:08*
%MOMM*%
%LPD*%
G01*
G04 APERTURE LIST*
%ADD10C,0.200000*%
%ADD11C,0.239000*%
%ADD12C,0.345000*%
G04 APERTURE END LIST*
D10*
X5000000Y-5000000D02*
X15000000Y-5000000D01*
X15000000Y-5000000D02*
X15000000Y-15000000D01*
X15000000Y-15000000D02*
X5000000Y-15000000D01*
X5000000Y-15000000D02*
X5000000Y-5000000D01*
D11*
X6954500Y-13125500D02*
X7193500Y-13364500D01*
X7193500Y-13125500D02*
X6954500Y-13364500D01*
X6974500Y-5939500D02*
X7213500Y-6178500D01*
X7213500Y-5939500D02*
X6974500Y-6178500D01*
X9042500Y-13125500D02*
X9281500Y-13364500D01*
X9281500Y-13125500D02*
X9042500Y-13364500D01*
X9062500Y-5939500D02*
X9301500Y-6178500D01*
X9301500Y-5939500D02*
X9062500Y-6178500D01*
X11130500Y-13125500D02*
X11369500Y-13364500D01*
X11369500Y-13125500D02*
X11130500Y-13364500D01*
X11150500Y-5939500D02*
X11389500Y-6178500D01*
X11389500Y-5939500D02*
X11150500Y-6178500D01*
D12*
X7246500Y-6892000D02*
G75*
G03*
X7246500Y-6892000I-172500J0D01*
G01*
X7266500Y-12412000D02*
G75*
G03*
X7266500Y-12412000I-172500J0D01*
G01*
X8846500Y-12412000D02*
G75*
G03*
X8846500Y-12412000I-172500J0D01*
G01*
X8866500Y-6892000D02*
G75*
G03*
X8866500Y-6892000I-172500J0D01*
G01*
X9334500Y-6892000D02*
G75*
G03*
X9334500Y-6892000I-172500J0D01*
G01*
X9354500Y-12412000D02*
G75*
G03*
X9354500Y-12412000I-172500J0D01*
G01*
X10934500Y-12412000D02*
G75*
G03*
X10934500Y-12412000I-172500J0D01*
G01*
X10954500Y-6892000D02*
G75*
G03*
X10954500Y-6892000I-172500J0D01*
G01*
X11422500Y-6892000D02*
G75*
G03*
X11422500Y-6892000I-172500J0D01*
G01*
X11442500Y-12412000D02*
G75*
G03*
X11442500Y-12412000I-172500J0D01*
G01*
X13022500Y-12412000D02*
G75*
G03*
X13022500Y-12412000I-172500J0D01*
G01*
X13042500Y-6892000D02*
G75*
G03*
X13042500Y-6892000I-172500J0D01*
G01*
D10*
X5247619Y-15320476D02*
X5247619Y-15120476D01*
X5295238Y-15120476D01*
X5323810Y-15130000D01*
X5342857Y-15149048D01*
X5352381Y-15168095D01*
X5361905Y-15206190D01*
X5361905Y-15234762D01*
X5352381Y-15272857D01*
X5342857Y-15291905D01*
X5323810Y-15310952D01*
X5295238Y-15320476D01*
X5247619Y-15320476D01*
X5447619Y-15320476D02*
X5447619Y-15187143D01*
X5447619Y-15225238D02*
X5457143Y-15206190D01*
X5466667Y-15196667D01*
X5485714Y-15187143D01*
X5504762Y-15187143D01*
X5571429Y-15320476D02*
X5571429Y-15187143D01*
X5571429Y-15120476D02*
X5561905Y-15130000D01*
X5571429Y-15139524D01*
X5580952Y-15130000D01*
X5571429Y-15120476D01*
X5571429Y-15139524D01*
X5695238Y-15320476D02*
X5676190Y-15310952D01*
X5666667Y-15291905D01*
X5666667Y-15120476D01*
X5800000Y-15320476D02*
X5780952Y-15310952D01*
X5771428Y-15291905D01*
X5771428Y-15120476D01*
X6028571Y-15320476D02*
X6028571Y-15120476D01*
X6095238Y-15263333D01*
X6161905Y-15120476D01*
X6161905Y-15320476D01*
X6342857Y-15320476D02*
X6342857Y-15215714D01*
X6333333Y-15196667D01*
X6314286Y-15187143D01*
X6276190Y-15187143D01*
X6257143Y-15196667D01*
X6342857Y-15310952D02*
X6323809Y-15320476D01*
X6276190Y-15320476D01*
X6257143Y-15310952D01*
X6247619Y-15291905D01*
X6247619Y-15272857D01*
X6257143Y-15253809D01*
X6276190Y-15244286D01*
X6323809Y-15244286D01*
X6342857Y-15234762D01*
X6438095Y-15187143D02*
X6438095Y-15387143D01*
X6438095Y-15196667D02*
X6457143Y-15187143D01*
X6495238Y-15187143D01*
X6514286Y-15196667D01*
X6523809Y-15206190D01*
X6533333Y-15225238D01*
X6533333Y-15282381D01*
X6523809Y-15301428D01*
X6514286Y-15310952D01*
X6495238Y-15320476D01*
X6457143Y-15320476D01*
X6438095Y-15310952D01*
X6619048Y-15301428D02*
X6628571Y-15310952D01*
X6619048Y-15320476D01*
X6609524Y-15310952D01*
X6619048Y-15301428D01*
X6619048Y-15320476D01*
X6619048Y-15196667D02*
X6628571Y-15206190D01*
X6619048Y-15215714D01*
X6609524Y-15206190D01*
X6619048Y-15196667D01*
X6619048Y-15215714D01*
X4790000Y-15550000D02*
X4990000Y-15750000D01*
X4990000Y-15550000D02*
X4790000Y-15750000D01*
X5238095Y-15559524D02*
X5247619Y-15550000D01*
X5266667Y-15540476D01*
X5314286Y-15540476D01*
X5333333Y-15550000D01*
X5342857Y-15559524D01*
X5352381Y-15578571D01*
X5352381Y-15597619D01*
X5342857Y-15626190D01*
X5228571Y-15740476D01*
X5352381Y-15740476D01*
X5438095Y-15721428D02*
X5447619Y-15730952D01*
X5438095Y-15740476D01*
X5428571Y-15730952D01*
X5438095Y-15721428D01*
X5438095Y-15740476D01*
X5514286Y-15540476D02*
X5638095Y-15540476D01*
X5571429Y-15616667D01*
X5600000Y-15616667D01*
X5619048Y-15626190D01*
X5628571Y-15635714D01*
X5638095Y-15654762D01*
X5638095Y-15702381D01*
X5628571Y-15721428D01*
X5619048Y-15730952D01*
X5600000Y-15740476D01*
X5542857Y-15740476D01*
X5523810Y-15730952D01*
X5514286Y-15721428D01*
X5733333Y-15740476D02*
X5771428Y-15740476D01*
X5790476Y-15730952D01*
X5800000Y-15721428D01*
X5819048Y-15692857D01*
X5828571Y-15654762D01*
X5828571Y-15578571D01*
X5819048Y-15559524D01*
X5809524Y-15550000D01*
X5790476Y-15540476D01*
X5752381Y-15540476D01*
X5733333Y-15550000D01*
X5723809Y-15559524D01*
X5714286Y-15578571D01*
X5714286Y-15626190D01*
X5723809Y-15645238D01*
X5733333Y-15654762D01*
X5752381Y-15664286D01*
X5790476Y-15664286D01*
X5809524Y-15654762D01*
X5819048Y-15645238D01*
X5828571Y-15626190D01*
X5952381Y-15540476D02*
X5971428Y-15540476D01*
X5990476Y-15550000D01*
X6000000Y-15559524D01*
X6009524Y-15578571D01*
X6019048Y-15616667D01*
X6019048Y-15664286D01*
X6009524Y-15702381D01*
X6000000Y-15721428D01*
X5990476Y-15730952D01*
X5971428Y-15740476D01*
X5952381Y-15740476D01*
X5933333Y-15730952D01*
X5923809Y-15721428D01*
X5914286Y-15702381D01*
X5904762Y-15664286D01*
X5904762Y-15616667D01*
X5914286Y-15578571D01*
X5923809Y-15559524D01*
X5933333Y-15550000D01*
X5952381Y-15540476D01*
X6104762Y-15740476D02*
X6104762Y-15607143D01*
X6104762Y-15626190D02*
X6114286Y-15616667D01*
X6133333Y-15607143D01*
X6161905Y-15607143D01*
X6180952Y-15616667D01*
X6190476Y-15635714D01*
X6190476Y-15740476D01*
X6190476Y-15635714D02*
X6200000Y-15616667D01*
X6219048Y-15607143D01*
X6247619Y-15607143D01*
X6266667Y-15616667D01*
X6276190Y-15635714D01*
X6276190Y-15740476D01*
X6371428Y-15740476D02*
X6371428Y-15607143D01*
X6371428Y-15626190D02*
X6380952Y-15616667D01*
X6400000Y-15607143D01*
X6428571Y-15607143D01*
X6447619Y-15616667D01*
X6457143Y-15635714D01*
X6457143Y-15740476D01*
X6457143Y-15635714D02*
X6466667Y-15616667D01*
X6485714Y-15607143D01*
X6514286Y-15607143D01*
X6533333Y-15616667D01*
X6542857Y-15635714D01*
X6542857Y-15740476D01*
X6933333Y-15530952D02*
X6761905Y-15788095D01*
X7190476Y-15540476D02*
X7209524Y-15540476D01*
X7228571Y-15550000D01*
X7238095Y-15559524D01*
X7247619Y-15578571D01*
X7257143Y-15616667D01*
X7257143Y-15664286D01*
X7247619Y-15702381D01*
X7238095Y-15721428D01*
X7228571Y-15730952D01*
X7209524Y-15740476D01*
X7190476Y-15740476D01*
X7171428Y-15730952D01*
X7161905Y-15721428D01*
X7152381Y-15702381D01*
X7142857Y-15664286D01*
X7142857Y-15616667D01*
X7152381Y-15578571D01*
X7161905Y-15559524D01*
X7171428Y-15550000D01*
X7190476Y-15540476D01*
X7342857Y-15721428D02*
X7352381Y-15730952D01*
X7342857Y-15740476D01*
X7333333Y-15730952D01*
X7342857Y-15721428D01*
X7342857Y-15740476D01*
X7476190Y-15540476D02*
X7495238Y-15540476D01*
X7514286Y-15550000D01*
X7523809Y-15559524D01*
X7533333Y-15578571D01*
X7542857Y-15616667D01*
X7542857Y-15664286D01*
X7533333Y-15702381D01*
X7523809Y-15721428D01*
X7514286Y-15730952D01*
X7495238Y-15740476D01*
X7476190Y-15740476D01*
X7457143Y-15730952D01*
X7447619Y-15721428D01*
X7438095Y-15702381D01*
X7428571Y-15664286D01*
X7428571Y-15616667D01*
X7438095Y-15578571D01*
X7447619Y-15559524D01*
X7457143Y-15550000D01*
X7476190Y-15540476D01*
X7638095Y-15740476D02*
X7676190Y-15740476D01*
X7695238Y-15730952D01*
X7704762Y-15721428D01*
X7723809Y-15692857D01*
X7733333Y-15654762D01*
X7733333Y-15578571D01*
X7723809Y-15559524D01*
X7714286Y-15550000D01*
X7695238Y-15540476D01*
X7657143Y-15540476D01*
X7638095Y-15550000D01*
X7628571Y-15559524D01*
X7619048Y-15578571D01*
X7619048Y-15626190D01*
X7628571Y-15645238D01*
X7638095Y-15654762D01*
X7657143Y-15664286D01*
X7695238Y-15664286D01*
X7714286Y-15654762D01*
X7723809Y-15645238D01*
X7733333Y-15626190D01*
X7904762Y-15607143D02*
X7904762Y-15740476D01*
X7857143Y-15530952D02*
X7809524Y-15673809D01*
X7933333Y-15673809D01*
X8114286Y-15740476D02*
X8000000Y-15740476D01*
X8057143Y-15740476D02*
X8057143Y-15540476D01*
X8038095Y-15569048D01*
X8019048Y-15588095D01*
X8000000Y-15597619D01*
X8190476Y-15540476D02*
X8190476Y-15578571D01*
X8266667Y-15540476D02*
X8266667Y-15578571D01*
X8561905Y-15816667D02*
X8552381Y-15807143D01*
X8533333Y-15778571D01*
X8523810Y-15759524D01*
X8514286Y-15730952D01*
X8504762Y-15683333D01*
X8504762Y-15645238D01*
X8514286Y-15597619D01*
X8523810Y-15569048D01*
X8533333Y-15550000D01*
X8552381Y-15521428D01*
X8561905Y-15511905D01*
X8723810Y-15540476D02*
X8685714Y-15540476D01*
X8666667Y-15550000D01*
X8657143Y-15559524D01*
X8638095Y-15588095D01*
X8628571Y-15626190D01*
X8628571Y-15702381D01*
X8638095Y-15721428D01*
X8647619Y-15730952D01*
X8666667Y-15740476D01*
X8704762Y-15740476D01*
X8723810Y-15730952D01*
X8733333Y-15721428D01*
X8742857Y-15702381D01*
X8742857Y-15654762D01*
X8733333Y-15635714D01*
X8723810Y-15626190D01*
X8704762Y-15616667D01*
X8666667Y-15616667D01*
X8647619Y-15626190D01*
X8638095Y-15635714D01*
X8628571Y-15654762D01*
X8980952Y-15740476D02*
X8980952Y-15540476D01*
X9066667Y-15740476D02*
X9066667Y-15635714D01*
X9057143Y-15616667D01*
X9038095Y-15607143D01*
X9009524Y-15607143D01*
X8990476Y-15616667D01*
X8980952Y-15626190D01*
X9190476Y-15740476D02*
X9171429Y-15730952D01*
X9161905Y-15721428D01*
X9152381Y-15702381D01*
X9152381Y-15645238D01*
X9161905Y-15626190D01*
X9171429Y-15616667D01*
X9190476Y-15607143D01*
X9219048Y-15607143D01*
X9238095Y-15616667D01*
X9247619Y-15626190D01*
X9257143Y-15645238D01*
X9257143Y-15702381D01*
X9247619Y-15721428D01*
X9238095Y-15730952D01*
X9219048Y-15740476D01*
X9190476Y-15740476D01*
X9371429Y-15740476D02*
X9352381Y-15730952D01*
X9342857Y-15711905D01*
X9342857Y-15540476D01*
X9523810Y-15730952D02*
X9504762Y-15740476D01*
X9466667Y-15740476D01*
X9447619Y-15730952D01*
X9438095Y-15711905D01*
X9438095Y-15635714D01*
X9447619Y-15616667D01*
X9466667Y-15607143D01*
X9504762Y-15607143D01*
X9523810Y-15616667D01*
X9533333Y-15635714D01*
X9533333Y-15654762D01*
X9438095Y-15673809D01*
X9609524Y-15730952D02*
X9628571Y-15740476D01*
X9666667Y-15740476D01*
X9685714Y-15730952D01*
X9695238Y-15711905D01*
X9695238Y-15702381D01*
X9685714Y-15683333D01*
X9666667Y-15673809D01*
X9638095Y-15673809D01*
X9619048Y-15664286D01*
X9609524Y-15645238D01*
X9609524Y-15635714D01*
X9619048Y-15616667D01*
X9638095Y-15607143D01*
X9666667Y-15607143D01*
X9685714Y-15616667D01*
X9761905Y-15816667D02*
X9771429Y-15807143D01*
X9790476Y-15778571D01*
X9800000Y-15759524D01*
X9809524Y-15730952D01*
X9819048Y-15683333D01*
X9819048Y-15645238D01*
X9809524Y-15597619D01*
X9800000Y-15569048D01*
X9790476Y-15550000D01*
X9771429Y-15521428D01*
X9761905Y-15511905D01*
X10123810Y-15816667D02*
X10114286Y-15807143D01*
X10095238Y-15778571D01*
X10085714Y-15759524D01*
X10076190Y-15730952D01*
X10066667Y-15683333D01*
X10066667Y-15645238D01*
X10076190Y-15597619D01*
X10085714Y-15569048D01*
X10095238Y-15550000D01*
X10114286Y-15521428D01*
X10123810Y-15511905D01*
X10200000Y-15607143D02*
X10200000Y-15740476D01*
X10200000Y-15626190D02*
X10209524Y-15616667D01*
X10228571Y-15607143D01*
X10257143Y-15607143D01*
X10276190Y-15616667D01*
X10285714Y-15635714D01*
X10285714Y-15740476D01*
X10409524Y-15740476D02*
X10390476Y-15730952D01*
X10380952Y-15721428D01*
X10371429Y-15702381D01*
X10371429Y-15645238D01*
X10380952Y-15626190D01*
X10390476Y-15616667D01*
X10409524Y-15607143D01*
X10438095Y-15607143D01*
X10457143Y-15616667D01*
X10466667Y-15626190D01*
X10476190Y-15645238D01*
X10476190Y-15702381D01*
X10466667Y-15721428D01*
X10457143Y-15730952D01*
X10438095Y-15740476D01*
X10409524Y-15740476D01*
X10533333Y-15607143D02*
X10609524Y-15607143D01*
X10561905Y-15540476D02*
X10561905Y-15711905D01*
X10571429Y-15730952D01*
X10590476Y-15740476D01*
X10609524Y-15740476D01*
X10828571Y-15607143D02*
X10828571Y-15807143D01*
X10828571Y-15616667D02*
X10847619Y-15607143D01*
X10885714Y-15607143D01*
X10904762Y-15616667D01*
X10914286Y-15626190D01*
X10923810Y-15645238D01*
X10923810Y-15702381D01*
X10914286Y-15721428D01*
X10904762Y-15730952D01*
X10885714Y-15740476D01*
X10847619Y-15740476D01*
X10828571Y-15730952D01*
X11038095Y-15740476D02*
X11019048Y-15730952D01*
X11009524Y-15711905D01*
X11009524Y-15540476D01*
X11200000Y-15740476D02*
X11200000Y-15635714D01*
X11190476Y-15616667D01*
X11171429Y-15607143D01*
X11133333Y-15607143D01*
X11114286Y-15616667D01*
X11200000Y-15730952D02*
X11180952Y-15740476D01*
X11133333Y-15740476D01*
X11114286Y-15730952D01*
X11104762Y-15711905D01*
X11104762Y-15692857D01*
X11114286Y-15673809D01*
X11133333Y-15664286D01*
X11180952Y-15664286D01*
X11200000Y-15654762D01*
X11266667Y-15607143D02*
X11342857Y-15607143D01*
X11295238Y-15540476D02*
X11295238Y-15711905D01*
X11304762Y-15730952D01*
X11323809Y-15740476D01*
X11342857Y-15740476D01*
X11485714Y-15730952D02*
X11466667Y-15740476D01*
X11428571Y-15740476D01*
X11409524Y-15730952D01*
X11400000Y-15711905D01*
X11400000Y-15635714D01*
X11409524Y-15616667D01*
X11428571Y-15607143D01*
X11466667Y-15607143D01*
X11485714Y-15616667D01*
X11495238Y-15635714D01*
X11495238Y-15654762D01*
X11400000Y-15673809D01*
X11666667Y-15740476D02*
X11666667Y-15540476D01*
X11666667Y-15730952D02*
X11647619Y-15740476D01*
X11609524Y-15740476D01*
X11590476Y-15730952D01*
X11580952Y-15721428D01*
X11571428Y-15702381D01*
X11571428Y-15645238D01*
X11580952Y-15626190D01*
X11590476Y-15616667D01*
X11609524Y-15607143D01*
X11647619Y-15607143D01*
X11666667Y-15616667D01*
X11742857Y-15816667D02*
X11752381Y-15807143D01*
X11771428Y-15778571D01*
X11780952Y-15759524D01*
X11790476Y-15730952D01*
X11800000Y-15683333D01*
X11800000Y-15645238D01*
X11790476Y-15597619D01*
X11780952Y-15569048D01*
X11771428Y-15550000D01*
X11752381Y-15521428D01*
X11742857Y-15511905D01*
X4990000Y-15970000D02*
G75*
G03*
X4990000Y-15970000I-100000J0D01*
G01*
X5228571Y-15860476D02*
X5352381Y-15860476D01*
X5285714Y-15936667D01*
X5314286Y-15936667D01*
X5333333Y-15946190D01*
X5342857Y-15955714D01*
X5352381Y-15974762D01*
X5352381Y-16022381D01*
X5342857Y-16041428D01*
X5333333Y-16050952D01*
X5314286Y-16060476D01*
X5257143Y-16060476D01*
X5238095Y-16050952D01*
X5228571Y-16041428D01*
X5438095Y-16041428D02*
X5447619Y-16050952D01*
X5438095Y-16060476D01*
X5428571Y-16050952D01*
X5438095Y-16041428D01*
X5438095Y-16060476D01*
X5619048Y-15927143D02*
X5619048Y-16060476D01*
X5571429Y-15850952D02*
X5523810Y-15993809D01*
X5647619Y-15993809D01*
X5819048Y-15860476D02*
X5723809Y-15860476D01*
X5714286Y-15955714D01*
X5723809Y-15946190D01*
X5742857Y-15936667D01*
X5790476Y-15936667D01*
X5809524Y-15946190D01*
X5819048Y-15955714D01*
X5828571Y-15974762D01*
X5828571Y-16022381D01*
X5819048Y-16041428D01*
X5809524Y-16050952D01*
X5790476Y-16060476D01*
X5742857Y-16060476D01*
X5723809Y-16050952D01*
X5714286Y-16041428D01*
X5952381Y-15860476D02*
X5971428Y-15860476D01*
X5990476Y-15870000D01*
X6000000Y-15879524D01*
X6009524Y-15898571D01*
X6019048Y-15936667D01*
X6019048Y-15984286D01*
X6009524Y-16022381D01*
X6000000Y-16041428D01*
X5990476Y-16050952D01*
X5971428Y-16060476D01*
X5952381Y-16060476D01*
X5933333Y-16050952D01*
X5923809Y-16041428D01*
X5914286Y-16022381D01*
X5904762Y-15984286D01*
X5904762Y-15936667D01*
X5914286Y-15898571D01*
X5923809Y-15879524D01*
X5933333Y-15870000D01*
X5952381Y-15860476D01*
X6104762Y-16060476D02*
X6104762Y-15927143D01*
X6104762Y-15946190D02*
X6114286Y-15936667D01*
X6133333Y-15927143D01*
X6161905Y-15927143D01*
X6180952Y-15936667D01*
X6190476Y-15955714D01*
X6190476Y-16060476D01*
X6190476Y-15955714D02*
X6200000Y-15936667D01*
X6219048Y-15927143D01*
X6247619Y-15927143D01*
X6266667Y-15936667D01*
X6276190Y-15955714D01*
X6276190Y-16060476D01*
X6371428Y-16060476D02*
X6371428Y-15927143D01*
X6371428Y-15946190D02*
X6380952Y-15936667D01*
X6400000Y-15927143D01*
X6428571Y-15927143D01*
X6447619Y-15936667D01*
X6457143Y-15955714D01*
X6457143Y-16060476D01*
X6457143Y-15955714D02*
X6466667Y-15936667D01*
X6485714Y-15927143D01*
X6514286Y-15927143D01*
X6533333Y-15936667D01*
X6542857Y-15955714D01*
X6542857Y-16060476D01*
X6933333Y-15850952D02*
X6761905Y-16108095D01*
X7190476Y-15860476D02*
X7209524Y-15860476D01*
X7228571Y-15870000D01*
X7238095Y-15879524D01*
X7247619Y-15898571D01*
X7257143Y-15936667D01*
X7257143Y-15984286D01*
X7247619Y-16022381D01*
X7238095Y-16041428D01*
X7228571Y-16050952D01*
X7209524Y-16060476D01*
X7190476Y-16060476D01*
X7171428Y-16050952D01*
X7161905Y-16041428D01*
X7152381Y-16022381D01*
X7142857Y-15984286D01*
X7142857Y-15936667D01*
X7152381Y-15898571D01*
X7161905Y-15879524D01*
X7171428Y-15870000D01*
X7190476Y-15860476D01*
X7342857Y-16041428D02*
X7352381Y-16050952D01*
X7342857Y-16060476D01*
X7333333Y-16050952D01*
X7342857Y-16041428D01*
X7342857Y-16060476D01*
X7542857Y-16060476D02*
X7428571Y-16060476D01*
X7485714Y-16060476D02*
X7485714Y-15860476D01*
X7466667Y-15889048D01*
X7447619Y-15908095D01*
X7428571Y-15917619D01*
X7609524Y-15860476D02*
X7733333Y-15860476D01*
X7666667Y-15936667D01*
X7695238Y-15936667D01*
X7714286Y-15946190D01*
X7723809Y-15955714D01*
X7733333Y-15974762D01*
X7733333Y-16022381D01*
X7723809Y-16041428D01*
X7714286Y-16050952D01*
X7695238Y-16060476D01*
X7638095Y-16060476D01*
X7619048Y-16050952D01*
X7609524Y-16041428D01*
X7914286Y-15860476D02*
X7819048Y-15860476D01*
X7809524Y-15955714D01*
X7819048Y-15946190D01*
X7838095Y-15936667D01*
X7885714Y-15936667D01*
X7904762Y-15946190D01*
X7914286Y-15955714D01*
X7923809Y-15974762D01*
X7923809Y-16022381D01*
X7914286Y-16041428D01*
X7904762Y-16050952D01*
X7885714Y-16060476D01*
X7838095Y-16060476D01*
X7819048Y-16050952D01*
X7809524Y-16041428D01*
X8038095Y-15946190D02*
X8019048Y-15936667D01*
X8009524Y-15927143D01*
X8000000Y-15908095D01*
X8000000Y-15898571D01*
X8009524Y-15879524D01*
X8019048Y-15870000D01*
X8038095Y-15860476D01*
X8076190Y-15860476D01*
X8095238Y-15870000D01*
X8104762Y-15879524D01*
X8114286Y-15898571D01*
X8114286Y-15908095D01*
X8104762Y-15927143D01*
X8095238Y-15936667D01*
X8076190Y-15946190D01*
X8038095Y-15946190D01*
X8019048Y-15955714D01*
X8009524Y-15965238D01*
X8000000Y-15984286D01*
X8000000Y-16022381D01*
X8009524Y-16041428D01*
X8019048Y-16050952D01*
X8038095Y-16060476D01*
X8076190Y-16060476D01*
X8095238Y-16050952D01*
X8104762Y-16041428D01*
X8114286Y-16022381D01*
X8114286Y-15984286D01*
X8104762Y-15965238D01*
X8095238Y-15955714D01*
X8076190Y-15946190D01*
X8190476Y-15860476D02*
X8190476Y-15898571D01*
X8266667Y-15860476D02*
X8266667Y-15898571D01*
X8561905Y-16136667D02*
X8552381Y-16127143D01*
X8533333Y-16098571D01*
X8523810Y-16079524D01*
X8514286Y-16050952D01*
X8504762Y-16003333D01*
X8504762Y-15965238D01*
X8514286Y-15917619D01*
X8523810Y-15889048D01*
X8533333Y-15870000D01*
X8552381Y-15841428D01*
X8561905Y-15831905D01*
X8742857Y-16060476D02*
X8628571Y-16060476D01*
X8685714Y-16060476D02*
X8685714Y-15860476D01*
X8666667Y-15889048D01*
X8647619Y-15908095D01*
X8628571Y-15917619D01*
X8819048Y-15879524D02*
X8828571Y-15870000D01*
X8847619Y-15860476D01*
X8895238Y-15860476D01*
X8914286Y-15870000D01*
X8923810Y-15879524D01*
X8933333Y-15898571D01*
X8933333Y-15917619D01*
X8923810Y-15946190D01*
X8809524Y-16060476D01*
X8933333Y-16060476D01*
X9171429Y-16060476D02*
X9171429Y-15860476D01*
X9257143Y-16060476D02*
X9257143Y-15955714D01*
X9247619Y-15936667D01*
X9228571Y-15927143D01*
X9200000Y-15927143D01*
X9180952Y-15936667D01*
X9171429Y-15946190D01*
X9380952Y-16060476D02*
X9361905Y-16050952D01*
X9352381Y-16041428D01*
X9342857Y-16022381D01*
X9342857Y-15965238D01*
X9352381Y-15946190D01*
X9361905Y-15936667D01*
X9380952Y-15927143D01*
X9409524Y-15927143D01*
X9428571Y-15936667D01*
X9438095Y-15946190D01*
X9447619Y-15965238D01*
X9447619Y-16022381D01*
X9438095Y-16041428D01*
X9428571Y-16050952D01*
X9409524Y-16060476D01*
X9380952Y-16060476D01*
X9561905Y-16060476D02*
X9542857Y-16050952D01*
X9533333Y-16031905D01*
X9533333Y-15860476D01*
X9714286Y-16050952D02*
X9695238Y-16060476D01*
X9657143Y-16060476D01*
X9638095Y-16050952D01*
X9628571Y-16031905D01*
X9628571Y-15955714D01*
X9638095Y-15936667D01*
X9657143Y-15927143D01*
X9695238Y-15927143D01*
X9714286Y-15936667D01*
X9723810Y-15955714D01*
X9723810Y-15974762D01*
X9628571Y-15993809D01*
X9800000Y-16050952D02*
X9819048Y-16060476D01*
X9857143Y-16060476D01*
X9876190Y-16050952D01*
X9885714Y-16031905D01*
X9885714Y-16022381D01*
X9876190Y-16003333D01*
X9857143Y-15993809D01*
X9828571Y-15993809D01*
X9809524Y-15984286D01*
X9800000Y-15965238D01*
X9800000Y-15955714D01*
X9809524Y-15936667D01*
X9828571Y-15927143D01*
X9857143Y-15927143D01*
X9876190Y-15936667D01*
X9952381Y-16136667D02*
X9961905Y-16127143D01*
X9980952Y-16098571D01*
X9990476Y-16079524D01*
X10000000Y-16050952D01*
X10009524Y-16003333D01*
X10009524Y-15965238D01*
X10000000Y-15917619D01*
X9990476Y-15889048D01*
X9980952Y-15870000D01*
X9961905Y-15841428D01*
X9952381Y-15831905D01*
X10314286Y-16136667D02*
X10304762Y-16127143D01*
X10285714Y-16098571D01*
X10276190Y-16079524D01*
X10266667Y-16050952D01*
X10257143Y-16003333D01*
X10257143Y-15965238D01*
X10266667Y-15917619D01*
X10276190Y-15889048D01*
X10285714Y-15870000D01*
X10304762Y-15841428D01*
X10314286Y-15831905D01*
X10390476Y-15927143D02*
X10390476Y-16060476D01*
X10390476Y-15946190D02*
X10400000Y-15936667D01*
X10419048Y-15927143D01*
X10447619Y-15927143D01*
X10466667Y-15936667D01*
X10476190Y-15955714D01*
X10476190Y-16060476D01*
X10600000Y-16060476D02*
X10580952Y-16050952D01*
X10571429Y-16041428D01*
X10561905Y-16022381D01*
X10561905Y-15965238D01*
X10571429Y-15946190D01*
X10580952Y-15936667D01*
X10600000Y-15927143D01*
X10628571Y-15927143D01*
X10647619Y-15936667D01*
X10657143Y-15946190D01*
X10666667Y-15965238D01*
X10666667Y-16022381D01*
X10657143Y-16041428D01*
X10647619Y-16050952D01*
X10628571Y-16060476D01*
X10600000Y-16060476D01*
X10723810Y-15927143D02*
X10800000Y-15927143D01*
X10752381Y-15860476D02*
X10752381Y-16031905D01*
X10761905Y-16050952D01*
X10780952Y-16060476D01*
X10800000Y-16060476D01*
X11019048Y-15927143D02*
X11019048Y-16127143D01*
X11019048Y-15936667D02*
X11038095Y-15927143D01*
X11076190Y-15927143D01*
X11095238Y-15936667D01*
X11104762Y-15946190D01*
X11114286Y-15965238D01*
X11114286Y-16022381D01*
X11104762Y-16041428D01*
X11095238Y-16050952D01*
X11076190Y-16060476D01*
X11038095Y-16060476D01*
X11019048Y-16050952D01*
X11228571Y-16060476D02*
X11209524Y-16050952D01*
X11200000Y-16031905D01*
X11200000Y-15860476D01*
X11390476Y-16060476D02*
X11390476Y-15955714D01*
X11380952Y-15936667D01*
X11361905Y-15927143D01*
X11323809Y-15927143D01*
X11304762Y-15936667D01*
X11390476Y-16050952D02*
X11371428Y-16060476D01*
X11323809Y-16060476D01*
X11304762Y-16050952D01*
X11295238Y-16031905D01*
X11295238Y-16012857D01*
X11304762Y-15993809D01*
X11323809Y-15984286D01*
X11371428Y-15984286D01*
X11390476Y-15974762D01*
X11457143Y-15927143D02*
X11533333Y-15927143D01*
X11485714Y-15860476D02*
X11485714Y-16031905D01*
X11495238Y-16050952D01*
X11514286Y-16060476D01*
X11533333Y-16060476D01*
X11676190Y-16050952D02*
X11657143Y-16060476D01*
X11619048Y-16060476D01*
X11600000Y-16050952D01*
X11590476Y-16031905D01*
X11590476Y-15955714D01*
X11600000Y-15936667D01*
X11619048Y-15927143D01*
X11657143Y-15927143D01*
X11676190Y-15936667D01*
X11685714Y-15955714D01*
X11685714Y-15974762D01*
X11590476Y-15993809D01*
X11857143Y-16060476D02*
X11857143Y-15860476D01*
X11857143Y-16050952D02*
X11838095Y-16060476D01*
X11800000Y-16060476D01*
X11780952Y-16050952D01*
X11771428Y-16041428D01*
X11761905Y-16022381D01*
X11761905Y-15965238D01*
X11771428Y-15946190D01*
X11780952Y-15936667D01*
X11800000Y-15927143D01*
X11838095Y-15927143D01*
X11857143Y-15936667D01*
X11933333Y-16136667D02*
X11942857Y-16127143D01*
X11961905Y-16098571D01*
X11971428Y-16079524D01*
X11980952Y-16050952D01*
X11990476Y-16003333D01*
X11990476Y-15965238D01*
X11980952Y-15917619D01*
X11971428Y-15889048D01*
X11961905Y-15870000D01*
X11942857Y-15841428D01*
X11933333Y-15831905D01*
M02*
